<svg xmlns="http://www.w3.org/2000/svg" xmlns:xlink="http://www.w3.org/1999/xlink" width="600" height="400" viewBox="0 0 2400 1600">
<defs>
  <clipPath id="clip660">
    <rect x="0" y="0" width="2400" height="1600"></rect>
  </clipPath>
</defs>
<path clip-path="url(#clip660)" d="
M0 1600 L2400 1600 L2400 0 L0 0  Z
  " fill="#ffffff" fill-rule="evenodd" fill-opacity="1"></path>
<defs>
  <clipPath id="clip661">
    <rect x="480" y="0" width="1681" height="1600"></rect>
  </clipPath>
</defs>
<path clip-path="url(#clip660)" d="
M264.287 1423.18 L2352.76 1423.18 L2352.76 183.952 L264.287 183.952  Z
  " fill="#ffffff" fill-rule="evenodd" fill-opacity="1"></path>
<defs>
  <clipPath id="clip662">
    <rect x="264" y="183" width="2089" height="1240"></rect>
  </clipPath>
</defs>
<polyline clip-path="url(#clip662)" style="stroke:#000000; stroke-linecap:round; stroke-linejoin:round; stroke-width:2; stroke-opacity:0.1; fill:none" points="
  666.048,1423.18 666.048,183.952 
  "></polyline>
<polyline clip-path="url(#clip662)" style="stroke:#000000; stroke-linecap:round; stroke-linejoin:round; stroke-width:2; stroke-opacity:0.1; fill:none" points="
  1094.36,1423.18 1094.36,183.952 
  "></polyline>
<polyline clip-path="url(#clip662)" style="stroke:#000000; stroke-linecap:round; stroke-linejoin:round; stroke-width:2; stroke-opacity:0.1; fill:none" points="
  1522.68,1423.18 1522.68,183.952 
  "></polyline>
<polyline clip-path="url(#clip662)" style="stroke:#000000; stroke-linecap:round; stroke-linejoin:round; stroke-width:2; stroke-opacity:0.1; fill:none" points="
  1951,1423.18 1951,183.952 
  "></polyline>
<polyline clip-path="url(#clip660)" style="stroke:#000000; stroke-linecap:round; stroke-linejoin:round; stroke-width:4; stroke-opacity:1; fill:none" points="
  264.287,1423.18 2352.76,1423.18 
  "></polyline>
<polyline clip-path="url(#clip660)" style="stroke:#000000; stroke-linecap:round; stroke-linejoin:round; stroke-width:4; stroke-opacity:1; fill:none" points="
  666.048,1423.18 666.048,1404.28 
  "></polyline>
<polyline clip-path="url(#clip660)" style="stroke:#000000; stroke-linecap:round; stroke-linejoin:round; stroke-width:4; stroke-opacity:1; fill:none" points="
  1094.36,1423.18 1094.36,1404.28 
  "></polyline>
<polyline clip-path="url(#clip660)" style="stroke:#000000; stroke-linecap:round; stroke-linejoin:round; stroke-width:4; stroke-opacity:1; fill:none" points="
  1522.68,1423.18 1522.68,1404.28 
  "></polyline>
<polyline clip-path="url(#clip660)" style="stroke:#000000; stroke-linecap:round; stroke-linejoin:round; stroke-width:4; stroke-opacity:1; fill:none" points="
  1951,1423.18 1951,1404.28 
  "></polyline>
<path clip-path="url(#clip660)" d="M656.326 1451.02 L674.682 1451.02 L674.682 1454.96 L660.608 1454.96 L660.608 1463.43 Q661.626 1463.08 662.645 1462.92 Q663.663 1462.73 664.682 1462.73 Q670.469 1462.73 673.849 1465.9 Q677.228 1469.08 677.228 1474.49 Q677.228 1480.07 673.756 1483.17 Q670.284 1486.25 663.964 1486.25 Q661.788 1486.25 659.52 1485.88 Q657.275 1485.51 654.867 1484.77 L654.867 1480.07 Q656.951 1481.2 659.173 1481.76 Q661.395 1482.32 663.872 1482.32 Q667.876 1482.32 670.214 1480.21 Q672.552 1478.1 672.552 1474.49 Q672.552 1470.88 670.214 1468.77 Q667.876 1466.67 663.872 1466.67 Q661.997 1466.67 660.122 1467.08 Q658.27 1467.5 656.326 1468.38 L656.326 1451.02 Z" fill="#000000" fill-rule="evenodd" fill-opacity="1"></path><path clip-path="url(#clip660)" d="M1069.05 1481.64 L1076.69 1481.64 L1076.69 1455.28 L1068.38 1456.95 L1068.38 1452.69 L1076.64 1451.02 L1081.32 1451.02 L1081.32 1481.64 L1088.96 1481.64 L1088.96 1485.58 L1069.05 1485.58 L1069.05 1481.64 Z" fill="#000000" fill-rule="evenodd" fill-opacity="1"></path><path clip-path="url(#clip660)" d="M1108.4 1454.1 Q1104.79 1454.1 1102.96 1457.66 Q1101.16 1461.2 1101.16 1468.33 Q1101.16 1475.44 1102.96 1479.01 Q1104.79 1482.55 1108.4 1482.55 Q1112.04 1482.55 1113.84 1479.01 Q1115.67 1475.44 1115.67 1468.33 Q1115.67 1461.2 1113.84 1457.66 Q1112.04 1454.1 1108.4 1454.1 M1108.4 1450.39 Q1114.21 1450.39 1117.27 1455 Q1120.35 1459.58 1120.35 1468.33 Q1120.35 1477.06 1117.27 1481.67 Q1114.21 1486.25 1108.4 1486.25 Q1102.59 1486.25 1099.51 1481.67 Q1096.46 1477.06 1096.46 1468.33 Q1096.46 1459.58 1099.51 1455 Q1102.59 1450.39 1108.4 1450.39 Z" fill="#000000" fill-rule="evenodd" fill-opacity="1"></path><path clip-path="url(#clip660)" d="M1497.86 1481.64 L1505.5 1481.64 L1505.5 1455.28 L1497.19 1456.95 L1497.19 1452.69 L1505.46 1451.02 L1510.13 1451.02 L1510.13 1481.64 L1517.77 1481.64 L1517.77 1485.58 L1497.86 1485.58 L1497.86 1481.64 Z" fill="#000000" fill-rule="evenodd" fill-opacity="1"></path><path clip-path="url(#clip660)" d="M1527.26 1451.02 L1545.62 1451.02 L1545.62 1454.96 L1531.55 1454.96 L1531.55 1463.43 Q1532.56 1463.08 1533.58 1462.92 Q1534.6 1462.73 1535.62 1462.73 Q1541.41 1462.73 1544.79 1465.9 Q1548.17 1469.08 1548.17 1474.49 Q1548.17 1480.07 1544.69 1483.17 Q1541.22 1486.25 1534.9 1486.25 Q1532.73 1486.25 1530.46 1485.88 Q1528.21 1485.51 1525.8 1484.77 L1525.8 1480.07 Q1527.89 1481.2 1530.11 1481.76 Q1532.33 1482.32 1534.81 1482.32 Q1538.81 1482.32 1541.15 1480.21 Q1543.49 1478.1 1543.49 1474.49 Q1543.49 1470.88 1541.15 1468.77 Q1538.81 1466.67 1534.81 1466.67 Q1532.93 1466.67 1531.06 1467.08 Q1529.21 1467.5 1527.26 1468.38 L1527.26 1451.02 Z" fill="#000000" fill-rule="evenodd" fill-opacity="1"></path><path clip-path="url(#clip660)" d="M1929.77 1481.64 L1946.09 1481.64 L1946.09 1485.58 L1924.14 1485.58 L1924.14 1481.64 Q1926.81 1478.89 1931.39 1474.26 Q1936 1469.61 1937.18 1468.27 Q1939.42 1465.74 1940.3 1464.01 Q1941.2 1462.25 1941.2 1460.56 Q1941.2 1457.8 1939.26 1456.07 Q1937.34 1454.33 1934.24 1454.33 Q1932.04 1454.33 1929.58 1455.09 Q1927.15 1455.86 1924.38 1457.41 L1924.38 1452.69 Q1927.2 1451.55 1929.65 1450.97 Q1932.11 1450.39 1934.14 1450.39 Q1939.51 1450.39 1942.71 1453.08 Q1945.9 1455.77 1945.9 1460.26 Q1945.9 1462.39 1945.09 1464.31 Q1944.31 1466.2 1942.2 1468.8 Q1941.62 1469.47 1938.52 1472.69 Q1935.42 1475.88 1929.77 1481.64 Z" fill="#000000" fill-rule="evenodd" fill-opacity="1"></path><path clip-path="url(#clip660)" d="M1965.9 1454.1 Q1962.29 1454.1 1960.46 1457.66 Q1958.66 1461.2 1958.66 1468.33 Q1958.66 1475.44 1960.46 1479.01 Q1962.29 1482.55 1965.9 1482.55 Q1969.54 1482.55 1971.34 1479.01 Q1973.17 1475.44 1973.17 1468.33 Q1973.17 1461.2 1971.34 1457.66 Q1969.54 1454.1 1965.9 1454.1 M1965.9 1450.39 Q1971.71 1450.39 1974.77 1455 Q1977.85 1459.58 1977.85 1468.33 Q1977.85 1477.06 1974.77 1481.67 Q1971.71 1486.25 1965.9 1486.25 Q1960.09 1486.25 1957.01 1481.67 Q1953.96 1477.06 1953.96 1468.33 Q1953.96 1459.58 1957.01 1455 Q1960.09 1450.39 1965.9 1450.39 Z" fill="#000000" fill-rule="evenodd" fill-opacity="1"></path><path clip-path="url(#clip660)" d="M987.547 1520.52 L1027.75 1520.52 L1027.75 1525.93 L1010.88 1525.93 L1010.88 1568.04 L1004.42 1568.04 L1004.42 1525.93 L987.547 1525.93 L987.547 1520.52 Z" fill="#000000" fill-rule="evenodd" fill-opacity="1"></path><path clip-path="url(#clip660)" d="M1031.69 1532.4 L1037.55 1532.4 L1037.55 1568.04 L1031.69 1568.04 L1031.69 1532.4 M1031.69 1518.52 L1037.55 1518.52 L1037.55 1525.93 L1031.69 1525.93 L1031.69 1518.52 Z" fill="#000000" fill-rule="evenodd" fill-opacity="1"></path><path clip-path="url(#clip660)" d="M1077.56 1539.24 Q1079.75 1535.29 1082.81 1533.41 Q1085.87 1531.54 1090 1531.54 Q1095.57 1531.54 1098.6 1535.45 Q1101.62 1539.33 1101.62 1546.53 L1101.62 1568.04 L1095.73 1568.04 L1095.73 1546.72 Q1095.73 1541.59 1093.92 1539.11 Q1092.1 1536.63 1088.38 1536.63 Q1083.83 1536.63 1081.19 1539.65 Q1078.54 1542.68 1078.54 1547.9 L1078.54 1568.04 L1072.66 1568.04 L1072.66 1546.72 Q1072.66 1541.56 1070.84 1539.11 Q1069.03 1536.63 1065.24 1536.63 Q1060.75 1536.63 1058.11 1539.68 Q1055.47 1542.71 1055.47 1547.9 L1055.47 1568.04 L1049.58 1568.04 L1049.58 1532.4 L1055.47 1532.4 L1055.47 1537.93 Q1057.47 1534.66 1060.27 1533.1 Q1063.08 1531.54 1066.93 1531.54 Q1070.81 1531.54 1073.52 1533.51 Q1076.25 1535.48 1077.56 1539.24 Z" fill="#000000" fill-rule="evenodd" fill-opacity="1"></path><path clip-path="url(#clip660)" d="M1143.79 1548.76 L1143.79 1551.62 L1116.87 1551.62 Q1117.25 1557.67 1120.49 1560.85 Q1123.77 1564 1129.6 1564 Q1132.97 1564 1136.12 1563.17 Q1139.31 1562.35 1142.42 1560.69 L1142.42 1566.23 Q1139.27 1567.57 1135.96 1568.27 Q1132.65 1568.97 1129.25 1568.97 Q1120.72 1568.97 1115.72 1564 Q1110.76 1559.04 1110.76 1550.57 Q1110.76 1541.82 1115.47 1536.69 Q1120.21 1531.54 1128.23 1531.54 Q1135.42 1531.54 1139.59 1536.18 Q1143.79 1540.8 1143.79 1548.76 M1137.94 1547.04 Q1137.87 1542.23 1135.23 1539.37 Q1132.62 1536.5 1128.29 1536.5 Q1123.39 1536.5 1120.43 1539.27 Q1117.5 1542.04 1117.06 1547.07 L1137.94 1547.04 Z" fill="#000000" fill-rule="evenodd" fill-opacity="1"></path><path clip-path="url(#clip660)" d="M1187.94 1536.5 Q1183.23 1536.5 1180.49 1540.19 Q1177.75 1543.85 1177.75 1550.25 Q1177.75 1556.65 1180.46 1560.34 Q1183.2 1564 1187.94 1564 Q1192.62 1564 1195.36 1560.31 Q1198.09 1556.62 1198.09 1550.25 Q1198.09 1543.92 1195.36 1540.23 Q1192.62 1536.5 1187.94 1536.5 M1187.94 1531.54 Q1195.58 1531.54 1199.94 1536.5 Q1204.3 1541.47 1204.3 1550.25 Q1204.3 1559 1199.94 1564 Q1195.58 1568.97 1187.94 1568.97 Q1180.27 1568.97 1175.91 1564 Q1171.58 1559 1171.58 1550.25 Q1171.58 1541.47 1175.91 1536.5 Q1180.27 1531.54 1187.94 1531.54 Z" fill="#000000" fill-rule="evenodd" fill-opacity="1"></path><path clip-path="url(#clip660)" d="M1232.05 1518.52 L1232.05 1523.39 L1226.45 1523.39 Q1223.3 1523.39 1222.06 1524.66 Q1220.85 1525.93 1220.85 1529.24 L1220.85 1532.4 L1230.49 1532.4 L1230.49 1536.95 L1220.85 1536.95 L1220.85 1568.04 L1214.96 1568.04 L1214.96 1536.95 L1209.36 1536.95 L1209.36 1532.4 L1214.96 1532.4 L1214.96 1529.91 Q1214.96 1523.96 1217.73 1521.26 Q1220.5 1518.52 1226.52 1518.52 L1232.05 1518.52 Z" fill="#000000" fill-rule="evenodd" fill-opacity="1"></path><path clip-path="url(#clip660)" d="M1264.36 1525.81 L1264.36 1562.76 L1272.13 1562.76 Q1281.96 1562.76 1286.51 1558.3 Q1291.1 1553.85 1291.1 1544.24 Q1291.1 1534.69 1286.51 1530.26 Q1281.96 1525.81 1272.13 1525.81 L1264.36 1525.81 M1257.93 1520.52 L1271.14 1520.52 Q1284.95 1520.52 1291.41 1526.28 Q1297.87 1532.01 1297.87 1544.24 Q1297.87 1556.52 1291.38 1562.28 Q1284.89 1568.04 1271.14 1568.04 L1257.93 1568.04 L1257.93 1520.52 Z" fill="#000000" fill-rule="evenodd" fill-opacity="1"></path><path clip-path="url(#clip660)" d="M1324.07 1550.12 Q1316.97 1550.12 1314.23 1551.75 Q1311.5 1553.37 1311.5 1557.29 Q1311.5 1560.4 1313.53 1562.25 Q1315.6 1564.07 1319.14 1564.07 Q1324.01 1564.07 1326.93 1560.63 Q1329.89 1557.16 1329.89 1551.43 L1329.89 1550.12 L1324.07 1550.12 M1335.75 1547.71 L1335.75 1568.04 L1329.89 1568.04 L1329.89 1562.63 Q1327.89 1565.88 1324.9 1567.44 Q1321.91 1568.97 1317.58 1568.97 Q1312.1 1568.97 1308.86 1565.91 Q1305.64 1562.82 1305.64 1557.67 Q1305.64 1551.65 1309.65 1548.6 Q1313.69 1545.54 1321.68 1545.54 L1329.89 1545.54 L1329.89 1544.97 Q1329.89 1540.93 1327.22 1538.73 Q1324.58 1536.5 1319.77 1536.5 Q1316.72 1536.5 1313.82 1537.23 Q1310.92 1537.97 1308.25 1539.43 L1308.25 1534.02 Q1311.47 1532.78 1314.49 1532.17 Q1317.51 1531.54 1320.38 1531.54 Q1328.11 1531.54 1331.93 1535.55 Q1335.75 1539.56 1335.75 1547.71 Z" fill="#000000" fill-rule="evenodd" fill-opacity="1"></path><path clip-path="url(#clip660)" d="M1362.65 1571.35 Q1360.16 1577.72 1357.81 1579.66 Q1355.45 1581.6 1351.51 1581.6 L1346.83 1581.6 L1346.83 1576.7 L1350.26 1576.7 Q1352.68 1576.7 1354.02 1575.56 Q1355.36 1574.41 1356.98 1570.14 L1358.03 1567.47 L1343.61 1532.4 L1349.82 1532.4 L1360.96 1560.28 L1372.1 1532.4 L1378.31 1532.4 L1362.65 1571.35 Z" fill="#000000" fill-rule="evenodd" fill-opacity="1"></path><path clip-path="url(#clip660)" d="M1421.18 1518.58 Q1416.91 1525.9 1414.84 1533.06 Q1412.78 1540.23 1412.78 1547.58 Q1412.78 1554.93 1414.84 1562.16 Q1416.95 1569.35 1421.18 1576.64 L1416.09 1576.64 Q1411.31 1569.16 1408.92 1561.93 Q1406.57 1554.71 1406.57 1547.58 Q1406.57 1540.48 1408.92 1533.29 Q1411.28 1526.09 1416.09 1518.58 L1421.18 1518.58 Z" fill="#000000" fill-rule="evenodd" fill-opacity="1"></path><path clip-path="url(#clip660)" d="M1462.17 1546.53 L1462.17 1568.04 L1456.32 1568.04 L1456.32 1546.72 Q1456.32 1541.66 1454.34 1539.14 Q1452.37 1536.63 1448.42 1536.63 Q1443.68 1536.63 1440.94 1539.65 Q1438.21 1542.68 1438.21 1547.9 L1438.21 1568.04 L1432.32 1568.04 L1432.32 1518.52 L1438.21 1518.52 L1438.21 1537.93 Q1440.31 1534.72 1443.14 1533.13 Q1446 1531.54 1449.73 1531.54 Q1455.87 1531.54 1459.02 1535.36 Q1462.17 1539.14 1462.17 1546.53 Z" fill="#000000" fill-rule="evenodd" fill-opacity="1"></path><path clip-path="url(#clip660)" d="M1487.67 1536.5 Q1482.96 1536.5 1480.22 1540.19 Q1477.48 1543.85 1477.48 1550.25 Q1477.48 1556.65 1480.19 1560.34 Q1482.93 1564 1487.67 1564 Q1492.35 1564 1495.08 1560.31 Q1497.82 1556.62 1497.82 1550.25 Q1497.82 1543.92 1495.08 1540.23 Q1492.35 1536.5 1487.67 1536.5 M1487.67 1531.54 Q1495.31 1531.54 1499.67 1536.5 Q1504.03 1541.47 1504.03 1550.25 Q1504.03 1559 1499.67 1564 Q1495.31 1568.97 1487.67 1568.97 Q1480 1568.97 1475.64 1564 Q1471.31 1559 1471.31 1550.25 Q1471.31 1541.47 1475.64 1536.5 Q1480 1531.54 1487.67 1531.54 Z" fill="#000000" fill-rule="evenodd" fill-opacity="1"></path><path clip-path="url(#clip660)" d="M1513.13 1553.98 L1513.13 1532.4 L1518.99 1532.4 L1518.99 1553.75 Q1518.99 1558.81 1520.96 1561.36 Q1522.93 1563.87 1526.88 1563.87 Q1531.62 1563.87 1534.36 1560.85 Q1537.13 1557.83 1537.13 1552.61 L1537.13 1532.4 L1542.99 1532.4 L1542.99 1568.04 L1537.13 1568.04 L1537.13 1562.57 Q1535 1565.82 1532.16 1567.41 Q1529.36 1568.97 1525.64 1568.97 Q1519.5 1568.97 1516.31 1565.15 Q1513.13 1561.33 1513.13 1553.98 M1527.87 1531.54 L1527.87 1531.54 Z" fill="#000000" fill-rule="evenodd" fill-opacity="1"></path><path clip-path="url(#clip660)" d="M1575.71 1537.87 Q1574.72 1537.3 1573.54 1537.04 Q1572.4 1536.76 1571 1536.76 Q1566.03 1536.76 1563.36 1540 Q1560.71 1543.22 1560.71 1549.27 L1560.71 1568.04 L1554.83 1568.04 L1554.83 1532.4 L1560.71 1532.4 L1560.71 1537.93 Q1562.56 1534.69 1565.52 1533.13 Q1568.48 1531.54 1572.71 1531.54 Q1573.32 1531.54 1574.05 1531.63 Q1574.78 1531.7 1575.67 1531.85 L1575.71 1537.87 Z" fill="#000000" fill-rule="evenodd" fill-opacity="1"></path><path clip-path="url(#clip660)" d="M1604.57 1533.45 L1604.57 1538.98 Q1602.09 1537.71 1599.42 1537.07 Q1596.74 1536.44 1593.88 1536.44 Q1589.52 1536.44 1587.32 1537.77 Q1585.16 1539.11 1585.16 1541.79 Q1585.16 1543.82 1586.72 1545 Q1588.28 1546.15 1592.99 1547.2 L1594.99 1547.64 Q1601.23 1548.98 1603.84 1551.43 Q1606.48 1553.85 1606.48 1558.21 Q1606.48 1563.17 1602.54 1566.07 Q1598.62 1568.97 1591.75 1568.97 Q1588.88 1568.97 1585.76 1568.39 Q1582.68 1567.85 1579.24 1566.74 L1579.24 1560.69 Q1582.49 1562.38 1585.64 1563.24 Q1588.79 1564.07 1591.88 1564.07 Q1596.01 1564.07 1598.24 1562.66 Q1600.47 1561.23 1600.47 1558.65 Q1600.47 1556.27 1598.85 1554.99 Q1597.25 1553.72 1591.81 1552.54 L1589.77 1552.07 Q1584.33 1550.92 1581.91 1548.56 Q1579.49 1546.18 1579.49 1542.04 Q1579.49 1537.01 1583.06 1534.27 Q1586.62 1531.54 1593.18 1531.54 Q1596.43 1531.54 1599.29 1532.01 Q1602.16 1532.49 1604.57 1533.45 Z" fill="#000000" fill-rule="evenodd" fill-opacity="1"></path><path clip-path="url(#clip660)" d="M1614.89 1518.58 L1619.98 1518.58 Q1624.75 1526.09 1627.11 1533.29 Q1629.5 1540.48 1629.5 1547.58 Q1629.5 1554.71 1627.11 1561.93 Q1624.75 1569.16 1619.98 1576.64 L1614.89 1576.64 Q1619.12 1569.35 1621.19 1562.16 Q1623.29 1554.93 1623.29 1547.58 Q1623.29 1540.23 1621.19 1533.06 Q1619.12 1525.9 1614.89 1518.58 Z" fill="#000000" fill-rule="evenodd" fill-opacity="1"></path><polyline clip-path="url(#clip662)" style="stroke:#000000; stroke-linecap:round; stroke-linejoin:round; stroke-width:2; stroke-opacity:0.1; fill:none" points="
  264.287,1388.11 2352.76,1388.11 
  "></polyline>
<polyline clip-path="url(#clip662)" style="stroke:#000000; stroke-linecap:round; stroke-linejoin:round; stroke-width:2; stroke-opacity:0.1; fill:none" points="
  264.287,1007.79 2352.76,1007.79 
  "></polyline>
<polyline clip-path="url(#clip662)" style="stroke:#000000; stroke-linecap:round; stroke-linejoin:round; stroke-width:2; stroke-opacity:0.1; fill:none" points="
  264.287,627.481 2352.76,627.481 
  "></polyline>
<polyline clip-path="url(#clip662)" style="stroke:#000000; stroke-linecap:round; stroke-linejoin:round; stroke-width:2; stroke-opacity:0.1; fill:none" points="
  264.287,247.168 2352.76,247.168 
  "></polyline>
<polyline clip-path="url(#clip660)" style="stroke:#000000; stroke-linecap:round; stroke-linejoin:round; stroke-width:4; stroke-opacity:1; fill:none" points="
  264.287,1423.18 264.287,183.952 
  "></polyline>
<polyline clip-path="url(#clip660)" style="stroke:#000000; stroke-linecap:round; stroke-linejoin:round; stroke-width:4; stroke-opacity:1; fill:none" points="
  264.287,1388.11 283.185,1388.11 
  "></polyline>
<polyline clip-path="url(#clip660)" style="stroke:#000000; stroke-linecap:round; stroke-linejoin:round; stroke-width:4; stroke-opacity:1; fill:none" points="
  264.287,1007.79 283.185,1007.79 
  "></polyline>
<polyline clip-path="url(#clip660)" style="stroke:#000000; stroke-linecap:round; stroke-linejoin:round; stroke-width:4; stroke-opacity:1; fill:none" points="
  264.287,627.481 283.185,627.481 
  "></polyline>
<polyline clip-path="url(#clip660)" style="stroke:#000000; stroke-linecap:round; stroke-linejoin:round; stroke-width:4; stroke-opacity:1; fill:none" points="
  264.287,247.168 283.185,247.168 
  "></polyline>
<path clip-path="url(#clip660)" d="M216.343 1373.91 Q212.732 1373.91 210.903 1377.47 Q209.098 1381.01 209.098 1388.14 Q209.098 1395.25 210.903 1398.81 Q212.732 1402.35 216.343 1402.35 Q219.977 1402.35 221.783 1398.81 Q223.611 1395.25 223.611 1388.14 Q223.611 1381.01 221.783 1377.47 Q219.977 1373.91 216.343 1373.91 M216.343 1370.2 Q222.153 1370.2 225.209 1374.81 Q228.287 1379.39 228.287 1388.14 Q228.287 1396.87 225.209 1401.48 Q222.153 1406.06 216.343 1406.06 Q210.533 1406.06 207.454 1401.48 Q204.399 1396.87 204.399 1388.14 Q204.399 1379.39 207.454 1374.81 Q210.533 1370.2 216.343 1370.2 Z" fill="#000000" fill-rule="evenodd" fill-opacity="1"></path><path clip-path="url(#clip660)" d="M116.668 1021.14 L124.306 1021.14 L124.306 994.773 L115.996 996.44 L115.996 992.181 L124.26 990.514 L128.936 990.514 L128.936 1021.14 L136.575 1021.14 L136.575 1025.07 L116.668 1025.07 L116.668 1021.14 Z" fill="#000000" fill-rule="evenodd" fill-opacity="1"></path><path clip-path="url(#clip660)" d="M156.019 993.593 Q152.408 993.593 150.579 997.158 Q148.774 1000.7 148.774 1007.83 Q148.774 1014.94 150.579 1018.5 Q152.408 1022.04 156.019 1022.04 Q159.653 1022.04 161.459 1018.5 Q163.288 1014.94 163.288 1007.83 Q163.288 1000.7 161.459 997.158 Q159.653 993.593 156.019 993.593 M156.019 989.889 Q161.829 989.889 164.885 994.496 Q167.964 999.079 167.964 1007.83 Q167.964 1016.56 164.885 1021.16 Q161.829 1025.75 156.019 1025.75 Q150.209 1025.75 147.13 1021.16 Q144.075 1016.56 144.075 1007.83 Q144.075 999.079 147.13 994.496 Q150.209 989.889 156.019 989.889 Z" fill="#000000" fill-rule="evenodd" fill-opacity="1"></path><path clip-path="url(#clip660)" d="M186.181 993.593 Q182.57 993.593 180.741 997.158 Q178.936 1000.7 178.936 1007.83 Q178.936 1014.94 180.741 1018.5 Q182.57 1022.04 186.181 1022.04 Q189.815 1022.04 191.621 1018.5 Q193.45 1014.94 193.45 1007.83 Q193.45 1000.7 191.621 997.158 Q189.815 993.593 186.181 993.593 M186.181 989.889 Q191.991 989.889 195.047 994.496 Q198.125 999.079 198.125 1007.83 Q198.125 1016.56 195.047 1021.16 Q191.991 1025.75 186.181 1025.75 Q180.371 1025.75 177.292 1021.16 Q174.237 1016.56 174.237 1007.83 Q174.237 999.079 177.292 994.496 Q180.371 989.889 186.181 989.889 Z" fill="#000000" fill-rule="evenodd" fill-opacity="1"></path><path clip-path="url(#clip660)" d="M216.343 993.593 Q212.732 993.593 210.903 997.158 Q209.098 1000.7 209.098 1007.83 Q209.098 1014.94 210.903 1018.5 Q212.732 1022.04 216.343 1022.04 Q219.977 1022.04 221.783 1018.5 Q223.611 1014.94 223.611 1007.83 Q223.611 1000.7 221.783 997.158 Q219.977 993.593 216.343 993.593 M216.343 989.889 Q222.153 989.889 225.209 994.496 Q228.287 999.079 228.287 1007.83 Q228.287 1016.56 225.209 1021.16 Q222.153 1025.75 216.343 1025.75 Q210.533 1025.75 207.454 1021.16 Q204.399 1016.56 204.399 1007.83 Q204.399 999.079 207.454 994.496 Q210.533 989.889 216.343 989.889 Z" fill="#000000" fill-rule="evenodd" fill-opacity="1"></path><path clip-path="url(#clip660)" d="M119.885 640.826 L136.204 640.826 L136.204 644.761 L114.26 644.761 L114.26 640.826 Q116.922 638.071 121.505 633.442 Q126.112 628.789 127.292 627.446 Q129.538 624.923 130.417 623.187 Q131.32 621.428 131.32 619.738 Q131.32 616.983 129.376 615.247 Q127.455 613.511 124.353 613.511 Q122.154 613.511 119.7 614.275 Q117.269 615.039 114.492 616.59 L114.492 611.868 Q117.316 610.733 119.769 610.155 Q122.223 609.576 124.26 609.576 Q129.63 609.576 132.825 612.261 Q136.019 614.946 136.019 619.437 Q136.019 621.567 135.209 623.488 Q134.422 625.386 132.316 627.979 Q131.737 628.65 128.635 631.868 Q125.533 635.062 119.885 640.826 Z" fill="#000000" fill-rule="evenodd" fill-opacity="1"></path><path clip-path="url(#clip660)" d="M156.019 613.28 Q152.408 613.28 150.579 616.844 Q148.774 620.386 148.774 627.516 Q148.774 634.622 150.579 638.187 Q152.408 641.729 156.019 641.729 Q159.653 641.729 161.459 638.187 Q163.288 634.622 163.288 627.516 Q163.288 620.386 161.459 616.844 Q159.653 613.28 156.019 613.28 M156.019 609.576 Q161.829 609.576 164.885 614.182 Q167.964 618.766 167.964 627.516 Q167.964 636.243 164.885 640.849 Q161.829 645.432 156.019 645.432 Q150.209 645.432 147.13 640.849 Q144.075 636.243 144.075 627.516 Q144.075 618.766 147.13 614.182 Q150.209 609.576 156.019 609.576 Z" fill="#000000" fill-rule="evenodd" fill-opacity="1"></path><path clip-path="url(#clip660)" d="M186.181 613.28 Q182.57 613.28 180.741 616.844 Q178.936 620.386 178.936 627.516 Q178.936 634.622 180.741 638.187 Q182.57 641.729 186.181 641.729 Q189.815 641.729 191.621 638.187 Q193.45 634.622 193.45 627.516 Q193.45 620.386 191.621 616.844 Q189.815 613.28 186.181 613.28 M186.181 609.576 Q191.991 609.576 195.047 614.182 Q198.125 618.766 198.125 627.516 Q198.125 636.243 195.047 640.849 Q191.991 645.432 186.181 645.432 Q180.371 645.432 177.292 640.849 Q174.237 636.243 174.237 627.516 Q174.237 618.766 177.292 614.182 Q180.371 609.576 186.181 609.576 Z" fill="#000000" fill-rule="evenodd" fill-opacity="1"></path><path clip-path="url(#clip660)" d="M216.343 613.28 Q212.732 613.28 210.903 616.844 Q209.098 620.386 209.098 627.516 Q209.098 634.622 210.903 638.187 Q212.732 641.729 216.343 641.729 Q219.977 641.729 221.783 638.187 Q223.611 634.622 223.611 627.516 Q223.611 620.386 221.783 616.844 Q219.977 613.28 216.343 613.28 M216.343 609.576 Q222.153 609.576 225.209 614.182 Q228.287 618.766 228.287 627.516 Q228.287 636.243 225.209 640.849 Q222.153 645.432 216.343 645.432 Q210.533 645.432 207.454 640.849 Q204.399 636.243 204.399 627.516 Q204.399 618.766 207.454 614.182 Q210.533 609.576 216.343 609.576 Z" fill="#000000" fill-rule="evenodd" fill-opacity="1"></path><path clip-path="url(#clip660)" d="M130.024 245.814 Q133.38 246.531 135.255 248.8 Q137.154 251.068 137.154 254.402 Q137.154 259.517 133.635 262.318 Q130.117 265.119 123.635 265.119 Q121.459 265.119 119.144 264.679 Q116.853 264.263 114.399 263.406 L114.399 258.892 Q116.343 260.027 118.658 260.605 Q120.973 261.184 123.496 261.184 Q127.894 261.184 130.186 259.448 Q132.501 257.712 132.501 254.402 Q132.501 251.346 130.348 249.633 Q128.218 247.897 124.399 247.897 L120.371 247.897 L120.371 244.054 L124.584 244.054 Q128.033 244.054 129.862 242.689 Q131.691 241.3 131.691 238.707 Q131.691 236.045 129.792 234.633 Q127.917 233.198 124.399 233.198 Q122.478 233.198 120.279 233.615 Q118.08 234.031 115.441 234.911 L115.441 230.744 Q118.103 230.004 120.418 229.633 Q122.755 229.263 124.816 229.263 Q130.14 229.263 133.242 231.693 Q136.343 234.101 136.343 238.221 Q136.343 241.091 134.7 243.082 Q133.056 245.05 130.024 245.814 Z" fill="#000000" fill-rule="evenodd" fill-opacity="1"></path><path clip-path="url(#clip660)" d="M156.019 232.966 Q152.408 232.966 150.579 236.531 Q148.774 240.073 148.774 247.203 Q148.774 254.309 150.579 257.874 Q152.408 261.415 156.019 261.415 Q159.653 261.415 161.459 257.874 Q163.288 254.309 163.288 247.203 Q163.288 240.073 161.459 236.531 Q159.653 232.966 156.019 232.966 M156.019 229.263 Q161.829 229.263 164.885 233.869 Q167.964 238.453 167.964 247.203 Q167.964 255.929 164.885 260.536 Q161.829 265.119 156.019 265.119 Q150.209 265.119 147.13 260.536 Q144.075 255.929 144.075 247.203 Q144.075 238.453 147.13 233.869 Q150.209 229.263 156.019 229.263 Z" fill="#000000" fill-rule="evenodd" fill-opacity="1"></path><path clip-path="url(#clip660)" d="M186.181 232.966 Q182.57 232.966 180.741 236.531 Q178.936 240.073 178.936 247.203 Q178.936 254.309 180.741 257.874 Q182.57 261.415 186.181 261.415 Q189.815 261.415 191.621 257.874 Q193.45 254.309 193.45 247.203 Q193.45 240.073 191.621 236.531 Q189.815 232.966 186.181 232.966 M186.181 229.263 Q191.991 229.263 195.047 233.869 Q198.125 238.453 198.125 247.203 Q198.125 255.929 195.047 260.536 Q191.991 265.119 186.181 265.119 Q180.371 265.119 177.292 260.536 Q174.237 255.929 174.237 247.203 Q174.237 238.453 177.292 233.869 Q180.371 229.263 186.181 229.263 Z" fill="#000000" fill-rule="evenodd" fill-opacity="1"></path><path clip-path="url(#clip660)" d="M216.343 232.966 Q212.732 232.966 210.903 236.531 Q209.098 240.073 209.098 247.203 Q209.098 254.309 210.903 257.874 Q212.732 261.415 216.343 261.415 Q219.977 261.415 221.783 257.874 Q223.611 254.309 223.611 247.203 Q223.611 240.073 221.783 236.531 Q219.977 232.966 216.343 232.966 M216.343 229.263 Q222.153 229.263 225.209 233.869 Q228.287 238.453 228.287 247.203 Q228.287 255.929 225.209 260.536 Q222.153 265.119 216.343 265.119 Q210.533 265.119 207.454 260.536 Q204.399 255.929 204.399 247.203 Q204.399 238.453 207.454 233.869 Q210.533 229.263 216.343 229.263 Z" fill="#000000" fill-rule="evenodd" fill-opacity="1"></path><path clip-path="url(#clip660)" d="M16.4842 1191.57 L16.4842 1161.53 L21.895 1161.53 L21.895 1185.14 L35.9632 1185.14 L35.9632 1162.51 L41.3741 1162.51 L41.3741 1185.14 L58.5933 1185.14 L58.5933 1160.95 L64.0042 1160.95 L64.0042 1191.57 L16.4842 1191.57 Z" fill="#000000" fill-rule="evenodd" fill-opacity="1"></path><path clip-path="url(#clip660)" d="M42.4881 1121.01 L64.0042 1121.01 L64.0042 1126.86 L42.679 1126.86 Q37.6183 1126.86 35.1038 1128.84 Q32.5894 1130.81 32.5894 1134.76 Q32.5894 1139.5 35.6131 1142.24 Q38.6368 1144.97 43.8567 1144.97 L64.0042 1144.97 L64.0042 1150.86 L28.3562 1150.86 L28.3562 1144.97 L33.8944 1144.97 Q30.6797 1142.87 29.0883 1140.04 Q27.4968 1137.18 27.4968 1133.45 Q27.4968 1127.31 31.3163 1124.16 Q35.1038 1121.01 42.4881 1121.01 Z" fill="#000000" fill-rule="evenodd" fill-opacity="1"></path><path clip-path="url(#clip660)" d="M44.7161 1078.84 L47.5806 1078.84 L47.5806 1105.76 Q53.6281 1105.38 56.8109 1102.13 Q59.9619 1098.86 59.9619 1093.03 Q59.9619 1089.66 59.1344 1086.51 Q58.3069 1083.32 56.6518 1080.2 L62.1899 1080.2 Q63.5267 1083.35 64.227 1086.66 Q64.9272 1089.98 64.9272 1093.38 Q64.9272 1101.91 59.9619 1106.91 Q54.9967 1111.87 46.5303 1111.87 Q37.7774 1111.87 32.6531 1107.16 Q27.4968 1102.42 27.4968 1094.4 Q27.4968 1087.21 32.1438 1083.04 Q36.7589 1078.84 44.7161 1078.84 M42.9973 1084.69 Q38.1912 1084.76 35.3266 1087.4 Q32.4621 1090.01 32.4621 1094.34 Q32.4621 1099.24 35.2312 1102.2 Q38.0002 1105.13 43.0292 1105.57 L42.9973 1084.69 Z" fill="#000000" fill-rule="evenodd" fill-opacity="1"></path><path clip-path="url(#clip660)" d="M33.8307 1048.57 Q33.2578 1049.55 33.0032 1050.73 Q32.7167 1051.88 32.7167 1053.28 Q32.7167 1058.24 35.9632 1060.92 Q39.1779 1063.56 45.2253 1063.56 L64.0042 1063.56 L64.0042 1069.45 L28.3562 1069.45 L28.3562 1063.56 L33.8944 1063.56 Q30.6479 1061.71 29.0883 1058.75 Q27.4968 1055.79 27.4968 1051.56 Q27.4968 1050.95 27.5923 1050.22 Q27.656 1049.49 27.8151 1048.6 L33.8307 1048.57 Z" fill="#000000" fill-rule="evenodd" fill-opacity="1"></path><path clip-path="url(#clip660)" d="M45.7664 1020.11 Q39.4007 1020.11 35.8996 1022.75 Q32.3984 1025.36 32.3984 1030.11 Q32.3984 1034.82 35.8996 1037.46 Q39.4007 1040.07 45.7664 1040.07 Q52.1003 1040.07 55.6014 1037.46 Q59.1026 1034.82 59.1026 1030.11 Q59.1026 1025.36 55.6014 1022.75 Q52.1003 1020.11 45.7664 1020.11 M59.58 1014.25 Q68.683 1014.25 73.1071 1018.3 Q77.5631 1022.34 77.5631 1030.68 Q77.5631 1033.77 77.0857 1036.5 Q76.6401 1039.24 75.6852 1041.82 L69.9879 1041.82 Q71.3884 1039.24 72.0568 1036.73 Q72.7252 1034.21 72.7252 1031.6 Q72.7252 1025.84 69.7015 1022.98 Q66.7096 1020.11 60.6303 1020.11 L57.7339 1020.11 Q60.885 1021.93 62.4446 1024.76 Q64.0042 1027.59 64.0042 1031.54 Q64.0042 1038.09 59.0071 1042.1 Q54.01 1046.12 45.7664 1046.12 Q37.491 1046.12 32.4939 1042.1 Q27.4968 1038.09 27.4968 1031.54 Q27.4968 1027.59 29.0564 1024.76 Q30.616 1021.93 33.7671 1020.11 L28.3562 1020.11 L28.3562 1014.25 L59.58 1014.25 Z" fill="#000000" fill-rule="evenodd" fill-opacity="1"></path><path clip-path="url(#clip660)" d="M67.3143 987.36 Q73.68 989.842 75.6216 992.198 Q77.5631 994.553 77.5631 998.5 L77.5631 1003.18 L72.6615 1003.18 L72.6615 999.741 Q72.6615 997.322 71.5157 995.985 Q70.3699 994.649 66.1048 993.025 L63.4312 991.975 L28.3562 1006.39 L28.3562 1000.19 L56.238 989.047 L28.3562 977.907 L28.3562 971.7 L67.3143 987.36 Z" fill="#000000" fill-rule="evenodd" fill-opacity="1"></path><path clip-path="url(#clip660)" d="M21.7677 936.211 L39.6235 936.211 L39.6235 928.127 Q39.6235 923.639 37.3 921.188 Q34.9765 918.738 30.6797 918.738 Q26.4147 918.738 24.0912 921.188 Q21.7677 923.639 21.7677 928.127 L21.7677 936.211 M16.4842 942.641 L16.4842 928.127 Q16.4842 920.138 20.1126 916.064 Q23.7092 911.958 30.6797 911.958 Q37.7138 911.958 41.3104 916.064 Q44.907 920.138 44.907 928.127 L44.907 936.211 L64.0042 936.211 L64.0042 942.641 L16.4842 942.641 Z" fill="#000000" fill-rule="evenodd" fill-opacity="1"></path><path clip-path="url(#clip660)" d="M33.8307 884.076 Q33.2578 885.063 33.0032 886.241 Q32.7167 887.386 32.7167 888.787 Q32.7167 893.752 35.9632 896.426 Q39.1779 899.067 45.2253 899.067 L64.0042 899.067 L64.0042 904.956 L28.3562 904.956 L28.3562 899.067 L33.8944 899.067 Q30.6479 897.221 29.0883 894.261 Q27.4968 891.301 27.4968 887.068 Q27.4968 886.463 27.5923 885.731 Q27.656 884.999 27.8151 884.108 L33.8307 884.076 Z" fill="#000000" fill-rule="evenodd" fill-opacity="1"></path><path clip-path="url(#clip660)" d="M32.4621 865.552 Q32.4621 870.263 36.1542 873 Q39.8145 875.737 46.212 875.737 Q52.6095 875.737 56.3017 873.032 Q59.9619 870.295 59.9619 865.552 Q59.9619 860.873 56.2698 858.136 Q52.5777 855.399 46.212 855.399 Q39.8781 855.399 36.186 858.136 Q32.4621 860.873 32.4621 865.552 M27.4968 865.552 Q27.4968 857.913 32.4621 853.553 Q37.4273 849.192 46.212 849.192 Q54.9649 849.192 59.9619 853.553 Q64.9272 857.913 64.9272 865.552 Q64.9272 873.223 59.9619 877.583 Q54.9649 881.912 46.212 881.912 Q37.4273 881.912 32.4621 877.583 Q27.4968 873.223 27.4968 865.552 Z" fill="#000000" fill-rule="evenodd" fill-opacity="1"></path><path clip-path="url(#clip660)" d="M33.7671 816.027 L14.479 816.027 L14.479 810.17 L64.0042 810.17 L64.0042 816.027 L58.657 816.027 Q61.8398 817.873 63.3994 820.706 Q64.9272 823.507 64.9272 827.453 Q64.9272 833.914 59.771 837.989 Q54.6147 842.031 46.212 842.031 Q37.8093 842.031 32.6531 837.989 Q27.4968 833.914 27.4968 827.453 Q27.4968 823.507 29.0564 820.706 Q30.5842 817.873 33.7671 816.027 M46.212 835.983 Q52.6732 835.983 56.3653 833.342 Q60.0256 830.668 60.0256 826.021 Q60.0256 821.374 56.3653 818.7 Q52.6732 816.027 46.212 816.027 Q39.7508 816.027 36.0905 818.7 Q32.3984 821.374 32.3984 826.021 Q32.3984 830.668 36.0905 833.342 Q39.7508 835.983 46.212 835.983 Z" fill="#000000" fill-rule="evenodd" fill-opacity="1"></path><path clip-path="url(#clip660)" d="M49.9359 798.712 L28.3562 798.712 L28.3562 792.856 L49.7131 792.856 Q54.7739 792.856 57.3202 790.882 Q59.8346 788.909 59.8346 784.962 Q59.8346 780.22 56.8109 777.483 Q53.7872 774.713 48.5673 774.713 L28.3562 774.713 L28.3562 768.857 L64.0042 768.857 L64.0042 774.713 L58.5296 774.713 Q61.7762 776.846 63.3676 779.679 Q64.9272 782.48 64.9272 786.204 Q64.9272 792.346 61.1078 795.529 Q57.2883 798.712 49.9359 798.712 M27.4968 783.976 L27.4968 783.976 Z" fill="#000000" fill-rule="evenodd" fill-opacity="1"></path><path clip-path="url(#clip660)" d="M29.7248 731.14 L35.1993 731.14 Q33.8307 733.623 33.1623 736.137 Q32.4621 738.62 32.4621 741.166 Q32.4621 746.863 36.0905 750.014 Q39.6872 753.166 46.212 753.166 Q52.7369 753.166 56.3653 750.014 Q59.9619 746.863 59.9619 741.166 Q59.9619 738.62 59.2935 736.137 Q58.5933 733.623 57.2247 731.14 L62.6355 731.14 Q63.7814 733.591 64.3543 736.233 Q64.9272 738.843 64.9272 741.803 Q64.9272 749.855 59.8664 754.598 Q54.8057 759.34 46.212 759.34 Q37.491 759.34 32.4939 754.566 Q27.4968 749.76 27.4968 741.421 Q27.4968 738.715 28.0697 736.137 Q28.6108 733.559 29.7248 731.14 Z" fill="#000000" fill-rule="evenodd" fill-opacity="1"></path><path clip-path="url(#clip660)" d="M18.2347 715.162 L28.3562 715.162 L28.3562 703.099 L32.9077 703.099 L32.9077 715.162 L52.2594 715.162 Q56.6199 715.162 57.8613 713.985 Q59.1026 712.775 59.1026 709.115 L59.1026 703.099 L64.0042 703.099 L64.0042 709.115 Q64.0042 715.894 61.4897 718.472 Q58.9434 721.051 52.2594 721.051 L32.9077 721.051 L32.9077 725.347 L28.3562 725.347 L28.3562 721.051 L18.2347 721.051 L18.2347 715.162 Z" fill="#000000" fill-rule="evenodd" fill-opacity="1"></path><path clip-path="url(#clip660)" d="M28.3562 695.397 L28.3562 689.54 L64.0042 689.54 L64.0042 695.397 L28.3562 695.397 M14.479 695.397 L14.479 689.54 L21.895 689.54 L21.895 695.397 L14.479 695.397 Z" fill="#000000" fill-rule="evenodd" fill-opacity="1"></path><path clip-path="url(#clip660)" d="M32.4621 663.473 Q32.4621 668.183 36.1542 670.921 Q39.8145 673.658 46.212 673.658 Q52.6095 673.658 56.3017 670.952 Q59.9619 668.215 59.9619 663.473 Q59.9619 658.794 56.2698 656.057 Q52.5777 653.319 46.212 653.319 Q39.8781 653.319 36.186 656.057 Q32.4621 658.794 32.4621 663.473 M27.4968 663.473 Q27.4968 655.834 32.4621 651.473 Q37.4273 647.113 46.212 647.113 Q54.9649 647.113 59.9619 651.473 Q64.9272 655.834 64.9272 663.473 Q64.9272 671.143 59.9619 675.504 Q54.9649 679.833 46.212 679.833 Q37.4273 679.833 32.4621 675.504 Q27.4968 671.143 27.4968 663.473 Z" fill="#000000" fill-rule="evenodd" fill-opacity="1"></path><path clip-path="url(#clip660)" d="M42.4881 607.773 L64.0042 607.773 L64.0042 613.629 L42.679 613.629 Q37.6183 613.629 35.1038 615.603 Q32.5894 617.576 32.5894 621.523 Q32.5894 626.265 35.6131 629.002 Q38.6368 631.74 43.8567 631.74 L64.0042 631.74 L64.0042 637.628 L28.3562 637.628 L28.3562 631.74 L33.8944 631.74 Q30.6797 629.639 29.0883 626.806 Q27.4968 623.942 27.4968 620.218 Q27.4968 614.075 31.3163 610.924 Q35.1038 607.773 42.4881 607.773 Z" fill="#000000" fill-rule="evenodd" fill-opacity="1"></path><path clip-path="url(#clip660)" d="M14.5426 561.303 Q21.8632 565.568 29.0246 567.637 Q36.186 569.706 43.5384 569.706 Q50.8908 569.706 58.1159 567.637 Q65.3091 565.536 72.5979 561.303 L72.5979 566.396 Q65.1182 571.17 57.8931 573.557 Q50.668 575.912 43.5384 575.912 Q36.4406 575.912 29.2474 573.557 Q22.0542 571.202 14.5426 566.396 L14.5426 561.303 Z" fill="#000000" fill-rule="evenodd" fill-opacity="1"></path><path clip-path="url(#clip660)" d="M16.4842 549.686 L16.4842 540.105 L48.8219 527.979 L16.4842 515.788 L16.4842 506.208 L64.0042 506.208 L64.0042 512.478 L22.277 512.478 L54.8694 524.732 L54.8694 531.193 L22.277 543.447 L64.0042 543.447 L64.0042 549.686 L16.4842 549.686 Z" fill="#000000" fill-rule="evenodd" fill-opacity="1"></path><path clip-path="url(#clip660)" d="M16.4842 497.678 L16.4842 491.185 L56.6518 481.191 L16.4842 471.228 L16.4842 464.003 L56.6518 454.009 L16.4842 444.047 L16.4842 437.522 L64.0042 449.458 L64.0042 457.542 L22.7544 467.568 L64.0042 477.69 L64.0042 485.774 L16.4842 497.678 Z" fill="#000000" fill-rule="evenodd" fill-opacity="1"></path><path clip-path="url(#clip660)" d="M14.5426 430.17 L14.5426 425.077 Q22.0542 420.303 29.2474 417.947 Q36.4406 415.56 43.5384 415.56 Q50.668 415.56 57.8931 417.947 Q65.1182 420.303 72.5979 425.077 L72.5979 430.17 Q65.3091 425.936 58.1159 423.867 Q50.8908 421.767 43.5384 421.767 Q36.186 421.767 29.0246 423.867 Q21.8632 425.936 14.5426 430.17 Z" fill="#000000" fill-rule="evenodd" fill-opacity="1"></path><path clip-path="url(#clip660)" d="M722.903 35.2489 L722.903 43.2292 Q718.244 41.0012 714.112 39.9075 Q709.98 38.8137 706.132 38.8137 Q699.448 38.8137 695.802 41.4063 Q692.197 43.9989 692.197 48.779 Q692.197 52.7894 694.587 54.8553 Q697.017 56.8808 703.742 58.1366 L708.684 59.1493 Q717.839 60.8912 722.173 65.3067 Q726.548 69.6816 726.548 77.0543 Q726.548 85.8447 720.634 90.3817 Q714.76 94.9188 703.377 94.9188 Q699.083 94.9188 694.222 93.9465 Q689.402 92.9743 684.217 91.0704 L684.217 82.6445 Q689.199 85.4396 693.979 86.8575 Q698.759 88.2753 703.377 88.2753 Q710.385 88.2753 714.193 85.5207 Q718.001 82.766 718.001 77.6619 Q718.001 73.2059 715.246 70.6944 Q712.532 68.1828 706.294 66.927 L701.311 65.9548 Q692.156 64.1319 688.065 60.243 Q683.973 56.3542 683.973 49.4271 Q683.973 41.4063 689.604 36.7883 Q695.275 32.1703 705.2 32.1703 Q709.454 32.1703 713.869 32.9399 Q718.285 33.7096 722.903 35.2489 Z" fill="#000000" fill-rule="evenodd" fill-opacity="1"></path><path clip-path="url(#clip660)" d="M777.792 69.1955 L777.792 72.8413 L743.522 72.8413 Q744.008 80.5381 748.14 84.589 Q752.312 88.5994 759.725 88.5994 Q764.019 88.5994 768.03 87.5461 Q772.081 86.4929 776.051 84.3864 L776.051 91.435 Q772.04 93.1364 767.827 94.0276 Q763.614 94.9188 759.28 94.9188 Q748.423 94.9188 742.063 88.5994 Q735.744 82.2799 735.744 71.5045 Q735.744 60.3645 741.739 53.8426 Q747.775 47.2801 757.983 47.2801 Q767.139 47.2801 772.445 53.1944 Q777.792 59.0683 777.792 69.1955 M770.339 67.008 Q770.258 60.8912 766.895 57.2454 Q763.574 53.5995 758.064 53.5995 Q751.826 53.5995 748.059 57.1238 Q744.332 60.6481 743.765 67.0485 L770.339 67.008 Z" fill="#000000" fill-rule="evenodd" fill-opacity="1"></path><path clip-path="url(#clip660)" d="M819.881 70.5323 Q819.881 62.4305 816.519 57.9745 Q813.197 53.5185 807.161 53.5185 Q801.166 53.5185 797.804 57.9745 Q794.482 62.4305 794.482 70.5323 Q794.482 78.5936 797.804 83.0496 Q801.166 87.5056 807.161 87.5056 Q813.197 87.5056 816.519 83.0496 Q819.881 78.5936 819.881 70.5323 M827.335 88.1132 Q827.335 99.6988 822.19 105.33 Q817.046 111.001 806.432 111.001 Q802.503 111.001 799.019 110.393 Q795.535 109.826 792.254 108.611 L792.254 101.36 Q795.535 103.142 798.736 103.993 Q801.936 104.843 805.258 104.843 Q812.59 104.843 816.235 100.995 Q819.881 97.1873 819.881 89.45 L819.881 85.7637 Q817.572 89.7741 813.967 91.7591 Q810.362 93.744 805.339 93.744 Q796.994 93.744 791.89 87.3841 Q786.785 81.0242 786.785 70.5323 Q786.785 60 791.89 53.64 Q796.994 47.2801 805.339 47.2801 Q810.362 47.2801 813.967 49.2651 Q817.572 51.25 819.881 55.2604 L819.881 48.3739 L827.335 48.3739 L827.335 88.1132 Z" fill="#000000" fill-rule="evenodd" fill-opacity="1"></path><path clip-path="url(#clip660)" d="M878.012 57.0833 Q880.807 52.0602 884.696 49.6702 Q888.585 47.2801 893.851 47.2801 Q900.94 47.2801 904.788 52.2627 Q908.637 57.2048 908.637 66.3599 L908.637 93.744 L901.142 93.744 L901.142 66.6029 Q901.142 60.081 898.833 56.9213 Q896.524 53.7616 891.785 53.7616 Q885.992 53.7616 882.63 57.6099 Q879.268 61.4583 879.268 68.1018 L879.268 93.744 L871.773 93.744 L871.773 66.6029 Q871.773 60.0405 869.464 56.9213 Q867.155 53.7616 862.335 53.7616 Q856.623 53.7616 853.261 57.6504 Q849.898 61.4988 849.898 68.1018 L849.898 93.744 L842.404 93.744 L842.404 48.3739 L849.898 48.3739 L849.898 55.4224 Q852.451 51.25 856.015 49.2651 Q859.58 47.2801 864.482 47.2801 Q869.424 47.2801 872.867 49.7917 Q876.351 52.3032 878.012 57.0833 Z" fill="#000000" fill-rule="evenodd" fill-opacity="1"></path><path clip-path="url(#clip660)" d="M962.311 69.1955 L962.311 72.8413 L928.04 72.8413 Q928.527 80.5381 932.658 84.589 Q936.831 88.5994 944.244 88.5994 Q948.538 88.5994 952.548 87.5461 Q956.599 86.4929 960.569 84.3864 L960.569 91.435 Q956.559 93.1364 952.346 94.0276 Q948.133 94.9188 943.798 94.9188 Q932.942 94.9188 926.582 88.5994 Q920.263 82.2799 920.263 71.5045 Q920.263 60.3645 926.258 53.8426 Q932.294 47.2801 942.502 47.2801 Q951.657 47.2801 956.964 53.1944 Q962.311 59.0683 962.311 69.1955 M954.857 67.008 Q954.776 60.8912 951.414 57.2454 Q948.092 53.5995 942.583 53.5995 Q936.345 53.5995 932.577 57.1238 Q928.851 60.6481 928.283 67.0485 L954.857 67.008 Z" fill="#000000" fill-rule="evenodd" fill-opacity="1"></path><path clip-path="url(#clip660)" d="M1012.26 66.3599 L1012.26 93.744 L1004.81 93.744 L1004.81 66.6029 Q1004.81 60.162 1002.29 56.9618 Q999.782 53.7616 994.759 53.7616 Q988.723 53.7616 985.239 57.6099 Q981.755 61.4583 981.755 68.1018 L981.755 93.744 L974.261 93.744 L974.261 48.3739 L981.755 48.3739 L981.755 55.4224 Q984.429 51.331 988.034 49.3056 Q991.68 47.2801 996.42 47.2801 Q1004.24 47.2801 1008.25 52.1412 Q1012.26 56.9618 1012.26 66.3599 Z" fill="#000000" fill-rule="evenodd" fill-opacity="1"></path><path clip-path="url(#clip660)" d="M1034.5 35.492 L1034.5 48.3739 L1049.85 48.3739 L1049.85 54.1667 L1034.5 54.1667 L1034.5 78.7962 Q1034.5 84.3459 1036 85.9258 Q1037.54 87.5056 1042.19 87.5056 L1049.85 87.5056 L1049.85 93.744 L1042.19 93.744 Q1033.57 93.744 1030.29 90.5438 Q1027 87.3031 1027 78.7962 L1027 54.1667 L1021.54 54.1667 L1021.54 48.3739 L1027 48.3739 L1027 35.492 L1034.5 35.492 Z" fill="#000000" fill-rule="evenodd" fill-opacity="1"></path><path clip-path="url(#clip660)" d="M1098.46 69.1955 L1098.46 72.8413 L1064.19 72.8413 Q1064.68 80.5381 1068.81 84.589 Q1072.98 88.5994 1080.39 88.5994 Q1084.69 88.5994 1088.7 87.5461 Q1092.75 86.4929 1096.72 84.3864 L1096.72 91.435 Q1092.71 93.1364 1088.5 94.0276 Q1084.28 94.9188 1079.95 94.9188 Q1069.09 94.9188 1062.73 88.5994 Q1056.41 82.2799 1056.41 71.5045 Q1056.41 60.3645 1062.41 53.8426 Q1068.44 47.2801 1078.65 47.2801 Q1087.81 47.2801 1093.11 53.1944 Q1098.46 59.0683 1098.46 69.1955 M1091.01 67.008 Q1090.93 60.8912 1087.57 57.2454 Q1084.24 53.5995 1078.73 53.5995 Q1072.5 53.5995 1068.73 57.1238 Q1065 60.6481 1064.43 67.0485 L1091.01 67.008 Z" fill="#000000" fill-rule="evenodd" fill-opacity="1"></path><path clip-path="url(#clip660)" d="M1140.55 55.2604 L1140.55 30.7119 L1148 30.7119 L1148 93.744 L1140.55 93.744 L1140.55 86.9385 Q1138.2 90.9894 1134.6 92.9743 Q1131.03 94.9188 1126.01 94.9188 Q1117.78 94.9188 1112.6 88.3563 Q1107.45 81.7938 1107.45 71.0994 Q1107.45 60.4051 1112.6 53.8426 Q1117.78 47.2801 1126.01 47.2801 Q1131.03 47.2801 1134.6 49.2651 Q1138.2 51.2095 1140.55 55.2604 M1115.15 71.0994 Q1115.15 79.3228 1118.51 84.0218 Q1121.92 88.6804 1127.83 88.6804 Q1133.75 88.6804 1137.15 84.0218 Q1140.55 79.3228 1140.55 71.0994 Q1140.55 62.8761 1137.15 58.2176 Q1133.75 53.5185 1127.83 53.5185 Q1121.92 53.5185 1118.51 58.2176 Q1115.15 62.8761 1115.15 71.0994 Z" fill="#000000" fill-rule="evenodd" fill-opacity="1"></path><path clip-path="url(#clip660)" d="M1190.05 33.264 L1228.29 33.264 L1228.29 40.1505 L1198.24 40.1505 L1198.24 58.0555 L1227.04 58.0555 L1227.04 64.9421 L1198.24 64.9421 L1198.24 86.8575 L1229.02 86.8575 L1229.02 93.744 L1190.05 93.744 L1190.05 33.264 Z" fill="#000000" fill-rule="evenodd" fill-opacity="1"></path><path clip-path="url(#clip660)" d="M1279.86 66.3599 L1279.86 93.744 L1272.41 93.744 L1272.41 66.6029 Q1272.41 60.162 1269.9 56.9618 Q1267.38 53.7616 1262.36 53.7616 Q1256.33 53.7616 1252.84 57.6099 Q1249.36 61.4583 1249.36 68.1018 L1249.36 93.744 L1241.86 93.744 L1241.86 48.3739 L1249.36 48.3739 L1249.36 55.4224 Q1252.03 51.331 1255.64 49.3056 Q1259.28 47.2801 1264.02 47.2801 Q1271.84 47.2801 1275.85 52.1412 Q1279.86 56.9618 1279.86 66.3599 Z" fill="#000000" fill-rule="evenodd" fill-opacity="1"></path><path clip-path="url(#clip660)" d="M1333.54 69.1955 L1333.54 72.8413 L1299.27 72.8413 Q1299.75 80.5381 1303.88 84.589 Q1308.06 88.5994 1315.47 88.5994 Q1319.76 88.5994 1323.77 87.5461 Q1327.82 86.4929 1331.79 84.3864 L1331.79 91.435 Q1327.78 93.1364 1323.57 94.0276 Q1319.36 94.9188 1315.02 94.9188 Q1304.17 94.9188 1297.81 88.5994 Q1291.49 82.2799 1291.49 71.5045 Q1291.49 60.3645 1297.48 53.8426 Q1303.52 47.2801 1313.73 47.2801 Q1322.88 47.2801 1328.19 53.1944 Q1333.54 59.0683 1333.54 69.1955 M1326.08 67.008 Q1326 60.8912 1322.64 57.2454 Q1319.32 53.5995 1313.81 53.5995 Q1307.57 53.5995 1303.8 57.1238 Q1300.08 60.6481 1299.51 67.0485 L1326.08 67.008 Z" fill="#000000" fill-rule="evenodd" fill-opacity="1"></path><path clip-path="url(#clip660)" d="M1372.06 55.3414 Q1370.8 54.6123 1369.31 54.2882 Q1367.85 53.9236 1366.06 53.9236 Q1359.75 53.9236 1356.34 58.0555 Q1352.98 62.1469 1352.98 69.8437 L1352.98 93.744 L1345.49 93.744 L1345.49 48.3739 L1352.98 48.3739 L1352.98 55.4224 Q1355.33 51.2905 1359.1 49.3056 Q1362.86 47.2801 1368.25 47.2801 Q1369.02 47.2801 1369.95 47.4017 Q1370.89 47.4827 1372.02 47.6852 L1372.06 55.3414 Z" fill="#000000" fill-rule="evenodd" fill-opacity="1"></path><path clip-path="url(#clip660)" d="M1408.28 70.5323 Q1408.28 62.4305 1404.91 57.9745 Q1401.59 53.5185 1395.56 53.5185 Q1389.56 53.5185 1386.2 57.9745 Q1382.88 62.4305 1382.88 70.5323 Q1382.88 78.5936 1386.2 83.0496 Q1389.56 87.5056 1395.56 87.5056 Q1401.59 87.5056 1404.91 83.0496 Q1408.28 78.5936 1408.28 70.5323 M1415.73 88.1132 Q1415.73 99.6988 1410.58 105.33 Q1405.44 111.001 1394.83 111.001 Q1390.9 111.001 1387.41 110.393 Q1383.93 109.826 1380.65 108.611 L1380.65 101.36 Q1383.93 103.142 1387.13 103.993 Q1390.33 104.843 1393.65 104.843 Q1400.98 104.843 1404.63 100.995 Q1408.28 97.1873 1408.28 89.45 L1408.28 85.7637 Q1405.97 89.7741 1402.36 91.7591 Q1398.76 93.744 1393.73 93.744 Q1385.39 93.744 1380.28 87.3841 Q1375.18 81.0242 1375.18 70.5323 Q1375.18 60 1380.28 53.64 Q1385.39 47.2801 1393.73 47.2801 Q1398.76 47.2801 1402.36 49.2651 Q1405.97 51.25 1408.28 55.2604 L1408.28 48.3739 L1415.73 48.3739 L1415.73 88.1132 Z" fill="#000000" fill-rule="evenodd" fill-opacity="1"></path><path clip-path="url(#clip660)" d="M1449.96 97.9569 Q1446.8 106.059 1443.8 108.53 Q1440.8 111.001 1435.78 111.001 L1429.83 111.001 L1429.83 104.762 L1434.2 104.762 Q1437.28 104.762 1438.98 103.304 Q1440.68 101.846 1442.75 96.4176 L1444.09 93.0148 L1425.73 48.3739 L1433.63 48.3739 L1447.81 83.8598 L1461.99 48.3739 L1469.89 48.3739 L1449.96 97.9569 Z" fill="#000000" fill-rule="evenodd" fill-opacity="1"></path><path clip-path="url(#clip660)" d="M1515.06 39.9885 L1515.06 62.7141 L1525.35 62.7141 Q1531.06 62.7141 1534.18 59.7569 Q1537.3 56.7998 1537.3 51.331 Q1537.3 45.9028 1534.18 42.9457 Q1531.06 39.9885 1525.35 39.9885 L1515.06 39.9885 M1506.87 33.264 L1525.35 33.264 Q1535.51 33.264 1540.7 37.882 Q1545.92 42.4596 1545.92 51.331 Q1545.92 60.2835 1540.7 64.8611 Q1535.51 69.4386 1525.35 69.4386 L1515.06 69.4386 L1515.06 93.744 L1506.87 93.744 L1506.87 33.264 Z" fill="#000000" fill-rule="evenodd" fill-opacity="1"></path><path clip-path="url(#clip660)" d="M1581.41 55.3414 Q1580.15 54.6123 1578.66 54.2882 Q1577.2 53.9236 1575.42 53.9236 Q1569.1 53.9236 1565.69 58.0555 Q1562.33 62.1469 1562.33 69.8437 L1562.33 93.744 L1554.84 93.744 L1554.84 48.3739 L1562.33 48.3739 L1562.33 55.4224 Q1564.68 51.2905 1568.45 49.3056 Q1572.22 47.2801 1577.6 47.2801 Q1578.37 47.2801 1579.3 47.4017 Q1580.24 47.4827 1581.37 47.6852 L1581.41 55.3414 Z" fill="#000000" fill-rule="evenodd" fill-opacity="1"></path><path clip-path="url(#clip660)" d="M1604.99 53.5995 Q1598.99 53.5995 1595.51 58.2986 Q1592.02 62.9571 1592.02 71.0994 Q1592.02 79.2418 1595.47 83.9408 Q1598.95 88.5994 1604.99 88.5994 Q1610.94 88.5994 1614.43 83.9003 Q1617.91 79.2013 1617.91 71.0994 Q1617.91 63.0381 1614.43 58.3391 Q1610.94 53.5995 1604.99 53.5995 M1604.99 47.2801 Q1614.71 47.2801 1620.26 53.5995 Q1625.81 59.9189 1625.81 71.0994 Q1625.81 82.2394 1620.26 88.5994 Q1614.71 94.9188 1604.99 94.9188 Q1595.22 94.9188 1589.67 88.5994 Q1584.17 82.2394 1584.17 71.0994 Q1584.17 59.9189 1589.67 53.5995 Q1595.22 47.2801 1604.99 47.2801 Z" fill="#000000" fill-rule="evenodd" fill-opacity="1"></path><path clip-path="url(#clip660)" d="M1668.02 55.2604 L1668.02 30.7119 L1675.47 30.7119 L1675.47 93.744 L1668.02 93.744 L1668.02 86.9385 Q1665.67 90.9894 1662.06 92.9743 Q1658.5 94.9188 1653.48 94.9188 Q1645.25 94.9188 1640.07 88.3563 Q1634.92 81.7938 1634.92 71.0994 Q1634.92 60.4051 1640.07 53.8426 Q1645.25 47.2801 1653.48 47.2801 Q1658.5 47.2801 1662.06 49.2651 Q1665.67 51.2095 1668.02 55.2604 M1642.62 71.0994 Q1642.62 79.3228 1645.98 84.0218 Q1649.38 88.6804 1655.3 88.6804 Q1661.21 88.6804 1664.62 84.0218 Q1668.02 79.3228 1668.02 71.0994 Q1668.02 62.8761 1664.62 58.2176 Q1661.21 53.5185 1655.3 53.5185 Q1649.38 53.5185 1645.98 58.2176 Q1642.62 62.8761 1642.62 71.0994 Z" fill="#000000" fill-rule="evenodd" fill-opacity="1"></path><path clip-path="url(#clip660)" d="M1690.06 75.839 L1690.06 48.3739 L1697.51 48.3739 L1697.51 75.5554 Q1697.51 81.9964 1700.02 85.2371 Q1702.53 88.4373 1707.56 88.4373 Q1713.59 88.4373 1717.08 84.589 Q1720.6 80.7406 1720.6 74.0971 L1720.6 48.3739 L1728.05 48.3739 L1728.05 93.744 L1720.6 93.744 L1720.6 86.7764 Q1717.89 90.9084 1714.28 92.9338 Q1710.72 94.9188 1705.98 94.9188 Q1698.16 94.9188 1694.11 90.0577 Q1690.06 85.1966 1690.06 75.839 M1708.81 47.2801 L1708.81 47.2801 Z" fill="#000000" fill-rule="evenodd" fill-opacity="1"></path><path clip-path="url(#clip660)" d="M1776.06 50.1158 L1776.06 57.0833 Q1772.9 55.3414 1769.7 54.4907 Q1766.54 53.5995 1763.3 53.5995 Q1756.05 53.5995 1752.03 58.2176 Q1748.02 62.7951 1748.02 71.0994 Q1748.02 79.4038 1752.03 84.0218 Q1756.05 88.5994 1763.3 88.5994 Q1766.54 88.5994 1769.7 87.7487 Q1772.9 86.8575 1776.06 85.1156 L1776.06 92.0021 Q1772.94 93.4604 1769.58 94.1896 Q1766.25 94.9188 1762.49 94.9188 Q1752.24 94.9188 1746.2 88.4778 Q1740.17 82.0369 1740.17 71.0994 Q1740.17 60 1746.24 53.64 Q1752.36 47.2801 1762.97 47.2801 Q1766.42 47.2801 1769.7 48.0093 Q1772.98 48.6979 1776.06 50.1158 Z" fill="#000000" fill-rule="evenodd" fill-opacity="1"></path><path clip-path="url(#clip660)" d="M1796.39 35.492 L1796.39 48.3739 L1811.75 48.3739 L1811.75 54.1667 L1796.39 54.1667 L1796.39 78.7962 Q1796.39 84.3459 1797.89 85.9258 Q1799.43 87.5056 1804.09 87.5056 L1811.75 87.5056 L1811.75 93.744 L1804.09 93.744 Q1795.46 93.744 1792.18 90.5438 Q1788.9 87.3031 1788.9 78.7962 L1788.9 54.1667 L1783.43 54.1667 L1783.43 48.3739 L1788.9 48.3739 L1788.9 35.492 L1796.39 35.492 Z" fill="#000000" fill-rule="evenodd" fill-opacity="1"></path><path clip-path="url(#clip660)" d="M1821.55 48.3739 L1829 48.3739 L1829 93.744 L1821.55 93.744 L1821.55 48.3739 M1821.55 30.7119 L1829 30.7119 L1829 40.1505 L1821.55 40.1505 L1821.55 30.7119 Z" fill="#000000" fill-rule="evenodd" fill-opacity="1"></path><path clip-path="url(#clip660)" d="M1862.18 53.5995 Q1856.18 53.5995 1852.7 58.2986 Q1849.22 62.9571 1849.22 71.0994 Q1849.22 79.2418 1852.66 83.9408 Q1856.14 88.5994 1862.18 88.5994 Q1868.13 88.5994 1871.62 83.9003 Q1875.1 79.2013 1875.1 71.0994 Q1875.1 63.0381 1871.62 58.3391 Q1868.13 53.5995 1862.18 53.5995 M1862.18 47.2801 Q1871.9 47.2801 1877.45 53.5995 Q1883 59.9189 1883 71.0994 Q1883 82.2394 1877.45 88.5994 Q1871.9 94.9188 1862.18 94.9188 Q1852.42 94.9188 1846.87 88.5994 Q1841.36 82.2394 1841.36 71.0994 Q1841.36 59.9189 1846.87 53.5995 Q1852.42 47.2801 1862.18 47.2801 Z" fill="#000000" fill-rule="evenodd" fill-opacity="1"></path><path clip-path="url(#clip660)" d="M1933.07 66.3599 L1933.07 93.744 L1925.62 93.744 L1925.62 66.6029 Q1925.62 60.162 1923.1 56.9618 Q1920.59 53.7616 1915.57 53.7616 Q1909.53 53.7616 1906.05 57.6099 Q1902.57 61.4583 1902.57 68.1018 L1902.57 93.744 L1895.07 93.744 L1895.07 48.3739 L1902.57 48.3739 L1902.57 55.4224 Q1905.24 51.331 1908.85 49.3056 Q1912.49 47.2801 1917.23 47.2801 Q1925.05 47.2801 1929.06 52.1412 Q1933.07 56.9618 1933.07 66.3599 Z" fill="#000000" fill-rule="evenodd" fill-opacity="1"></path><path clip-path="url(#clip660)" d="M745.952 139.094 L753.406 139.094 L762.723 174.499 L772 139.094 L780.79 139.094 L790.107 174.499 L799.384 139.094 L806.837 139.094 L794.968 184.464 L786.178 184.464 L776.415 147.277 L766.612 184.464 L757.821 184.464 L745.952 139.094 Z" fill="#000000" fill-rule="evenodd" fill-opacity="1"></path><path clip-path="url(#clip660)" d="M818.139 139.094 L825.593 139.094 L825.593 184.464 L818.139 184.464 L818.139 139.094 M818.139 121.432 L825.593 121.432 L825.593 130.871 L818.139 130.871 L818.139 121.432 Z" fill="#000000" fill-rule="evenodd" fill-opacity="1"></path><path clip-path="url(#clip660)" d="M848.562 126.212 L848.562 139.094 L863.915 139.094 L863.915 144.887 L848.562 144.887 L848.562 169.516 Q848.562 175.066 850.061 176.646 Q851.6 178.226 856.258 178.226 L863.915 178.226 L863.915 184.464 L856.258 184.464 Q847.63 184.464 844.349 181.264 Q841.068 178.023 841.068 169.516 L841.068 144.887 L835.599 144.887 L835.599 139.094 L841.068 139.094 L841.068 126.212 L848.562 126.212 Z" fill="#000000" fill-rule="evenodd" fill-opacity="1"></path><path clip-path="url(#clip660)" d="M911.432 157.08 L911.432 184.464 L903.978 184.464 L903.978 157.323 Q903.978 150.882 901.467 147.682 Q898.955 144.482 893.932 144.482 Q887.896 144.482 884.412 148.33 Q880.928 152.178 880.928 158.822 L880.928 184.464 L873.434 184.464 L873.434 121.432 L880.928 121.432 L880.928 146.142 Q883.602 142.051 887.207 140.026 Q890.853 138 895.593 138 Q903.411 138 907.421 142.861 Q911.432 147.682 911.432 157.08 Z" fill="#000000" fill-rule="evenodd" fill-opacity="1"></path><path clip-path="url(#clip660)" d="M952.994 123.984 L991.235 123.984 L991.235 130.871 L961.177 130.871 L961.177 148.776 L989.979 148.776 L989.979 155.662 L961.177 155.662 L961.177 177.577 L991.964 177.577 L991.964 184.464 L952.994 184.464 L952.994 123.984 Z" fill="#000000" fill-rule="evenodd" fill-opacity="1"></path><path clip-path="url(#clip660)" d="M1040.41 147.803 Q1043.21 142.78 1047.1 140.39 Q1050.99 138 1056.25 138 Q1063.34 138 1067.19 142.983 Q1071.04 147.925 1071.04 157.08 L1071.04 184.464 L1063.54 184.464 L1063.54 157.323 Q1063.54 150.801 1061.23 147.641 Q1058.93 144.482 1054.19 144.482 Q1048.39 144.482 1045.03 148.33 Q1041.67 152.178 1041.67 158.822 L1041.67 184.464 L1034.17 184.464 L1034.17 157.323 Q1034.17 150.76 1031.87 147.641 Q1029.56 144.482 1024.74 144.482 Q1019.02 144.482 1015.66 148.37 Q1012.3 152.219 1012.3 158.822 L1012.3 184.464 L1004.81 184.464 L1004.81 139.094 L1012.3 139.094 L1012.3 146.142 Q1014.85 141.97 1018.42 139.985 Q1021.98 138 1026.88 138 Q1031.82 138 1035.27 140.512 Q1038.75 143.023 1040.41 147.803 Z" fill="#000000" fill-rule="evenodd" fill-opacity="1"></path><path clip-path="url(#clip660)" d="M1085.9 139.094 L1093.36 139.094 L1093.36 184.464 L1085.9 184.464 L1085.9 139.094 M1085.9 121.432 L1093.36 121.432 L1093.36 130.871 L1085.9 130.871 L1085.9 121.432 Z" fill="#000000" fill-rule="evenodd" fill-opacity="1"></path><path clip-path="url(#clip660)" d="M1137.88 140.431 L1137.88 147.479 Q1134.72 145.859 1131.31 145.049 Q1127.91 144.239 1124.27 144.239 Q1118.72 144.239 1115.92 145.94 Q1113.17 147.641 1113.17 151.044 Q1113.17 153.637 1115.15 155.135 Q1117.14 156.594 1123.13 157.931 L1125.68 158.498 Q1133.62 160.199 1136.95 163.318 Q1140.31 166.397 1140.31 171.947 Q1140.31 178.266 1135.28 181.952 Q1130.3 185.639 1121.55 185.639 Q1117.91 185.639 1113.94 184.91 Q1110.01 184.221 1105.63 182.803 L1105.63 175.106 Q1109.76 177.253 1113.77 178.347 Q1117.78 179.4 1121.71 179.4 Q1126.98 179.4 1129.82 177.618 Q1132.65 175.795 1132.65 172.514 Q1132.65 169.476 1130.59 167.855 Q1128.56 166.235 1121.63 164.736 L1119.04 164.128 Q1112.11 162.67 1109.03 159.672 Q1105.96 156.634 1105.96 151.368 Q1105.96 144.968 1110.49 141.484 Q1115.03 138 1123.38 138 Q1127.51 138 1131.15 138.608 Q1134.8 139.215 1137.88 140.431 Z" fill="#000000" fill-rule="evenodd" fill-opacity="1"></path><path clip-path="url(#clip660)" d="M1181.1 140.431 L1181.1 147.479 Q1177.94 145.859 1174.54 145.049 Q1171.14 144.239 1167.49 144.239 Q1161.94 144.239 1159.14 145.94 Q1156.39 147.641 1156.39 151.044 Q1156.39 153.637 1158.37 155.135 Q1160.36 156.594 1166.36 157.931 L1168.91 158.498 Q1176.85 160.199 1180.17 163.318 Q1183.53 166.397 1183.53 171.947 Q1183.53 178.266 1178.51 181.952 Q1173.53 185.639 1164.78 185.639 Q1161.13 185.639 1157.16 184.91 Q1153.23 184.221 1148.86 182.803 L1148.86 175.106 Q1152.99 177.253 1157 178.347 Q1161.01 179.4 1164.94 179.4 Q1170.2 179.4 1173.04 177.618 Q1175.87 175.795 1175.87 172.514 Q1175.87 169.476 1173.81 167.855 Q1171.78 166.235 1164.86 164.736 L1162.26 164.128 Q1155.34 162.67 1152.26 159.672 Q1149.18 156.634 1149.18 151.368 Q1149.18 144.968 1153.72 141.484 Q1158.25 138 1166.6 138 Q1170.73 138 1174.38 138.608 Q1178.02 139.215 1181.1 140.431 Z" fill="#000000" fill-rule="evenodd" fill-opacity="1"></path><path clip-path="url(#clip660)" d="M1195.4 139.094 L1202.85 139.094 L1202.85 184.464 L1195.4 184.464 L1195.4 139.094 M1195.4 121.432 L1202.85 121.432 L1202.85 130.871 L1195.4 130.871 L1195.4 121.432 Z" fill="#000000" fill-rule="evenodd" fill-opacity="1"></path><path clip-path="url(#clip660)" d="M1236.03 144.32 Q1230.04 144.32 1226.55 149.019 Q1223.07 153.677 1223.07 161.819 Q1223.07 169.962 1226.51 174.661 Q1229.99 179.319 1236.03 179.319 Q1241.99 179.319 1245.47 174.62 Q1248.95 169.921 1248.95 161.819 Q1248.95 153.758 1245.47 149.059 Q1241.99 144.32 1236.03 144.32 M1236.03 138 Q1245.75 138 1251.3 144.32 Q1256.85 150.639 1256.85 161.819 Q1256.85 172.959 1251.3 179.319 Q1245.75 185.639 1236.03 185.639 Q1226.27 185.639 1220.72 179.319 Q1215.21 172.959 1215.21 161.819 Q1215.21 150.639 1220.72 144.32 Q1226.27 138 1236.03 138 Z" fill="#000000" fill-rule="evenodd" fill-opacity="1"></path><path clip-path="url(#clip660)" d="M1306.92 157.08 L1306.92 184.464 L1299.47 184.464 L1299.47 157.323 Q1299.47 150.882 1296.96 147.682 Q1294.44 144.482 1289.42 144.482 Q1283.39 144.482 1279.9 148.33 Q1276.42 152.178 1276.42 158.822 L1276.42 184.464 L1268.92 184.464 L1268.92 139.094 L1276.42 139.094 L1276.42 146.142 Q1279.09 142.051 1282.7 140.026 Q1286.34 138 1291.08 138 Q1298.9 138 1302.91 142.861 Q1306.92 147.682 1306.92 157.08 Z" fill="#000000" fill-rule="evenodd" fill-opacity="1"></path><path clip-path="url(#clip660)" d="M1350.71 140.431 L1350.71 147.479 Q1347.55 145.859 1344.15 145.049 Q1340.75 144.239 1337.1 144.239 Q1331.55 144.239 1328.76 145.94 Q1326 147.641 1326 151.044 Q1326 153.637 1327.99 155.135 Q1329.97 156.594 1335.97 157.931 L1338.52 158.498 Q1346.46 160.199 1349.78 163.318 Q1353.14 166.397 1353.14 171.947 Q1353.14 178.266 1348.12 181.952 Q1343.14 185.639 1334.39 185.639 Q1330.74 185.639 1326.77 184.91 Q1322.84 184.221 1318.47 182.803 L1318.47 175.106 Q1322.6 177.253 1326.61 178.347 Q1330.62 179.4 1334.55 179.4 Q1339.81 179.4 1342.65 177.618 Q1345.49 175.795 1345.49 172.514 Q1345.49 169.476 1343.42 167.855 Q1341.39 166.235 1334.47 164.736 L1331.88 164.128 Q1324.95 162.67 1321.87 159.672 Q1318.79 156.634 1318.79 151.368 Q1318.79 144.968 1323.33 141.484 Q1327.86 138 1336.21 138 Q1340.34 138 1343.99 138.608 Q1347.63 139.215 1350.71 140.431 Z" fill="#000000" fill-rule="evenodd" fill-opacity="1"></path><path clip-path="url(#clip660)" d="M1437 128.643 L1437 137.271 Q1432.86 133.423 1428.17 131.519 Q1423.51 129.615 1418.24 129.615 Q1407.87 129.615 1402.36 135.975 Q1396.85 142.294 1396.85 154.285 Q1396.85 166.235 1402.36 172.595 Q1407.87 178.914 1418.24 178.914 Q1423.51 178.914 1428.17 177.01 Q1432.86 175.106 1437 171.258 L1437 179.805 Q1432.7 182.722 1427.88 184.18 Q1423.1 185.639 1417.75 185.639 Q1404.02 185.639 1396.12 177.253 Q1388.22 168.828 1388.22 154.285 Q1388.22 139.702 1396.12 131.316 Q1404.02 122.89 1417.75 122.89 Q1423.18 122.89 1427.96 124.349 Q1432.78 125.766 1437 128.643 Z" fill="#000000" fill-rule="evenodd" fill-opacity="1"></path><path clip-path="url(#clip660)" d="M1469.93 161.657 Q1460.9 161.657 1457.41 163.723 Q1453.93 165.789 1453.93 170.772 Q1453.93 174.742 1456.52 177.091 Q1459.15 179.4 1463.65 179.4 Q1469.85 179.4 1473.58 175.025 Q1477.34 170.61 1477.34 163.318 L1477.34 161.657 L1469.93 161.657 M1484.8 158.579 L1484.8 184.464 L1477.34 184.464 L1477.34 177.577 Q1474.79 181.709 1470.98 183.694 Q1467.18 185.639 1461.67 185.639 Q1454.7 185.639 1450.57 181.75 Q1446.48 177.821 1446.48 171.258 Q1446.48 163.602 1451.58 159.713 Q1456.72 155.824 1466.89 155.824 L1477.34 155.824 L1477.34 155.095 Q1477.34 149.95 1473.94 147.155 Q1470.58 144.32 1464.46 144.32 Q1460.57 144.32 1456.89 145.251 Q1453.2 146.183 1449.8 148.046 L1449.8 141.16 Q1453.89 139.58 1457.74 138.81 Q1461.59 138 1465.23 138 Q1475.07 138 1479.94 143.104 Q1484.8 148.208 1484.8 158.579 Z" fill="#000000" fill-rule="evenodd" fill-opacity="1"></path><path clip-path="url(#clip660)" d="M1507.36 177.658 L1507.36 201.721 L1499.87 201.721 L1499.87 139.094 L1507.36 139.094 L1507.36 145.98 Q1509.71 141.93 1513.27 139.985 Q1516.88 138 1521.86 138 Q1530.13 138 1535.27 144.563 Q1540.46 151.125 1540.46 161.819 Q1540.46 172.514 1535.27 179.076 Q1530.13 185.639 1521.86 185.639 Q1516.88 185.639 1513.27 183.694 Q1509.71 181.709 1507.36 177.658 M1532.72 161.819 Q1532.72 153.596 1529.32 148.938 Q1525.95 144.239 1520.04 144.239 Q1514.13 144.239 1510.72 148.938 Q1507.36 153.596 1507.36 161.819 Q1507.36 170.043 1510.72 174.742 Q1514.13 179.4 1520.04 179.4 Q1525.95 179.4 1529.32 174.742 Q1532.72 170.043 1532.72 161.819 Z" fill="#000000" fill-rule="evenodd" fill-opacity="1"></path><path clip-path="url(#clip660)" d="M1597.09 121.513 Q1591.66 130.83 1589.03 139.945 Q1586.39 149.059 1586.39 158.417 Q1586.39 167.774 1589.03 176.97 Q1591.7 186.125 1597.09 195.401 L1590.61 195.401 Q1584.53 185.882 1581.49 176.686 Q1578.49 167.491 1578.49 158.417 Q1578.49 149.383 1581.49 140.228 Q1584.49 131.073 1590.61 121.513 L1597.09 121.513 Z" fill="#000000" fill-rule="evenodd" fill-opacity="1"></path><path clip-path="url(#clip660)" d="M1611.87 123.984 L1620.06 123.984 L1620.06 148.776 L1649.79 148.776 L1649.79 123.984 L1657.97 123.984 L1657.97 184.464 L1649.79 184.464 L1649.79 155.662 L1620.06 155.662 L1620.06 184.464 L1611.87 184.464 L1611.87 123.984 Z" fill="#000000" fill-rule="evenodd" fill-opacity="1"></path><path clip-path="url(#clip660)" d="M1691.51 144.32 Q1685.52 144.32 1682.04 149.019 Q1678.55 153.677 1678.55 161.819 Q1678.55 169.962 1681.99 174.661 Q1685.48 179.319 1691.51 179.319 Q1697.47 179.319 1700.95 174.62 Q1704.44 169.921 1704.44 161.819 Q1704.44 153.758 1700.95 149.059 Q1697.47 144.32 1691.51 144.32 M1691.51 138 Q1701.24 138 1706.79 144.32 Q1712.34 150.639 1712.34 161.819 Q1712.34 172.959 1706.79 179.319 Q1701.24 185.639 1691.51 185.639 Q1681.75 185.639 1676.2 179.319 Q1670.69 172.959 1670.69 161.819 Q1670.69 150.639 1676.2 144.32 Q1681.75 138 1691.51 138 Z" fill="#000000" fill-rule="evenodd" fill-opacity="1"></path><path clip-path="url(#clip660)" d="M1723.92 166.559 L1723.92 139.094 L1731.38 139.094 L1731.38 166.275 Q1731.38 172.716 1733.89 175.957 Q1736.4 179.157 1741.42 179.157 Q1747.46 179.157 1750.94 175.309 Q1754.47 171.461 1754.47 164.817 L1754.47 139.094 L1761.92 139.094 L1761.92 184.464 L1754.47 184.464 L1754.47 177.496 Q1751.75 181.628 1748.15 183.654 Q1744.58 185.639 1739.84 185.639 Q1732.02 185.639 1727.97 180.778 Q1723.92 175.917 1723.92 166.559 M1742.68 138 L1742.68 138 Z" fill="#000000" fill-rule="evenodd" fill-opacity="1"></path><path clip-path="url(#clip660)" d="M1803.56 146.061 Q1802.31 145.332 1800.81 145.008 Q1799.35 144.644 1797.57 144.644 Q1791.25 144.644 1787.84 148.776 Q1784.48 152.867 1784.48 160.564 L1784.48 184.464 L1776.99 184.464 L1776.99 139.094 L1784.48 139.094 L1784.48 146.142 Q1786.83 142.011 1790.6 140.026 Q1794.37 138 1799.75 138 Q1800.52 138 1801.46 138.122 Q1802.39 138.203 1803.52 138.405 L1803.56 146.061 Z" fill="#000000" fill-rule="evenodd" fill-opacity="1"></path><path clip-path="url(#clip660)" d="M1811.38 121.432 L1818.83 121.432 L1818.83 184.464 L1811.38 184.464 L1811.38 121.432 Z" fill="#000000" fill-rule="evenodd" fill-opacity="1"></path><path clip-path="url(#clip660)" d="M1853.31 188.677 Q1850.15 196.779 1847.15 199.25 Q1844.15 201.721 1839.13 201.721 L1833.17 201.721 L1833.17 195.482 L1837.55 195.482 Q1840.63 195.482 1842.33 194.024 Q1844.03 192.566 1846.1 187.138 L1847.43 183.735 L1829.08 139.094 L1836.98 139.094 L1851.16 174.58 L1865.34 139.094 L1873.24 139.094 L1853.31 188.677 Z" fill="#000000" fill-rule="evenodd" fill-opacity="1"></path><path clip-path="url(#clip660)" d="M1882.35 121.513 L1888.83 121.513 Q1894.91 131.073 1897.91 140.228 Q1900.95 149.383 1900.95 158.417 Q1900.95 167.491 1897.91 176.686 Q1894.91 185.882 1888.83 195.401 L1882.35 195.401 Q1887.74 186.125 1890.37 176.97 Q1893.05 167.774 1893.05 158.417 Q1893.05 149.059 1890.37 139.945 Q1887.74 130.83 1882.35 121.513 Z" fill="#000000" fill-rule="evenodd" fill-opacity="1"></path><path clip-path="url(#clip662)" d="
M323.395 1388.11 L409.058 1388.11 L494.721 1388.11 L580.384 1388.11 L666.048 1388.11 L751.711 1388.11 L837.374 1388.11 L923.037 1388.11 L1008.7 1388.11 L1094.36 1388.11 
  L1180.03 1388.11 L1265.69 1388.11 L1351.35 1388.11 L1437.02 1388.11 L1522.68 1388.11 L1608.34 1388.11 L1694.01 1388.11 L1779.67 1388.11 L1865.33 1388.11 L1951 1388.11 
  L2036.66 1388.11 L2122.32 1388.11 L2207.99 1388.11 L2293.65 1388.11 L2293.65 1388.11 L2207.99 1388.11 L2122.32 1388.11 L2036.66 1388.11 L1951 1388.11 L1865.33 1388.11 
  L1779.67 1388.11 L1694.01 1388.11 L1608.34 1388.11 L1522.68 1388.11 L1437.02 1388.11 L1351.35 1388.11 L1265.69 1388.11 L1180.03 1388.11 L1094.36 1388.11 L1008.7 1388.11 
  L923.037 1388.11 L837.374 1388.11 L751.711 1388.11 L666.048 1388.11 L580.384 1388.11 L494.721 1388.11 L409.058 1388.11 L323.395 1388.11  Z
  " fill="#009af9" fill-rule="evenodd" fill-opacity="1"></path>
<polyline clip-path="url(#clip662)" style="stroke:#009af9; stroke-linecap:round; stroke-linejoin:round; stroke-width:4; stroke-opacity:1; fill:none" points="
  323.395,1388.11 409.058,1388.11 494.721,1388.11 580.384,1388.11 666.048,1388.11 751.711,1388.11 837.374,1388.11 923.037,1388.11 1008.7,1388.11 1094.36,1388.11 
  1180.03,1388.11 1265.69,1388.11 1351.35,1388.11 1437.02,1388.11 1522.68,1388.11 1608.34,1388.11 1694.01,1388.11 1779.67,1388.11 1865.33,1388.11 1951,1388.11 
  2036.66,1388.11 2122.32,1388.11 2207.99,1388.11 2293.65,1388.11 
  "></polyline>
<path clip-path="url(#clip662)" d="
M323.395 1388.11 L409.058 1388.11 L494.721 1388.11 L580.384 1388.11 L666.048 1388.11 L751.711 1388.11 L837.374 1388.11 L923.037 1388.11 L1008.7 1388.11 L1094.36 1388.11 
  L1180.03 1388.11 L1265.69 1388.11 L1351.35 1388.11 L1437.02 1388.11 L1522.68 1388.11 L1608.34 1388.11 L1694.01 1388.11 L1779.67 1388.11 L1865.33 1388.11 L1951 1388.11 
  L2036.66 1388.11 L2122.32 1388.11 L2207.99 1388.11 L2293.65 1388.11 L2293.65 1388.11 L2207.99 1388.11 L2122.32 1388.11 L2036.66 1388.11 L1951 1388.11 L1865.33 1388.11 
  L1779.67 1388.11 L1694.01 1388.11 L1608.34 1388.11 L1522.68 1388.11 L1437.02 1388.11 L1351.35 1388.11 L1265.69 1388.11 L1180.03 1388.11 L1094.36 1388.11 L1008.7 1388.11 
  L923.037 1388.11 L837.374 1388.11 L751.711 1388.11 L666.048 1388.11 L580.384 1388.11 L494.721 1388.11 L409.058 1388.11 L323.395 1388.11  Z
  " fill="#e26f46" fill-rule="evenodd" fill-opacity="1"></path>
<polyline clip-path="url(#clip662)" style="stroke:#e26f46; stroke-linecap:round; stroke-linejoin:round; stroke-width:4; stroke-opacity:1; fill:none" points="
  323.395,1388.11 409.058,1388.11 494.721,1388.11 580.384,1388.11 666.048,1388.11 751.711,1388.11 837.374,1388.11 923.037,1388.11 1008.7,1388.11 1094.36,1388.11 
  1180.03,1388.11 1265.69,1388.11 1351.35,1388.11 1437.02,1388.11 1522.68,1388.11 1608.34,1388.11 1694.01,1388.11 1779.67,1388.11 1865.33,1388.11 1951,1388.11 
  2036.66,1388.11 2122.32,1388.11 2207.99,1388.11 2293.65,1388.11 
  "></polyline>
<path clip-path="url(#clip662)" d="
M323.395 1388.11 L409.058 1388.11 L494.721 1359.12 L580.384 1078.61 L666.048 1078.61 L751.711 1078.61 L837.374 1078.61 L923.037 1078.61 L1008.7 1306.62 L1094.36 1388.11 
  L1180.03 1388.11 L1265.69 1388.11 L1351.35 1337.36 L1437.02 1388.11 L1522.68 1388.11 L1608.34 1254.2 L1694.01 1078.61 L1779.67 1078.61 L1865.33 1078.61 L1951 1078.61 
  L2036.66 1078.61 L2122.32 1231.47 L2207.99 1305.87 L2293.65 1382.34 L2293.65 1388.11 L2207.99 1388.11 L2122.32 1388.11 L2036.66 1388.11 L1951 1388.11 L1865.33 1388.11 
  L1779.67 1388.11 L1694.01 1388.11 L1608.34 1388.11 L1522.68 1388.11 L1437.02 1388.11 L1351.35 1388.11 L1265.69 1388.11 L1180.03 1388.11 L1094.36 1388.11 L1008.7 1388.11 
  L923.037 1388.11 L837.374 1388.11 L751.711 1388.11 L666.048 1388.11 L580.384 1388.11 L494.721 1388.11 L409.058 1388.11 L323.395 1388.11  Z
  " fill="#3da44d" fill-rule="evenodd" fill-opacity="1"></path>
<polyline clip-path="url(#clip662)" style="stroke:#3da44d; stroke-linecap:round; stroke-linejoin:round; stroke-width:4; stroke-opacity:1; fill:none" points="
  323.395,1388.11 409.058,1388.11 494.721,1359.12 580.384,1078.61 666.048,1078.61 751.711,1078.61 837.374,1078.61 923.037,1078.61 1008.7,1306.62 1094.36,1388.11 
  1180.03,1388.11 1265.69,1388.11 1351.35,1337.36 1437.02,1388.11 1522.68,1388.11 1608.34,1254.2 1694.01,1078.61 1779.67,1078.61 1865.33,1078.61 1951,1078.61 
  2036.66,1078.61 2122.32,1231.47 2207.99,1305.87 2293.65,1382.34 
  "></polyline>
<path clip-path="url(#clip662)" d="
M323.395 1388.11 L409.058 1388.11 L494.721 1359.12 L580.384 1013.21 L666.048 747.514 L751.711 661.87 L837.374 648.426 L923.037 1056.98 L1008.7 1306.62 L1094.36 1388.11 
  L1180.03 1388.11 L1265.69 1388.11 L1351.35 1337.36 L1437.02 1388.11 L1522.68 1388.11 L1608.34 1254.2 L1694.01 881.52 L1779.67 488.566 L1865.33 568.002 L1951 898.989 
  L2036.66 979.354 L2122.32 1231.47 L2207.99 1305.87 L2293.65 1382.34 L2293.65 1382.34 L2207.99 1305.87 L2122.32 1231.47 L2036.66 1078.61 L1951 1078.61 L1865.33 1078.61 
  L1779.67 1078.61 L1694.01 1078.61 L1608.34 1254.2 L1522.68 1388.11 L1437.02 1388.11 L1351.35 1337.36 L1265.69 1388.11 L1180.03 1388.11 L1094.36 1388.11 L1008.7 1306.62 
  L923.037 1078.61 L837.374 1078.61 L751.711 1078.61 L666.048 1078.61 L580.384 1078.61 L494.721 1359.12 L409.058 1388.11 L323.395 1388.11  Z
  " fill="#c271d2" fill-rule="evenodd" fill-opacity="1"></path>
<polyline clip-path="url(#clip662)" style="stroke:#c271d2; stroke-linecap:round; stroke-linejoin:round; stroke-width:4; stroke-opacity:1; fill:none" points="
  323.395,1388.11 409.058,1388.11 494.721,1359.12 580.384,1013.21 666.048,747.514 751.711,661.87 837.374,648.426 923.037,1056.98 1008.7,1306.62 1094.36,1388.11 
  1180.03,1388.11 1265.69,1388.11 1351.35,1337.36 1437.02,1388.11 1522.68,1388.11 1608.34,1254.2 1694.01,881.52 1779.67,488.566 1865.33,568.002 1951,898.989 
  2036.66,979.354 2122.32,1231.47 2207.99,1305.87 2293.65,1382.34 
  "></polyline>
<path clip-path="url(#clip662)" d="
M323.395 811.172 L409.058 822.962 L494.721 800.904 L580.384 729.025 L666.048 605.423 L751.711 448.734 L837.374 617.978 L923.037 1016.38 L1008.7 1296.47 L1094.36 1388.11 
  L1180.03 1388.11 L1265.69 1388.11 L1351.35 1296.76 L1437.02 1388.11 L1522.68 1377.96 L1608.34 1244.05 L1694.01 871.371 L1779.67 356.625 L1865.33 263.521 L1951 442.268 
  L2036.66 532.783 L2122.32 652.962 L2207.99 747.66 L2293.65 793.678 L2293.65 1382.34 L2207.99 1305.87 L2122.32 1231.47 L2036.66 979.354 L1951 898.989 L1865.33 568.002 
  L1779.67 488.566 L1694.01 881.52 L1608.34 1254.2 L1522.68 1388.11 L1437.02 1388.11 L1351.35 1337.36 L1265.69 1388.11 L1180.03 1388.11 L1094.36 1388.11 L1008.7 1306.62 
  L923.037 1056.98 L837.374 648.426 L751.711 661.87 L666.048 747.514 L580.384 1013.21 L494.721 1359.12 L409.058 1388.11 L323.395 1388.11  Z
  " fill="#ac8d18" fill-rule="evenodd" fill-opacity="1"></path>
<polyline clip-path="url(#clip662)" style="stroke:#ac8d18; stroke-linecap:round; stroke-linejoin:round; stroke-width:4; stroke-opacity:1; fill:none" points="
  323.395,811.172 409.058,822.962 494.721,800.904 580.384,729.025 666.048,605.423 751.711,448.734 837.374,617.978 923.037,1016.38 1008.7,1296.47 1094.36,1388.11 
  1180.03,1388.11 1265.69,1388.11 1351.35,1296.76 1437.02,1388.11 1522.68,1377.96 1608.34,1244.05 1694.01,871.371 1779.67,356.625 1865.33,263.521 1951,442.268 
  2036.66,532.783 2122.32,652.962 2207.99,747.66 2293.65,793.678 
  "></polyline>
<path clip-path="url(#clip662)" d="
M323.395 811.172 L409.058 822.962 L494.721 800.904 L580.384 729.025 L666.048 605.423 L751.711 448.734 L837.374 388.644 L923.037 362.783 L1008.7 379.136 L1094.36 402.716 
  L1180.03 389.405 L1265.69 355.937 L1351.35 322.089 L1437.02 307.257 L1522.68 288.622 L1608.34 315.244 L1694.01 240.702 L1779.67 219.025 L1865.33 263.521 L1951 442.268 
  L2036.66 532.783 L2122.32 652.962 L2207.99 747.66 L2293.65 793.678 L2293.65 793.678 L2207.99 747.66 L2122.32 652.962 L2036.66 532.783 L1951 442.268 L1865.33 263.521 
  L1779.67 356.625 L1694.01 871.371 L1608.34 1244.05 L1522.68 1377.96 L1437.02 1388.11 L1351.35 1296.76 L1265.69 1388.11 L1180.03 1388.11 L1094.36 1388.11 L1008.7 1296.47 
  L923.037 1016.38 L837.374 617.978 L751.711 448.734 L666.048 605.423 L580.384 729.025 L494.721 800.904 L409.058 822.962 L323.395 811.172  Z
  " fill="#00a9ad" fill-rule="evenodd" fill-opacity="1"></path>
<polyline clip-path="url(#clip662)" style="stroke:#00a9ad; stroke-linecap:round; stroke-linejoin:round; stroke-width:4; stroke-opacity:1; fill:none" points="
  323.395,811.172 409.058,822.962 494.721,800.904 580.384,729.025 666.048,605.423 751.711,448.734 837.374,388.644 923.037,362.783 1008.7,379.136 1094.36,402.716 
  1180.03,389.405 1265.69,355.937 1351.35,322.089 1437.02,307.257 1522.68,288.622 1608.34,315.244 1694.01,240.702 1779.67,219.025 1865.33,263.521 1951,442.268 
  2036.66,532.783 2122.32,652.962 2207.99,747.66 2293.65,793.678 
  "></polyline>
<polyline clip-path="url(#clip662)" style="stroke:#ff0000; stroke-linecap:round; stroke-linejoin:round; stroke-width:4; stroke-opacity:1; fill:none" stroke-dasharray="16, 10" points="
  323.395,811.172 409.058,822.962 494.721,800.904 580.384,729.025 666.048,605.423 751.711,448.734 837.374,388.644 923.037,362.783 1008.7,379.136 1094.36,402.716 
  1180.03,389.405 1265.69,355.937 1351.35,322.089 1437.02,307.257 1522.68,288.622 1608.34,315.244 1694.01,240.702 1779.67,219.025 1865.33,263.521 1951,442.268 
  2036.66,532.783 2122.32,652.962 2207.99,747.66 2293.65,793.678 
  "></polyline>
<path clip-path="url(#clip660)" d="
M1778.43 639.98 L2283.14 639.98 L2283.14 225.26 L1778.43 225.26  Z
  " fill="#ffffff" fill-rule="evenodd" fill-opacity="1"></path>
<polyline clip-path="url(#clip660)" style="stroke:#000000; stroke-linecap:round; stroke-linejoin:round; stroke-width:4; stroke-opacity:1; fill:none" points="
  1778.43,639.98 2283.14,639.98 2283.14,225.26 1778.43,225.26 1778.43,639.98 
  "></polyline>
<path clip-path="url(#clip660)" d="
M1801.63 297.836 L1940.86 297.836 L1940.86 256.364 L1801.63 256.364 L1801.63 297.836  Z
  " fill="#009af9" fill-rule="evenodd" fill-opacity="1"></path>
<polyline clip-path="url(#clip660)" style="stroke:#009af9; stroke-linecap:round; stroke-linejoin:round; stroke-width:4; stroke-opacity:1; fill:none" points="
  1801.63,256.364 1940.86,256.364 
  "></polyline>
<path clip-path="url(#clip660)" d="M1989.62 289.449 L1989.62 280.167 L1981.99 280.167 L1981.99 276.324 L1994.25 276.324 L1994.25 291.162 Q1991.55 293.083 1988.28 294.079 Q1985.02 295.051 1981.31 295.051 Q1973.21 295.051 1968.63 290.329 Q1964.07 285.583 1964.07 277.134 Q1964.07 268.662 1968.63 263.94 Q1973.21 259.195 1981.31 259.195 Q1984.69 259.195 1987.73 260.028 Q1990.78 260.861 1993.35 262.482 L1993.35 267.459 Q1990.76 265.26 1987.84 264.148 Q1984.93 263.037 1981.71 263.037 Q1975.37 263.037 1972.17 266.579 Q1969 270.121 1969 277.134 Q1969 284.125 1972.17 287.667 Q1975.37 291.208 1981.71 291.208 Q1984.18 291.208 1986.13 290.792 Q1988.07 290.352 1989.62 289.449 Z" fill="#000000" fill-rule="evenodd" fill-opacity="1"></path><path clip-path="url(#clip660)" d="M2024.79 280.352 L2024.79 282.435 L2005.2 282.435 Q2005.48 286.833 2007.84 289.148 Q2010.23 291.44 2014.46 291.44 Q2016.92 291.44 2019.21 290.838 Q2021.52 290.236 2023.79 289.033 L2023.79 293.06 Q2021.5 294.032 2019.09 294.542 Q2016.68 295.051 2014.21 295.051 Q2008 295.051 2004.37 291.44 Q2000.76 287.829 2000.76 281.671 Q2000.76 275.306 2004.18 271.579 Q2007.63 267.829 2013.47 267.829 Q2018.7 267.829 2021.73 271.209 Q2024.79 274.565 2024.79 280.352 M2020.53 279.102 Q2020.48 275.607 2018.56 273.523 Q2016.66 271.44 2013.51 271.44 Q2009.95 271.44 2007.8 273.454 Q2005.67 275.468 2005.34 279.125 L2020.53 279.102 Z" fill="#000000" fill-rule="evenodd" fill-opacity="1"></path><path clip-path="url(#clip660)" d="M2041.82 271.44 Q2038.4 271.44 2036.41 274.125 Q2034.42 276.787 2034.42 281.44 Q2034.42 286.093 2036.38 288.778 Q2038.37 291.44 2041.82 291.44 Q2045.23 291.44 2047.22 288.755 Q2049.21 286.07 2049.21 281.44 Q2049.21 276.834 2047.22 274.148 Q2045.23 271.44 2041.82 271.44 M2041.82 267.829 Q2047.38 267.829 2050.55 271.44 Q2053.72 275.051 2053.72 281.44 Q2053.72 287.806 2050.55 291.44 Q2047.38 295.051 2041.82 295.051 Q2036.24 295.051 2033.07 291.44 Q2029.93 287.806 2029.93 281.44 Q2029.93 275.051 2033.07 271.44 Q2036.24 267.829 2041.82 267.829 Z" fill="#000000" fill-rule="evenodd" fill-opacity="1"></path><path clip-path="url(#clip660)" d="M2064.99 261.093 L2064.99 268.454 L2073.77 268.454 L2073.77 271.764 L2064.99 271.764 L2064.99 285.838 Q2064.99 289.009 2065.85 289.912 Q2066.73 290.815 2069.39 290.815 L2073.77 290.815 L2073.77 294.38 L2069.39 294.38 Q2064.46 294.38 2062.59 292.551 Q2060.71 290.699 2060.71 285.838 L2060.71 271.764 L2057.59 271.764 L2057.59 268.454 L2060.71 268.454 L2060.71 261.093 L2064.99 261.093 Z" fill="#000000" fill-rule="evenodd" fill-opacity="1"></path><path clip-path="url(#clip660)" d="M2100.92 278.732 L2100.92 294.38 L2096.66 294.38 L2096.66 278.871 Q2096.66 275.19 2095.23 273.361 Q2093.79 271.533 2090.92 271.533 Q2087.47 271.533 2085.48 273.732 Q2083.49 275.931 2083.49 279.727 L2083.49 294.38 L2079.21 294.38 L2079.21 258.361 L2083.49 258.361 L2083.49 272.482 Q2085.02 270.144 2087.08 268.986 Q2089.16 267.829 2091.87 267.829 Q2096.34 267.829 2098.63 270.607 Q2100.92 273.361 2100.92 278.732 Z" fill="#000000" fill-rule="evenodd" fill-opacity="1"></path><path clip-path="url(#clip660)" d="M2131.59 280.352 L2131.59 282.435 L2112.01 282.435 Q2112.29 286.833 2114.65 289.148 Q2117.03 291.44 2121.27 291.44 Q2123.72 291.44 2126.01 290.838 Q2128.33 290.236 2130.6 289.033 L2130.6 293.06 Q2128.3 294.032 2125.9 294.542 Q2123.49 295.051 2121.01 295.051 Q2114.81 295.051 2111.17 291.44 Q2107.56 287.829 2107.56 281.671 Q2107.56 275.306 2110.99 271.579 Q2114.44 267.829 2120.27 267.829 Q2125.5 267.829 2128.54 271.209 Q2131.59 274.565 2131.59 280.352 M2127.33 279.102 Q2127.29 275.607 2125.36 273.523 Q2123.47 271.44 2120.32 271.44 Q2116.75 271.44 2114.6 273.454 Q2112.47 275.468 2112.15 279.125 L2127.33 279.102 Z" fill="#000000" fill-rule="evenodd" fill-opacity="1"></path><path clip-path="url(#clip660)" d="M2153.61 272.435 Q2152.89 272.019 2152.03 271.834 Q2151.2 271.625 2150.18 271.625 Q2146.57 271.625 2144.62 273.986 Q2142.7 276.324 2142.7 280.722 L2142.7 294.38 L2138.42 294.38 L2138.42 268.454 L2142.7 268.454 L2142.7 272.482 Q2144.05 270.121 2146.2 268.986 Q2148.35 267.829 2151.43 267.829 Q2151.87 267.829 2152.4 267.898 Q2152.93 267.945 2153.58 268.06 L2153.61 272.435 Z" fill="#000000" fill-rule="evenodd" fill-opacity="1"></path><path clip-path="url(#clip660)" d="M2177.42 273.431 Q2179.02 270.56 2181.24 269.195 Q2183.47 267.829 2186.48 267.829 Q2190.53 267.829 2192.73 270.676 Q2194.92 273.5 2194.92 278.732 L2194.92 294.38 L2190.64 294.38 L2190.64 278.871 Q2190.64 275.144 2189.32 273.338 Q2188 271.533 2185.29 271.533 Q2181.98 271.533 2180.06 273.732 Q2178.14 275.931 2178.14 279.727 L2178.14 294.38 L2173.86 294.38 L2173.86 278.871 Q2173.86 275.121 2172.54 273.338 Q2171.22 271.533 2168.47 271.533 Q2165.2 271.533 2163.28 273.755 Q2161.36 275.954 2161.36 279.727 L2161.36 294.38 L2157.08 294.38 L2157.08 268.454 L2161.36 268.454 L2161.36 272.482 Q2162.82 270.097 2164.86 268.963 Q2166.89 267.829 2169.69 267.829 Q2172.52 267.829 2174.48 269.264 Q2176.48 270.699 2177.42 273.431 Z" fill="#000000" fill-rule="evenodd" fill-opacity="1"></path><path clip-path="url(#clip660)" d="M2215.2 281.347 Q2210.04 281.347 2208.05 282.528 Q2206.06 283.708 2206.06 286.556 Q2206.06 288.824 2207.54 290.167 Q2209.04 291.486 2211.61 291.486 Q2215.16 291.486 2217.29 288.986 Q2219.44 286.463 2219.44 282.296 L2219.44 281.347 L2215.2 281.347 M2223.7 279.588 L2223.7 294.38 L2219.44 294.38 L2219.44 290.445 Q2217.98 292.806 2215.8 293.94 Q2213.63 295.051 2210.48 295.051 Q2206.5 295.051 2204.14 292.829 Q2201.8 290.583 2201.8 286.833 Q2201.8 282.458 2204.72 280.236 Q2207.66 278.014 2213.47 278.014 L2219.44 278.014 L2219.44 277.597 Q2219.44 274.658 2217.49 273.06 Q2215.57 271.44 2212.08 271.44 Q2209.86 271.44 2207.75 271.972 Q2205.64 272.505 2203.7 273.57 L2203.7 269.634 Q2206.04 268.732 2208.23 268.292 Q2210.43 267.829 2212.52 267.829 Q2218.14 267.829 2220.92 270.746 Q2223.7 273.662 2223.7 279.588 Z" fill="#000000" fill-rule="evenodd" fill-opacity="1"></path><path clip-path="url(#clip660)" d="M2232.47 258.361 L2236.73 258.361 L2236.73 294.38 L2232.47 294.38 L2232.47 258.361 Z" fill="#000000" fill-rule="evenodd" fill-opacity="1"></path><path clip-path="url(#clip660)" d="
M1801.63 349.676 L1940.86 349.676 L1940.86 308.204 L1801.63 308.204 L1801.63 349.676  Z
  " fill="#e26f46" fill-rule="evenodd" fill-opacity="1"></path>
<polyline clip-path="url(#clip660)" style="stroke:#e26f46; stroke-linecap:round; stroke-linejoin:round; stroke-width:4; stroke-opacity:1; fill:none" points="
  1801.63,308.204 1940.86,308.204 
  "></polyline>
<path clip-path="url(#clip660)" d="M1991.94 314.322 L1991.94 319.252 Q1989.58 317.053 1986.89 315.965 Q1984.23 314.877 1981.22 314.877 Q1975.3 314.877 1972.15 318.512 Q1969 322.123 1969 328.974 Q1969 335.803 1972.15 339.437 Q1975.3 343.048 1981.22 343.048 Q1984.23 343.048 1986.89 341.96 Q1989.58 340.873 1991.94 338.673 L1991.94 343.558 Q1989.49 345.224 1986.73 346.058 Q1984 346.891 1980.94 346.891 Q1973.1 346.891 1968.58 342.099 Q1964.07 337.285 1964.07 328.974 Q1964.07 320.641 1968.58 315.85 Q1973.1 311.035 1980.94 311.035 Q1984.05 311.035 1986.78 311.868 Q1989.53 312.678 1991.94 314.322 Z" fill="#000000" fill-rule="evenodd" fill-opacity="1"></path><path clip-path="url(#clip660)" d="M2009.02 323.28 Q2005.6 323.28 2003.61 325.965 Q2001.62 328.627 2001.62 333.28 Q2001.62 337.933 2003.58 340.618 Q2005.57 343.28 2009.02 343.28 Q2012.43 343.28 2014.42 340.595 Q2016.41 337.91 2016.41 333.28 Q2016.41 328.674 2014.42 325.988 Q2012.43 323.28 2009.02 323.28 M2009.02 319.669 Q2014.58 319.669 2017.75 323.28 Q2020.92 326.891 2020.92 333.28 Q2020.92 339.646 2017.75 343.28 Q2014.58 346.891 2009.02 346.891 Q2003.44 346.891 2000.27 343.28 Q1997.12 339.646 1997.12 333.28 Q1997.12 326.891 2000.27 323.28 Q2003.44 319.669 2009.02 319.669 Z" fill="#000000" fill-rule="evenodd" fill-opacity="1"></path><path clip-path="url(#clip660)" d="M2039.76 333.187 Q2034.6 333.187 2032.61 334.368 Q2030.62 335.548 2030.62 338.396 Q2030.62 340.664 2032.1 342.007 Q2033.61 343.326 2036.18 343.326 Q2039.72 343.326 2041.85 340.826 Q2044 338.303 2044 334.136 L2044 333.187 L2039.76 333.187 M2048.26 331.428 L2048.26 346.22 L2044 346.22 L2044 342.285 Q2042.54 344.646 2040.37 345.78 Q2038.19 346.891 2035.04 346.891 Q2031.06 346.891 2028.7 344.669 Q2026.36 342.423 2026.36 338.673 Q2026.36 334.298 2029.28 332.076 Q2032.22 329.854 2038.03 329.854 L2044 329.854 L2044 329.437 Q2044 326.498 2042.05 324.9 Q2040.13 323.28 2036.64 323.28 Q2034.42 323.28 2032.31 323.812 Q2030.2 324.345 2028.26 325.41 L2028.26 321.474 Q2030.6 320.572 2032.8 320.132 Q2034.99 319.669 2037.08 319.669 Q2042.7 319.669 2045.48 322.586 Q2048.26 325.502 2048.26 331.428 Z" fill="#000000" fill-rule="evenodd" fill-opacity="1"></path><path clip-path="url(#clip660)" d="M2057.03 310.201 L2061.29 310.201 L2061.29 346.22 L2057.03 346.22 L2057.03 310.201 Z" fill="#000000" fill-rule="evenodd" fill-opacity="1"></path><path clip-path="url(#clip660)" d="
M1801.63 401.516 L1940.86 401.516 L1940.86 360.044 L1801.63 360.044 L1801.63 401.516  Z
  " fill="#3da44d" fill-rule="evenodd" fill-opacity="1"></path>
<polyline clip-path="url(#clip660)" style="stroke:#3da44d; stroke-linecap:round; stroke-linejoin:round; stroke-width:4; stroke-opacity:1; fill:none" points="
  1801.63,360.044 1940.86,360.044 
  "></polyline>
<path clip-path="url(#clip660)" d="M1991.94 366.162 L1991.94 371.092 Q1989.58 368.893 1986.89 367.805 Q1984.23 366.717 1981.22 366.717 Q1975.3 366.717 1972.15 370.352 Q1969 373.963 1969 380.814 Q1969 387.643 1972.15 391.277 Q1975.3 394.888 1981.22 394.888 Q1984.23 394.888 1986.89 393.8 Q1989.58 392.713 1991.94 390.513 L1991.94 395.398 Q1989.49 397.064 1986.73 397.898 Q1984 398.731 1980.94 398.731 Q1973.1 398.731 1968.58 393.939 Q1964.07 389.125 1964.07 380.814 Q1964.07 372.481 1968.58 367.69 Q1973.1 362.875 1980.94 362.875 Q1984.05 362.875 1986.78 363.708 Q1989.53 364.518 1991.94 366.162 Z" fill="#000000" fill-rule="evenodd" fill-opacity="1"></path><path clip-path="url(#clip660)" d="M2025.04 366.162 L2025.04 371.092 Q2022.68 368.893 2019.99 367.805 Q2017.33 366.717 2014.32 366.717 Q2008.4 366.717 2005.25 370.352 Q2002.1 373.963 2002.1 380.814 Q2002.1 387.643 2005.25 391.277 Q2008.4 394.888 2014.32 394.888 Q2017.33 394.888 2019.99 393.8 Q2022.68 392.713 2025.04 390.513 L2025.04 395.398 Q2022.59 397.064 2019.83 397.898 Q2017.1 398.731 2014.05 398.731 Q2006.2 398.731 2001.68 393.939 Q1997.17 389.125 1997.17 380.814 Q1997.17 372.481 2001.68 367.69 Q2006.2 362.875 2014.05 362.875 Q2017.15 362.875 2019.88 363.708 Q2022.63 364.518 2025.04 366.162 Z" fill="#000000" fill-rule="evenodd" fill-opacity="1"></path><path clip-path="url(#clip660)" d="M2055.83 393.129 L2055.83 383.847 L2048.19 383.847 L2048.19 380.004 L2060.46 380.004 L2060.46 394.842 Q2057.75 396.763 2054.49 397.759 Q2051.22 398.731 2047.52 398.731 Q2039.42 398.731 2034.83 394.009 Q2030.27 389.263 2030.27 380.814 Q2030.27 372.342 2034.83 367.62 Q2039.42 362.875 2047.52 362.875 Q2050.9 362.875 2053.93 363.708 Q2056.99 364.541 2059.55 366.162 L2059.55 371.139 Q2056.96 368.94 2054.05 367.828 Q2051.13 366.717 2047.91 366.717 Q2041.57 366.717 2038.37 370.259 Q2035.2 373.801 2035.2 380.814 Q2035.2 387.805 2038.37 391.347 Q2041.57 394.888 2047.91 394.888 Q2050.39 394.888 2052.33 394.472 Q2054.28 394.032 2055.83 393.129 Z" fill="#000000" fill-rule="evenodd" fill-opacity="1"></path><path clip-path="url(#clip660)" d="M2062.52 363.5 L2091.75 363.5 L2091.75 367.435 L2079.49 367.435 L2079.49 398.06 L2074.79 398.06 L2074.79 367.435 L2062.52 367.435 L2062.52 363.5 Z" fill="#000000" fill-rule="evenodd" fill-opacity="1"></path><path clip-path="url(#clip660)" d="
M1801.63 453.356 L1940.86 453.356 L1940.86 411.884 L1801.63 411.884 L1801.63 453.356  Z
  " fill="#c271d2" fill-rule="evenodd" fill-opacity="1"></path>
<polyline clip-path="url(#clip660)" style="stroke:#c271d2; stroke-linecap:round; stroke-linejoin:round; stroke-width:4; stroke-opacity:1; fill:none" points="
  1801.63,411.884 1940.86,411.884 
  "></polyline>
<path clip-path="url(#clip660)" d="M1991.94 418.002 L1991.94 422.932 Q1989.58 420.733 1986.89 419.645 Q1984.23 418.557 1981.22 418.557 Q1975.3 418.557 1972.15 422.192 Q1969 425.803 1969 432.654 Q1969 439.483 1972.15 443.117 Q1975.3 446.728 1981.22 446.728 Q1984.23 446.728 1986.89 445.64 Q1989.58 444.553 1991.94 442.353 L1991.94 447.238 Q1989.49 448.904 1986.73 449.738 Q1984 450.571 1980.94 450.571 Q1973.1 450.571 1968.58 445.779 Q1964.07 440.965 1964.07 432.654 Q1964.07 424.321 1968.58 419.53 Q1973.1 414.715 1980.94 414.715 Q1984.05 414.715 1986.78 415.548 Q1989.53 416.358 1991.94 418.002 Z" fill="#000000" fill-rule="evenodd" fill-opacity="1"></path><path clip-path="url(#clip660)" d="M1994.37 415.34 L2023.61 415.34 L2023.61 419.275 L2011.34 419.275 L2011.34 449.9 L2006.64 449.9 L2006.64 419.275 L1994.37 419.275 L1994.37 415.34 Z" fill="#000000" fill-rule="evenodd" fill-opacity="1"></path><path clip-path="url(#clip660)" d="
M1801.63 505.196 L1940.86 505.196 L1940.86 463.724 L1801.63 463.724 L1801.63 505.196  Z
  " fill="#ac8d18" fill-rule="evenodd" fill-opacity="1"></path>
<polyline clip-path="url(#clip660)" style="stroke:#ac8d18; stroke-linecap:round; stroke-linejoin:round; stroke-width:4; stroke-opacity:1; fill:none" points="
  1801.63,463.724 1940.86,463.724 
  "></polyline>
<path clip-path="url(#clip660)" d="M1964.07 467.18 L1968.79 467.18 L1976.06 496.393 L1983.31 467.18 L1988.56 467.18 L1995.83 496.393 L2003.07 467.18 L2007.82 467.18 L1999.14 501.74 L1993.26 501.74 L1985.97 471.74 L1978.61 501.74 L1972.73 501.74 L1964.07 467.18 Z" fill="#000000" fill-rule="evenodd" fill-opacity="1"></path><path clip-path="url(#clip660)" d="M2012.8 475.814 L2017.06 475.814 L2017.06 501.74 L2012.8 501.74 L2012.8 475.814 M2012.8 465.721 L2017.06 465.721 L2017.06 471.115 L2012.8 471.115 L2012.8 465.721 Z" fill="#000000" fill-rule="evenodd" fill-opacity="1"></path><path clip-path="url(#clip660)" d="M2047.52 486.092 L2047.52 501.74 L2043.26 501.74 L2043.26 486.231 Q2043.26 482.55 2041.82 480.721 Q2040.39 478.893 2037.52 478.893 Q2034.07 478.893 2032.08 481.092 Q2030.09 483.291 2030.09 487.087 L2030.09 501.74 L2025.81 501.74 L2025.81 475.814 L2030.09 475.814 L2030.09 479.842 Q2031.62 477.504 2033.68 476.346 Q2035.76 475.189 2038.47 475.189 Q2042.93 475.189 2045.23 477.967 Q2047.52 480.721 2047.52 486.092 Z" fill="#000000" fill-rule="evenodd" fill-opacity="1"></path><path clip-path="url(#clip660)" d="M2073.07 479.749 L2073.07 465.721 L2077.33 465.721 L2077.33 501.74 L2073.07 501.74 L2073.07 497.851 Q2071.73 500.166 2069.67 501.3 Q2067.63 502.411 2064.76 502.411 Q2060.06 502.411 2057.1 498.661 Q2054.16 494.911 2054.16 488.8 Q2054.16 482.689 2057.1 478.939 Q2060.06 475.189 2064.76 475.189 Q2067.63 475.189 2069.67 476.323 Q2071.73 477.434 2073.07 479.749 M2058.56 488.8 Q2058.56 493.499 2060.48 496.184 Q2062.43 498.846 2065.8 498.846 Q2069.18 498.846 2071.13 496.184 Q2073.07 493.499 2073.07 488.8 Q2073.07 484.101 2071.13 481.439 Q2069.18 478.754 2065.8 478.754 Q2062.43 478.754 2060.48 481.439 Q2058.56 484.101 2058.56 488.8 Z" fill="#000000" fill-rule="evenodd" fill-opacity="1"></path><path clip-path="url(#clip660)" d="
M1801.63 557.036 L1940.86 557.036 L1940.86 515.564 L1801.63 515.564 L1801.63 557.036  Z
  " fill="#00a9ad" fill-rule="evenodd" fill-opacity="1"></path>
<polyline clip-path="url(#clip660)" style="stroke:#00a9ad; stroke-linecap:round; stroke-linejoin:round; stroke-width:4; stroke-opacity:1; fill:none" points="
  1801.63,515.564 1940.86,515.564 
  "></polyline>
<path clip-path="url(#clip660)" d="M1986.31 520.154 L1986.31 524.714 Q1983.65 523.441 1981.29 522.816 Q1978.93 522.191 1976.73 522.191 Q1972.91 522.191 1970.83 523.672 Q1968.77 525.154 1968.77 527.885 Q1968.77 530.177 1970.13 531.358 Q1971.52 532.515 1975.37 533.233 L1978.19 533.811 Q1983.42 534.807 1985.9 537.33 Q1988.4 539.83 1988.4 544.043 Q1988.4 549.066 1985.02 551.658 Q1981.66 554.251 1975.16 554.251 Q1972.7 554.251 1969.93 553.695 Q1967.17 553.14 1964.21 552.052 L1964.21 547.237 Q1967.06 548.834 1969.79 549.645 Q1972.52 550.455 1975.16 550.455 Q1979.16 550.455 1981.34 548.881 Q1983.51 547.307 1983.51 544.39 Q1983.51 541.844 1981.94 540.408 Q1980.39 538.973 1976.82 538.256 L1973.98 537.7 Q1968.75 536.659 1966.41 534.436 Q1964.07 532.214 1964.07 528.256 Q1964.07 523.672 1967.29 521.034 Q1970.53 518.395 1976.2 518.395 Q1978.63 518.395 1981.15 518.835 Q1983.68 519.274 1986.31 520.154 Z" fill="#000000" fill-rule="evenodd" fill-opacity="1"></path><path clip-path="url(#clip660)" d="M2005.55 530.64 Q2002.12 530.64 2000.13 533.325 Q1998.14 535.987 1998.14 540.64 Q1998.14 545.293 2000.11 547.978 Q2002.1 550.64 2005.55 550.64 Q2008.95 550.64 2010.94 547.955 Q2012.93 545.27 2012.93 540.64 Q2012.93 536.034 2010.94 533.348 Q2008.95 530.64 2005.55 530.64 M2005.55 527.029 Q2011.11 527.029 2014.28 530.64 Q2017.45 534.251 2017.45 540.64 Q2017.45 547.006 2014.28 550.64 Q2011.11 554.251 2005.55 554.251 Q1999.97 554.251 1996.8 550.64 Q1993.65 547.006 1993.65 540.64 Q1993.65 534.251 1996.8 530.64 Q1999.97 527.029 2005.55 527.029 Z" fill="#000000" fill-rule="evenodd" fill-opacity="1"></path><path clip-path="url(#clip660)" d="M2024.51 517.561 L2028.77 517.561 L2028.77 553.58 L2024.51 553.58 L2024.51 517.561 Z" fill="#000000" fill-rule="evenodd" fill-opacity="1"></path><path clip-path="url(#clip660)" d="M2049.46 540.547 Q2044.3 540.547 2042.31 541.728 Q2040.32 542.908 2040.32 545.756 Q2040.32 548.024 2041.8 549.367 Q2043.3 550.686 2045.87 550.686 Q2049.42 550.686 2051.55 548.186 Q2053.7 545.663 2053.7 541.496 L2053.7 540.547 L2049.46 540.547 M2057.96 538.788 L2057.96 553.58 L2053.7 553.58 L2053.7 549.645 Q2052.24 552.006 2050.06 553.14 Q2047.89 554.251 2044.74 554.251 Q2040.76 554.251 2038.4 552.029 Q2036.06 549.783 2036.06 546.033 Q2036.06 541.658 2038.98 539.436 Q2041.92 537.214 2047.73 537.214 L2053.7 537.214 L2053.7 536.797 Q2053.7 533.858 2051.75 532.26 Q2049.83 530.64 2046.34 530.64 Q2044.12 530.64 2042.01 531.172 Q2039.9 531.705 2037.96 532.77 L2037.96 528.834 Q2040.3 527.932 2042.49 527.492 Q2044.69 527.029 2046.78 527.029 Q2052.4 527.029 2055.18 529.946 Q2057.96 532.862 2057.96 538.788 Z" fill="#000000" fill-rule="evenodd" fill-opacity="1"></path><path clip-path="url(#clip660)" d="M2081.75 531.635 Q2081.04 531.219 2080.18 531.034 Q2079.35 530.825 2078.33 530.825 Q2074.72 530.825 2072.77 533.186 Q2070.85 535.524 2070.85 539.922 L2070.85 553.58 L2066.57 553.58 L2066.57 527.654 L2070.85 527.654 L2070.85 531.682 Q2072.19 529.321 2074.35 528.186 Q2076.5 527.029 2079.58 527.029 Q2080.02 527.029 2080.55 527.098 Q2081.08 527.145 2081.73 527.26 L2081.75 531.635 Z" fill="#000000" fill-rule="evenodd" fill-opacity="1"></path><polyline clip-path="url(#clip660)" style="stroke:#ff0000; stroke-linecap:round; stroke-linejoin:round; stroke-width:4; stroke-opacity:1; fill:none" stroke-dasharray="16, 10" points="
  1801.63,588.14 1940.86,588.14 
  "></polyline>
<path clip-path="url(#clip660)" d="M1968.75 574.702 L1968.75 601.577 L1974.39 601.577 Q1981.55 601.577 1984.86 598.336 Q1988.19 595.096 1988.19 588.105 Q1988.19 581.161 1984.86 577.943 Q1981.55 574.702 1974.39 574.702 L1968.75 574.702 M1964.07 570.86 L1973.68 570.86 Q1983.72 570.86 1988.42 575.05 Q1993.12 579.216 1993.12 588.105 Q1993.12 597.04 1988.4 601.23 Q1983.68 605.42 1973.68 605.42 L1964.07 605.42 L1964.07 570.86 Z" fill="#000000" fill-rule="evenodd" fill-opacity="1"></path><path clip-path="url(#clip660)" d="M2022.56 591.392 L2022.56 593.475 L2002.98 593.475 Q2003.26 597.873 2005.62 600.188 Q2008 602.48 2012.24 602.48 Q2014.69 602.48 2016.99 601.878 Q2019.3 601.276 2021.57 600.073 L2021.57 604.1 Q2019.28 605.072 2016.87 605.582 Q2014.46 606.091 2011.99 606.091 Q2005.78 606.091 2002.15 602.48 Q1998.54 598.869 1998.54 592.711 Q1998.54 586.346 2001.96 582.619 Q2005.41 578.869 2011.24 578.869 Q2016.48 578.869 2019.51 582.249 Q2022.56 585.605 2022.56 591.392 M2018.31 590.142 Q2018.26 586.647 2016.34 584.563 Q2014.44 582.48 2011.29 582.48 Q2007.73 582.48 2005.57 584.494 Q2003.44 586.508 2003.12 590.165 L2018.31 590.142 Z" fill="#000000" fill-rule="evenodd" fill-opacity="1"></path><path clip-path="url(#clip660)" d="M2049.74 584.471 Q2051.34 581.6 2053.56 580.235 Q2055.78 578.869 2058.79 578.869 Q2062.84 578.869 2065.04 581.716 Q2067.24 584.54 2067.24 589.772 L2067.24 605.42 L2062.96 605.42 L2062.96 589.911 Q2062.96 586.184 2061.64 584.378 Q2060.32 582.573 2057.61 582.573 Q2054.3 582.573 2052.38 584.772 Q2050.46 586.971 2050.46 590.767 L2050.46 605.42 L2046.18 605.42 L2046.18 589.911 Q2046.18 586.161 2044.86 584.378 Q2043.54 582.573 2040.78 582.573 Q2037.52 582.573 2035.6 584.795 Q2033.68 586.994 2033.68 590.767 L2033.68 605.42 L2029.39 605.42 L2029.39 579.494 L2033.68 579.494 L2033.68 583.522 Q2035.13 581.137 2037.17 580.003 Q2039.21 578.869 2042.01 578.869 Q2044.83 578.869 2046.8 580.304 Q2048.79 581.739 2049.74 584.471 Z" fill="#000000" fill-rule="evenodd" fill-opacity="1"></path><path clip-path="url(#clip660)" d="M2087.52 592.387 Q2082.36 592.387 2080.36 593.568 Q2078.37 594.748 2078.37 597.596 Q2078.37 599.864 2079.86 601.207 Q2081.36 602.526 2083.93 602.526 Q2087.47 602.526 2089.6 600.026 Q2091.75 597.503 2091.75 593.336 L2091.75 592.387 L2087.52 592.387 M2096.01 590.628 L2096.01 605.42 L2091.75 605.42 L2091.75 601.485 Q2090.3 603.846 2088.12 604.98 Q2085.94 606.091 2082.8 606.091 Q2078.81 606.091 2076.45 603.869 Q2074.12 601.623 2074.12 597.873 Q2074.12 593.498 2077.03 591.276 Q2079.97 589.054 2085.78 589.054 L2091.75 589.054 L2091.75 588.637 Q2091.75 585.698 2089.81 584.1 Q2087.89 582.48 2084.39 582.48 Q2082.17 582.48 2080.06 583.012 Q2077.96 583.545 2076.01 584.61 L2076.01 580.674 Q2078.35 579.772 2080.55 579.332 Q2082.75 578.869 2084.83 578.869 Q2090.46 578.869 2093.24 581.786 Q2096.01 584.702 2096.01 590.628 Z" fill="#000000" fill-rule="evenodd" fill-opacity="1"></path><path clip-path="url(#clip660)" d="M2126.34 589.772 L2126.34 605.42 L2122.08 605.42 L2122.08 589.911 Q2122.08 586.23 2120.64 584.401 Q2119.21 582.573 2116.34 582.573 Q2112.89 582.573 2110.9 584.772 Q2108.91 586.971 2108.91 590.767 L2108.91 605.42 L2104.62 605.42 L2104.62 579.494 L2108.91 579.494 L2108.91 583.522 Q2110.43 581.184 2112.49 580.026 Q2114.58 578.869 2117.29 578.869 Q2121.75 578.869 2124.05 581.647 Q2126.34 584.401 2126.34 589.772 Z" fill="#000000" fill-rule="evenodd" fill-opacity="1"></path><path clip-path="url(#clip660)" d="M2151.89 583.429 L2151.89 569.401 L2156.15 569.401 L2156.15 605.42 L2151.89 605.42 L2151.89 601.531 Q2150.55 603.846 2148.49 604.98 Q2146.45 606.091 2143.58 606.091 Q2138.88 606.091 2135.92 602.341 Q2132.98 598.591 2132.98 592.48 Q2132.98 586.369 2135.92 582.619 Q2138.88 578.869 2143.58 578.869 Q2146.45 578.869 2148.49 580.003 Q2150.55 581.114 2151.89 583.429 M2137.38 592.48 Q2137.38 597.179 2139.3 599.864 Q2141.24 602.526 2144.62 602.526 Q2148 602.526 2149.95 599.864 Q2151.89 597.179 2151.89 592.48 Q2151.89 587.781 2149.95 585.119 Q2148 582.434 2144.62 582.434 Q2141.24 582.434 2139.3 585.119 Q2137.38 587.781 2137.38 592.48 Z" fill="#000000" fill-rule="evenodd" fill-opacity="1"></path></svg>