<svg xmlns="http://www.w3.org/2000/svg" xmlns:xlink="http://www.w3.org/1999/xlink" width="600" height="400" viewBox="0 0 2400 1600">
<defs>
  <clipPath id="clip580">
    <rect x="0" y="0" width="2400" height="1600"></rect>
  </clipPath>
</defs>
<path clip-path="url(#clip580)" d="
M0 1600 L2400 1600 L2400 0 L0 0  Z
  " fill="#ffffff" fill-rule="evenodd" fill-opacity="1"></path>
<defs>
  <clipPath id="clip581">
    <rect x="480" y="0" width="1681" height="1600"></rect>
  </clipPath>
</defs>
<path clip-path="url(#clip580)" d="
M264.287 1423.18 L2352.76 1423.18 L2352.76 123.472 L264.287 123.472  Z
  " fill="#ffffff" fill-rule="evenodd" fill-opacity="1"></path>
<defs>
  <clipPath id="clip582">
    <rect x="264" y="123" width="2089" height="1301"></rect>
  </clipPath>
</defs>
<polyline clip-path="url(#clip582)" style="stroke:#000000; stroke-linecap:round; stroke-linejoin:round; stroke-width:2; stroke-opacity:0.1; fill:none" points="
  666.048,1423.18 666.048,123.472 
  "></polyline>
<polyline clip-path="url(#clip582)" style="stroke:#000000; stroke-linecap:round; stroke-linejoin:round; stroke-width:2; stroke-opacity:0.1; fill:none" points="
  1094.36,1423.18 1094.36,123.472 
  "></polyline>
<polyline clip-path="url(#clip582)" style="stroke:#000000; stroke-linecap:round; stroke-linejoin:round; stroke-width:2; stroke-opacity:0.1; fill:none" points="
  1522.68,1423.18 1522.68,123.472 
  "></polyline>
<polyline clip-path="url(#clip582)" style="stroke:#000000; stroke-linecap:round; stroke-linejoin:round; stroke-width:2; stroke-opacity:0.1; fill:none" points="
  1951,1423.18 1951,123.472 
  "></polyline>
<polyline clip-path="url(#clip580)" style="stroke:#000000; stroke-linecap:round; stroke-linejoin:round; stroke-width:4; stroke-opacity:1; fill:none" points="
  264.287,1423.18 2352.76,1423.18 
  "></polyline>
<polyline clip-path="url(#clip580)" style="stroke:#000000; stroke-linecap:round; stroke-linejoin:round; stroke-width:4; stroke-opacity:1; fill:none" points="
  666.048,1423.18 666.048,1404.28 
  "></polyline>
<polyline clip-path="url(#clip580)" style="stroke:#000000; stroke-linecap:round; stroke-linejoin:round; stroke-width:4; stroke-opacity:1; fill:none" points="
  1094.36,1423.18 1094.36,1404.28 
  "></polyline>
<polyline clip-path="url(#clip580)" style="stroke:#000000; stroke-linecap:round; stroke-linejoin:round; stroke-width:4; stroke-opacity:1; fill:none" points="
  1522.68,1423.18 1522.68,1404.28 
  "></polyline>
<polyline clip-path="url(#clip580)" style="stroke:#000000; stroke-linecap:round; stroke-linejoin:round; stroke-width:4; stroke-opacity:1; fill:none" points="
  1951,1423.18 1951,1404.28 
  "></polyline>
<path clip-path="url(#clip580)" d="M656.326 1451.02 L674.682 1451.02 L674.682 1454.96 L660.608 1454.96 L660.608 1463.43 Q661.626 1463.08 662.645 1462.92 Q663.663 1462.73 664.682 1462.73 Q670.469 1462.73 673.849 1465.9 Q677.228 1469.08 677.228 1474.49 Q677.228 1480.07 673.756 1483.17 Q670.284 1486.25 663.964 1486.25 Q661.788 1486.25 659.52 1485.88 Q657.275 1485.51 654.867 1484.77 L654.867 1480.07 Q656.951 1481.2 659.173 1481.76 Q661.395 1482.32 663.872 1482.32 Q667.876 1482.32 670.214 1480.21 Q672.552 1478.1 672.552 1474.49 Q672.552 1470.88 670.214 1468.77 Q667.876 1466.67 663.872 1466.67 Q661.997 1466.67 660.122 1467.08 Q658.27 1467.5 656.326 1468.38 L656.326 1451.02 Z" fill="#000000" fill-rule="evenodd" fill-opacity="1"></path><path clip-path="url(#clip580)" d="M1069.05 1481.64 L1076.69 1481.64 L1076.69 1455.28 L1068.38 1456.95 L1068.38 1452.69 L1076.64 1451.02 L1081.32 1451.02 L1081.32 1481.64 L1088.96 1481.64 L1088.96 1485.58 L1069.05 1485.58 L1069.05 1481.64 Z" fill="#000000" fill-rule="evenodd" fill-opacity="1"></path><path clip-path="url(#clip580)" d="M1108.4 1454.1 Q1104.79 1454.1 1102.96 1457.66 Q1101.16 1461.2 1101.16 1468.33 Q1101.16 1475.44 1102.96 1479.01 Q1104.79 1482.55 1108.4 1482.55 Q1112.04 1482.55 1113.84 1479.01 Q1115.67 1475.44 1115.67 1468.33 Q1115.67 1461.2 1113.84 1457.66 Q1112.04 1454.1 1108.4 1454.1 M1108.4 1450.39 Q1114.21 1450.39 1117.27 1455 Q1120.35 1459.58 1120.35 1468.33 Q1120.35 1477.06 1117.27 1481.67 Q1114.21 1486.25 1108.4 1486.25 Q1102.59 1486.25 1099.51 1481.67 Q1096.46 1477.06 1096.46 1468.33 Q1096.46 1459.58 1099.51 1455 Q1102.59 1450.39 1108.4 1450.39 Z" fill="#000000" fill-rule="evenodd" fill-opacity="1"></path><path clip-path="url(#clip580)" d="M1497.86 1481.64 L1505.5 1481.64 L1505.5 1455.28 L1497.19 1456.95 L1497.19 1452.69 L1505.46 1451.02 L1510.13 1451.02 L1510.13 1481.64 L1517.77 1481.64 L1517.77 1485.58 L1497.86 1485.58 L1497.86 1481.64 Z" fill="#000000" fill-rule="evenodd" fill-opacity="1"></path><path clip-path="url(#clip580)" d="M1527.26 1451.02 L1545.62 1451.02 L1545.62 1454.96 L1531.55 1454.96 L1531.55 1463.43 Q1532.56 1463.08 1533.58 1462.92 Q1534.6 1462.73 1535.62 1462.73 Q1541.41 1462.73 1544.79 1465.9 Q1548.17 1469.08 1548.17 1474.49 Q1548.17 1480.07 1544.69 1483.17 Q1541.22 1486.25 1534.9 1486.25 Q1532.73 1486.25 1530.46 1485.88 Q1528.21 1485.51 1525.8 1484.77 L1525.8 1480.07 Q1527.89 1481.2 1530.11 1481.76 Q1532.33 1482.32 1534.81 1482.32 Q1538.81 1482.32 1541.15 1480.21 Q1543.49 1478.1 1543.49 1474.49 Q1543.49 1470.88 1541.15 1468.77 Q1538.81 1466.67 1534.81 1466.67 Q1532.93 1466.67 1531.06 1467.08 Q1529.21 1467.5 1527.26 1468.38 L1527.26 1451.02 Z" fill="#000000" fill-rule="evenodd" fill-opacity="1"></path><path clip-path="url(#clip580)" d="M1929.77 1481.64 L1946.09 1481.64 L1946.09 1485.58 L1924.14 1485.58 L1924.14 1481.64 Q1926.81 1478.89 1931.39 1474.26 Q1936 1469.61 1937.18 1468.27 Q1939.42 1465.74 1940.3 1464.01 Q1941.2 1462.25 1941.2 1460.56 Q1941.2 1457.8 1939.26 1456.07 Q1937.34 1454.33 1934.24 1454.33 Q1932.04 1454.33 1929.58 1455.09 Q1927.15 1455.86 1924.38 1457.41 L1924.38 1452.69 Q1927.2 1451.55 1929.65 1450.97 Q1932.11 1450.39 1934.14 1450.39 Q1939.51 1450.39 1942.71 1453.08 Q1945.9 1455.77 1945.9 1460.26 Q1945.9 1462.39 1945.09 1464.31 Q1944.31 1466.2 1942.2 1468.8 Q1941.62 1469.47 1938.52 1472.69 Q1935.42 1475.88 1929.77 1481.64 Z" fill="#000000" fill-rule="evenodd" fill-opacity="1"></path><path clip-path="url(#clip580)" d="M1965.9 1454.1 Q1962.29 1454.1 1960.46 1457.66 Q1958.66 1461.2 1958.66 1468.33 Q1958.66 1475.44 1960.46 1479.01 Q1962.29 1482.55 1965.9 1482.55 Q1969.54 1482.55 1971.34 1479.01 Q1973.17 1475.44 1973.17 1468.33 Q1973.17 1461.2 1971.34 1457.66 Q1969.54 1454.1 1965.9 1454.1 M1965.9 1450.39 Q1971.71 1450.39 1974.77 1455 Q1977.85 1459.58 1977.85 1468.33 Q1977.85 1477.06 1974.77 1481.67 Q1971.71 1486.25 1965.9 1486.25 Q1960.09 1486.25 1957.01 1481.67 Q1953.96 1477.06 1953.96 1468.33 Q1953.96 1459.58 1957.01 1455 Q1960.09 1450.39 1965.9 1450.39 Z" fill="#000000" fill-rule="evenodd" fill-opacity="1"></path><path clip-path="url(#clip580)" d="M987.547 1520.52 L1027.75 1520.52 L1027.75 1525.93 L1010.88 1525.93 L1010.88 1568.04 L1004.42 1568.04 L1004.42 1525.93 L987.547 1525.93 L987.547 1520.52 Z" fill="#000000" fill-rule="evenodd" fill-opacity="1"></path><path clip-path="url(#clip580)" d="M1031.69 1532.4 L1037.55 1532.4 L1037.55 1568.04 L1031.69 1568.04 L1031.69 1532.4 M1031.69 1518.52 L1037.55 1518.52 L1037.55 1525.93 L1031.69 1525.93 L1031.69 1518.52 Z" fill="#000000" fill-rule="evenodd" fill-opacity="1"></path><path clip-path="url(#clip580)" d="M1077.56 1539.24 Q1079.75 1535.29 1082.81 1533.41 Q1085.87 1531.54 1090 1531.54 Q1095.57 1531.54 1098.6 1535.45 Q1101.62 1539.33 1101.62 1546.53 L1101.62 1568.04 L1095.73 1568.04 L1095.73 1546.72 Q1095.73 1541.59 1093.92 1539.11 Q1092.1 1536.63 1088.38 1536.63 Q1083.83 1536.63 1081.19 1539.65 Q1078.54 1542.68 1078.54 1547.9 L1078.54 1568.04 L1072.66 1568.04 L1072.66 1546.72 Q1072.66 1541.56 1070.84 1539.11 Q1069.03 1536.63 1065.24 1536.63 Q1060.75 1536.63 1058.11 1539.68 Q1055.47 1542.71 1055.47 1547.9 L1055.47 1568.04 L1049.58 1568.04 L1049.58 1532.4 L1055.47 1532.4 L1055.47 1537.93 Q1057.47 1534.66 1060.27 1533.1 Q1063.08 1531.54 1066.93 1531.54 Q1070.81 1531.54 1073.52 1533.51 Q1076.25 1535.48 1077.56 1539.24 Z" fill="#000000" fill-rule="evenodd" fill-opacity="1"></path><path clip-path="url(#clip580)" d="M1143.79 1548.76 L1143.79 1551.62 L1116.87 1551.62 Q1117.25 1557.67 1120.49 1560.85 Q1123.77 1564 1129.6 1564 Q1132.97 1564 1136.12 1563.17 Q1139.31 1562.35 1142.42 1560.69 L1142.42 1566.23 Q1139.27 1567.57 1135.96 1568.27 Q1132.65 1568.97 1129.25 1568.97 Q1120.72 1568.97 1115.72 1564 Q1110.76 1559.04 1110.76 1550.57 Q1110.76 1541.82 1115.47 1536.69 Q1120.21 1531.54 1128.23 1531.54 Q1135.42 1531.54 1139.59 1536.18 Q1143.79 1540.8 1143.79 1548.76 M1137.94 1547.04 Q1137.87 1542.23 1135.23 1539.37 Q1132.62 1536.5 1128.29 1536.5 Q1123.39 1536.5 1120.43 1539.27 Q1117.5 1542.04 1117.06 1547.07 L1137.94 1547.04 Z" fill="#000000" fill-rule="evenodd" fill-opacity="1"></path><path clip-path="url(#clip580)" d="M1187.94 1536.5 Q1183.23 1536.5 1180.49 1540.19 Q1177.75 1543.85 1177.75 1550.25 Q1177.75 1556.65 1180.46 1560.34 Q1183.2 1564 1187.94 1564 Q1192.62 1564 1195.36 1560.31 Q1198.09 1556.62 1198.09 1550.25 Q1198.09 1543.92 1195.36 1540.23 Q1192.62 1536.5 1187.94 1536.5 M1187.94 1531.54 Q1195.58 1531.54 1199.94 1536.5 Q1204.3 1541.47 1204.3 1550.25 Q1204.3 1559 1199.94 1564 Q1195.58 1568.97 1187.94 1568.97 Q1180.27 1568.97 1175.91 1564 Q1171.58 1559 1171.58 1550.25 Q1171.58 1541.47 1175.91 1536.5 Q1180.27 1531.54 1187.94 1531.54 Z" fill="#000000" fill-rule="evenodd" fill-opacity="1"></path><path clip-path="url(#clip580)" d="M1232.05 1518.52 L1232.05 1523.39 L1226.45 1523.39 Q1223.3 1523.39 1222.06 1524.66 Q1220.85 1525.93 1220.85 1529.24 L1220.85 1532.4 L1230.49 1532.4 L1230.49 1536.95 L1220.85 1536.95 L1220.85 1568.04 L1214.96 1568.04 L1214.96 1536.95 L1209.36 1536.95 L1209.36 1532.4 L1214.96 1532.4 L1214.96 1529.91 Q1214.96 1523.96 1217.73 1521.26 Q1220.5 1518.52 1226.52 1518.52 L1232.05 1518.52 Z" fill="#000000" fill-rule="evenodd" fill-opacity="1"></path><path clip-path="url(#clip580)" d="M1264.36 1525.81 L1264.36 1562.76 L1272.13 1562.76 Q1281.96 1562.76 1286.51 1558.3 Q1291.1 1553.85 1291.1 1544.24 Q1291.1 1534.69 1286.51 1530.26 Q1281.96 1525.81 1272.13 1525.81 L1264.36 1525.81 M1257.93 1520.52 L1271.14 1520.52 Q1284.95 1520.52 1291.41 1526.28 Q1297.87 1532.01 1297.87 1544.24 Q1297.87 1556.52 1291.38 1562.28 Q1284.89 1568.04 1271.14 1568.04 L1257.93 1568.04 L1257.93 1520.52 Z" fill="#000000" fill-rule="evenodd" fill-opacity="1"></path><path clip-path="url(#clip580)" d="M1324.07 1550.12 Q1316.97 1550.12 1314.23 1551.75 Q1311.5 1553.37 1311.5 1557.29 Q1311.5 1560.4 1313.53 1562.25 Q1315.6 1564.07 1319.14 1564.07 Q1324.01 1564.07 1326.93 1560.63 Q1329.89 1557.16 1329.89 1551.43 L1329.89 1550.12 L1324.07 1550.12 M1335.75 1547.71 L1335.75 1568.04 L1329.89 1568.04 L1329.89 1562.63 Q1327.89 1565.88 1324.9 1567.44 Q1321.91 1568.97 1317.58 1568.97 Q1312.1 1568.97 1308.86 1565.91 Q1305.64 1562.82 1305.64 1557.67 Q1305.64 1551.65 1309.65 1548.6 Q1313.69 1545.54 1321.68 1545.54 L1329.89 1545.54 L1329.89 1544.97 Q1329.89 1540.93 1327.22 1538.73 Q1324.58 1536.5 1319.77 1536.5 Q1316.72 1536.5 1313.82 1537.23 Q1310.92 1537.97 1308.25 1539.43 L1308.25 1534.02 Q1311.47 1532.78 1314.49 1532.17 Q1317.51 1531.54 1320.38 1531.54 Q1328.11 1531.54 1331.93 1535.55 Q1335.75 1539.56 1335.75 1547.71 Z" fill="#000000" fill-rule="evenodd" fill-opacity="1"></path><path clip-path="url(#clip580)" d="M1362.65 1571.35 Q1360.16 1577.72 1357.81 1579.66 Q1355.45 1581.6 1351.51 1581.6 L1346.83 1581.6 L1346.83 1576.7 L1350.26 1576.7 Q1352.68 1576.7 1354.02 1575.56 Q1355.36 1574.41 1356.98 1570.14 L1358.03 1567.47 L1343.61 1532.4 L1349.82 1532.4 L1360.96 1560.28 L1372.1 1532.4 L1378.31 1532.4 L1362.65 1571.35 Z" fill="#000000" fill-rule="evenodd" fill-opacity="1"></path><path clip-path="url(#clip580)" d="M1421.18 1518.58 Q1416.91 1525.9 1414.84 1533.06 Q1412.78 1540.23 1412.78 1547.58 Q1412.78 1554.93 1414.84 1562.16 Q1416.95 1569.35 1421.18 1576.64 L1416.09 1576.64 Q1411.31 1569.16 1408.92 1561.93 Q1406.57 1554.71 1406.57 1547.58 Q1406.57 1540.48 1408.92 1533.29 Q1411.28 1526.09 1416.09 1518.58 L1421.18 1518.58 Z" fill="#000000" fill-rule="evenodd" fill-opacity="1"></path><path clip-path="url(#clip580)" d="M1462.17 1546.53 L1462.17 1568.04 L1456.32 1568.04 L1456.32 1546.72 Q1456.32 1541.66 1454.34 1539.14 Q1452.37 1536.63 1448.42 1536.63 Q1443.68 1536.63 1440.94 1539.65 Q1438.21 1542.68 1438.21 1547.9 L1438.21 1568.04 L1432.32 1568.04 L1432.32 1518.52 L1438.21 1518.52 L1438.21 1537.93 Q1440.31 1534.72 1443.14 1533.13 Q1446 1531.54 1449.73 1531.54 Q1455.87 1531.54 1459.02 1535.36 Q1462.17 1539.14 1462.17 1546.53 Z" fill="#000000" fill-rule="evenodd" fill-opacity="1"></path><path clip-path="url(#clip580)" d="M1487.67 1536.5 Q1482.96 1536.5 1480.22 1540.19 Q1477.48 1543.85 1477.48 1550.25 Q1477.48 1556.65 1480.19 1560.34 Q1482.93 1564 1487.67 1564 Q1492.35 1564 1495.08 1560.31 Q1497.82 1556.62 1497.82 1550.25 Q1497.82 1543.92 1495.08 1540.23 Q1492.35 1536.5 1487.67 1536.5 M1487.67 1531.54 Q1495.31 1531.54 1499.67 1536.5 Q1504.03 1541.47 1504.03 1550.25 Q1504.03 1559 1499.67 1564 Q1495.31 1568.97 1487.67 1568.97 Q1480 1568.97 1475.64 1564 Q1471.31 1559 1471.31 1550.25 Q1471.31 1541.47 1475.64 1536.5 Q1480 1531.54 1487.67 1531.54 Z" fill="#000000" fill-rule="evenodd" fill-opacity="1"></path><path clip-path="url(#clip580)" d="M1513.13 1553.98 L1513.13 1532.4 L1518.99 1532.4 L1518.99 1553.75 Q1518.99 1558.81 1520.96 1561.36 Q1522.93 1563.87 1526.88 1563.87 Q1531.62 1563.87 1534.36 1560.85 Q1537.13 1557.83 1537.13 1552.61 L1537.13 1532.4 L1542.99 1532.4 L1542.99 1568.04 L1537.13 1568.04 L1537.13 1562.57 Q1535 1565.82 1532.16 1567.41 Q1529.36 1568.97 1525.64 1568.97 Q1519.5 1568.97 1516.31 1565.15 Q1513.13 1561.33 1513.13 1553.98 M1527.87 1531.54 L1527.87 1531.54 Z" fill="#000000" fill-rule="evenodd" fill-opacity="1"></path><path clip-path="url(#clip580)" d="M1575.71 1537.87 Q1574.72 1537.3 1573.54 1537.04 Q1572.4 1536.76 1571 1536.76 Q1566.03 1536.76 1563.36 1540 Q1560.71 1543.22 1560.71 1549.27 L1560.71 1568.04 L1554.83 1568.04 L1554.83 1532.4 L1560.71 1532.4 L1560.71 1537.93 Q1562.56 1534.69 1565.52 1533.13 Q1568.48 1531.54 1572.71 1531.54 Q1573.32 1531.54 1574.05 1531.63 Q1574.78 1531.7 1575.67 1531.85 L1575.71 1537.87 Z" fill="#000000" fill-rule="evenodd" fill-opacity="1"></path><path clip-path="url(#clip580)" d="M1604.57 1533.45 L1604.57 1538.98 Q1602.09 1537.71 1599.42 1537.07 Q1596.74 1536.44 1593.88 1536.44 Q1589.52 1536.44 1587.32 1537.77 Q1585.16 1539.11 1585.16 1541.79 Q1585.16 1543.82 1586.72 1545 Q1588.28 1546.15 1592.99 1547.2 L1594.99 1547.64 Q1601.23 1548.98 1603.84 1551.43 Q1606.48 1553.85 1606.48 1558.21 Q1606.48 1563.17 1602.54 1566.07 Q1598.62 1568.97 1591.75 1568.97 Q1588.88 1568.97 1585.76 1568.39 Q1582.68 1567.85 1579.24 1566.74 L1579.24 1560.69 Q1582.49 1562.38 1585.64 1563.24 Q1588.79 1564.07 1591.88 1564.07 Q1596.01 1564.07 1598.24 1562.66 Q1600.47 1561.23 1600.47 1558.65 Q1600.47 1556.27 1598.85 1554.99 Q1597.25 1553.72 1591.81 1552.54 L1589.77 1552.07 Q1584.33 1550.92 1581.91 1548.56 Q1579.49 1546.18 1579.49 1542.04 Q1579.49 1537.01 1583.06 1534.27 Q1586.62 1531.54 1593.18 1531.54 Q1596.43 1531.54 1599.29 1532.01 Q1602.16 1532.49 1604.57 1533.45 Z" fill="#000000" fill-rule="evenodd" fill-opacity="1"></path><path clip-path="url(#clip580)" d="M1614.89 1518.58 L1619.98 1518.58 Q1624.75 1526.09 1627.11 1533.29 Q1629.5 1540.48 1629.5 1547.58 Q1629.5 1554.71 1627.11 1561.93 Q1624.75 1569.16 1619.98 1576.64 L1614.89 1576.64 Q1619.12 1569.35 1621.19 1562.16 Q1623.29 1554.93 1623.29 1547.58 Q1623.29 1540.23 1621.19 1533.06 Q1619.12 1525.9 1614.89 1518.58 Z" fill="#000000" fill-rule="evenodd" fill-opacity="1"></path><polyline clip-path="url(#clip582)" style="stroke:#000000; stroke-linecap:round; stroke-linejoin:round; stroke-width:2; stroke-opacity:0.1; fill:none" points="
  264.287,1386.4 2352.76,1386.4 
  "></polyline>
<polyline clip-path="url(#clip582)" style="stroke:#000000; stroke-linecap:round; stroke-linejoin:round; stroke-width:2; stroke-opacity:0.1; fill:none" points="
  264.287,987.521 2352.76,987.521 
  "></polyline>
<polyline clip-path="url(#clip582)" style="stroke:#000000; stroke-linecap:round; stroke-linejoin:round; stroke-width:2; stroke-opacity:0.1; fill:none" points="
  264.287,588.647 2352.76,588.647 
  "></polyline>
<polyline clip-path="url(#clip582)" style="stroke:#000000; stroke-linecap:round; stroke-linejoin:round; stroke-width:2; stroke-opacity:0.1; fill:none" points="
  264.287,189.773 2352.76,189.773 
  "></polyline>
<polyline clip-path="url(#clip580)" style="stroke:#000000; stroke-linecap:round; stroke-linejoin:round; stroke-width:4; stroke-opacity:1; fill:none" points="
  264.287,1423.18 264.287,123.472 
  "></polyline>
<polyline clip-path="url(#clip580)" style="stroke:#000000; stroke-linecap:round; stroke-linejoin:round; stroke-width:4; stroke-opacity:1; fill:none" points="
  264.287,1386.4 283.185,1386.4 
  "></polyline>
<polyline clip-path="url(#clip580)" style="stroke:#000000; stroke-linecap:round; stroke-linejoin:round; stroke-width:4; stroke-opacity:1; fill:none" points="
  264.287,987.521 283.185,987.521 
  "></polyline>
<polyline clip-path="url(#clip580)" style="stroke:#000000; stroke-linecap:round; stroke-linejoin:round; stroke-width:4; stroke-opacity:1; fill:none" points="
  264.287,588.647 283.185,588.647 
  "></polyline>
<polyline clip-path="url(#clip580)" style="stroke:#000000; stroke-linecap:round; stroke-linejoin:round; stroke-width:4; stroke-opacity:1; fill:none" points="
  264.287,189.773 283.185,189.773 
  "></polyline>
<path clip-path="url(#clip580)" d="M216.343 1372.19 Q212.732 1372.19 210.903 1375.76 Q209.098 1379.3 209.098 1386.43 Q209.098 1393.54 210.903 1397.1 Q212.732 1400.64 216.343 1400.64 Q219.977 1400.64 221.783 1397.1 Q223.611 1393.54 223.611 1386.43 Q223.611 1379.3 221.783 1375.76 Q219.977 1372.19 216.343 1372.19 M216.343 1368.49 Q222.153 1368.49 225.209 1373.1 Q228.287 1377.68 228.287 1386.43 Q228.287 1395.16 225.209 1399.76 Q222.153 1404.35 216.343 1404.35 Q210.533 1404.35 207.454 1399.76 Q204.399 1395.16 204.399 1386.43 Q204.399 1377.68 207.454 1373.1 Q210.533 1368.49 216.343 1368.49 Z" fill="#000000" fill-rule="evenodd" fill-opacity="1"></path><path clip-path="url(#clip580)" d="M116.668 1000.87 L124.306 1000.87 L124.306 974.501 L115.996 976.167 L115.996 971.908 L124.26 970.241 L128.936 970.241 L128.936 1000.87 L136.575 1000.87 L136.575 1004.8 L116.668 1004.8 L116.668 1000.87 Z" fill="#000000" fill-rule="evenodd" fill-opacity="1"></path><path clip-path="url(#clip580)" d="M156.019 973.32 Q152.408 973.32 150.579 976.885 Q148.774 980.427 148.774 987.556 Q148.774 994.663 150.579 998.227 Q152.408 1001.77 156.019 1001.77 Q159.653 1001.77 161.459 998.227 Q163.288 994.663 163.288 987.556 Q163.288 980.427 161.459 976.885 Q159.653 973.32 156.019 973.32 M156.019 969.616 Q161.829 969.616 164.885 974.223 Q167.964 978.806 167.964 987.556 Q167.964 996.283 164.885 1000.89 Q161.829 1005.47 156.019 1005.47 Q150.209 1005.47 147.13 1000.89 Q144.075 996.283 144.075 987.556 Q144.075 978.806 147.13 974.223 Q150.209 969.616 156.019 969.616 Z" fill="#000000" fill-rule="evenodd" fill-opacity="1"></path><path clip-path="url(#clip580)" d="M186.181 973.32 Q182.57 973.32 180.741 976.885 Q178.936 980.427 178.936 987.556 Q178.936 994.663 180.741 998.227 Q182.57 1001.77 186.181 1001.77 Q189.815 1001.77 191.621 998.227 Q193.45 994.663 193.45 987.556 Q193.45 980.427 191.621 976.885 Q189.815 973.32 186.181 973.32 M186.181 969.616 Q191.991 969.616 195.047 974.223 Q198.125 978.806 198.125 987.556 Q198.125 996.283 195.047 1000.89 Q191.991 1005.47 186.181 1005.47 Q180.371 1005.47 177.292 1000.89 Q174.237 996.283 174.237 987.556 Q174.237 978.806 177.292 974.223 Q180.371 969.616 186.181 969.616 Z" fill="#000000" fill-rule="evenodd" fill-opacity="1"></path><path clip-path="url(#clip580)" d="M216.343 973.32 Q212.732 973.32 210.903 976.885 Q209.098 980.427 209.098 987.556 Q209.098 994.663 210.903 998.227 Q212.732 1001.77 216.343 1001.77 Q219.977 1001.77 221.783 998.227 Q223.611 994.663 223.611 987.556 Q223.611 980.427 221.783 976.885 Q219.977 973.32 216.343 973.32 M216.343 969.616 Q222.153 969.616 225.209 974.223 Q228.287 978.806 228.287 987.556 Q228.287 996.283 225.209 1000.89 Q222.153 1005.47 216.343 1005.47 Q210.533 1005.47 207.454 1000.89 Q204.399 996.283 204.399 987.556 Q204.399 978.806 207.454 974.223 Q210.533 969.616 216.343 969.616 Z" fill="#000000" fill-rule="evenodd" fill-opacity="1"></path><path clip-path="url(#clip580)" d="M119.885 601.992 L136.204 601.992 L136.204 605.927 L114.26 605.927 L114.26 601.992 Q116.922 599.237 121.505 594.608 Q126.112 589.955 127.292 588.612 Q129.538 586.089 130.417 584.353 Q131.32 582.594 131.32 580.904 Q131.32 578.15 129.376 576.413 Q127.455 574.677 124.353 574.677 Q122.154 574.677 119.7 575.441 Q117.269 576.205 114.492 577.756 L114.492 573.034 Q117.316 571.9 119.769 571.321 Q122.223 570.742 124.26 570.742 Q129.63 570.742 132.825 573.427 Q136.019 576.113 136.019 580.603 Q136.019 582.733 135.209 584.654 Q134.422 586.552 132.316 589.145 Q131.737 589.816 128.635 593.034 Q125.533 596.228 119.885 601.992 Z" fill="#000000" fill-rule="evenodd" fill-opacity="1"></path><path clip-path="url(#clip580)" d="M156.019 574.446 Q152.408 574.446 150.579 578.011 Q148.774 581.552 148.774 588.682 Q148.774 595.788 150.579 599.353 Q152.408 602.895 156.019 602.895 Q159.653 602.895 161.459 599.353 Q163.288 595.788 163.288 588.682 Q163.288 581.552 161.459 578.011 Q159.653 574.446 156.019 574.446 M156.019 570.742 Q161.829 570.742 164.885 575.349 Q167.964 579.932 167.964 588.682 Q167.964 597.409 164.885 602.015 Q161.829 606.599 156.019 606.599 Q150.209 606.599 147.13 602.015 Q144.075 597.409 144.075 588.682 Q144.075 579.932 147.13 575.349 Q150.209 570.742 156.019 570.742 Z" fill="#000000" fill-rule="evenodd" fill-opacity="1"></path><path clip-path="url(#clip580)" d="M186.181 574.446 Q182.57 574.446 180.741 578.011 Q178.936 581.552 178.936 588.682 Q178.936 595.788 180.741 599.353 Q182.57 602.895 186.181 602.895 Q189.815 602.895 191.621 599.353 Q193.45 595.788 193.45 588.682 Q193.45 581.552 191.621 578.011 Q189.815 574.446 186.181 574.446 M186.181 570.742 Q191.991 570.742 195.047 575.349 Q198.125 579.932 198.125 588.682 Q198.125 597.409 195.047 602.015 Q191.991 606.599 186.181 606.599 Q180.371 606.599 177.292 602.015 Q174.237 597.409 174.237 588.682 Q174.237 579.932 177.292 575.349 Q180.371 570.742 186.181 570.742 Z" fill="#000000" fill-rule="evenodd" fill-opacity="1"></path><path clip-path="url(#clip580)" d="M216.343 574.446 Q212.732 574.446 210.903 578.011 Q209.098 581.552 209.098 588.682 Q209.098 595.788 210.903 599.353 Q212.732 602.895 216.343 602.895 Q219.977 602.895 221.783 599.353 Q223.611 595.788 223.611 588.682 Q223.611 581.552 221.783 578.011 Q219.977 574.446 216.343 574.446 M216.343 570.742 Q222.153 570.742 225.209 575.349 Q228.287 579.932 228.287 588.682 Q228.287 597.409 225.209 602.015 Q222.153 606.599 216.343 606.599 Q210.533 606.599 207.454 602.015 Q204.399 597.409 204.399 588.682 Q204.399 579.932 207.454 575.349 Q210.533 570.742 216.343 570.742 Z" fill="#000000" fill-rule="evenodd" fill-opacity="1"></path><path clip-path="url(#clip580)" d="M130.024 188.419 Q133.38 189.136 135.255 191.405 Q137.154 193.673 137.154 197.007 Q137.154 202.122 133.635 204.923 Q130.117 207.724 123.635 207.724 Q121.459 207.724 119.144 207.284 Q116.853 206.868 114.399 206.011 L114.399 201.497 Q116.343 202.632 118.658 203.21 Q120.973 203.789 123.496 203.789 Q127.894 203.789 130.186 202.053 Q132.501 200.317 132.501 197.007 Q132.501 193.951 130.348 192.238 Q128.218 190.502 124.399 190.502 L120.371 190.502 L120.371 186.66 L124.584 186.66 Q128.033 186.66 129.862 185.294 Q131.691 183.905 131.691 181.312 Q131.691 178.65 129.792 177.238 Q127.917 175.803 124.399 175.803 Q122.478 175.803 120.279 176.22 Q118.08 176.636 115.441 177.516 L115.441 173.349 Q118.103 172.609 120.418 172.238 Q122.755 171.868 124.816 171.868 Q130.14 171.868 133.242 174.299 Q136.343 176.706 136.343 180.826 Q136.343 183.697 134.7 185.687 Q133.056 187.655 130.024 188.419 Z" fill="#000000" fill-rule="evenodd" fill-opacity="1"></path><path clip-path="url(#clip580)" d="M156.019 175.572 Q152.408 175.572 150.579 179.136 Q148.774 182.678 148.774 189.808 Q148.774 196.914 150.579 200.479 Q152.408 204.021 156.019 204.021 Q159.653 204.021 161.459 200.479 Q163.288 196.914 163.288 189.808 Q163.288 182.678 161.459 179.136 Q159.653 175.572 156.019 175.572 M156.019 171.868 Q161.829 171.868 164.885 176.474 Q167.964 181.058 167.964 189.808 Q167.964 198.535 164.885 203.141 Q161.829 207.724 156.019 207.724 Q150.209 207.724 147.13 203.141 Q144.075 198.535 144.075 189.808 Q144.075 181.058 147.13 176.474 Q150.209 171.868 156.019 171.868 Z" fill="#000000" fill-rule="evenodd" fill-opacity="1"></path><path clip-path="url(#clip580)" d="M186.181 175.572 Q182.57 175.572 180.741 179.136 Q178.936 182.678 178.936 189.808 Q178.936 196.914 180.741 200.479 Q182.57 204.021 186.181 204.021 Q189.815 204.021 191.621 200.479 Q193.45 196.914 193.45 189.808 Q193.45 182.678 191.621 179.136 Q189.815 175.572 186.181 175.572 M186.181 171.868 Q191.991 171.868 195.047 176.474 Q198.125 181.058 198.125 189.808 Q198.125 198.535 195.047 203.141 Q191.991 207.724 186.181 207.724 Q180.371 207.724 177.292 203.141 Q174.237 198.535 174.237 189.808 Q174.237 181.058 177.292 176.474 Q180.371 171.868 186.181 171.868 Z" fill="#000000" fill-rule="evenodd" fill-opacity="1"></path><path clip-path="url(#clip580)" d="M216.343 175.572 Q212.732 175.572 210.903 179.136 Q209.098 182.678 209.098 189.808 Q209.098 196.914 210.903 200.479 Q212.732 204.021 216.343 204.021 Q219.977 204.021 221.783 200.479 Q223.611 196.914 223.611 189.808 Q223.611 182.678 221.783 179.136 Q219.977 175.572 216.343 175.572 M216.343 171.868 Q222.153 171.868 225.209 176.474 Q228.287 181.058 228.287 189.808 Q228.287 198.535 225.209 203.141 Q222.153 207.724 216.343 207.724 Q210.533 207.724 207.454 203.141 Q204.399 198.535 204.399 189.808 Q204.399 181.058 207.454 176.474 Q210.533 171.868 216.343 171.868 Z" fill="#000000" fill-rule="evenodd" fill-opacity="1"></path><path clip-path="url(#clip580)" d="M16.4842 1161.33 L16.4842 1131.29 L21.895 1131.29 L21.895 1154.9 L35.9632 1154.9 L35.9632 1132.27 L41.3741 1132.27 L41.3741 1154.9 L58.5933 1154.9 L58.5933 1130.71 L64.0042 1130.71 L64.0042 1161.33 L16.4842 1161.33 Z" fill="#000000" fill-rule="evenodd" fill-opacity="1"></path><path clip-path="url(#clip580)" d="M42.4881 1090.77 L64.0042 1090.77 L64.0042 1096.62 L42.679 1096.62 Q37.6183 1096.62 35.1038 1098.6 Q32.5894 1100.57 32.5894 1104.52 Q32.5894 1109.26 35.6131 1112 Q38.6368 1114.73 43.8567 1114.73 L64.0042 1114.73 L64.0042 1120.62 L28.3562 1120.62 L28.3562 1114.73 L33.8944 1114.73 Q30.6797 1112.63 29.0883 1109.8 Q27.4968 1106.94 27.4968 1103.21 Q27.4968 1097.07 31.3163 1093.92 Q35.1038 1090.77 42.4881 1090.77 Z" fill="#000000" fill-rule="evenodd" fill-opacity="1"></path><path clip-path="url(#clip580)" d="M44.7161 1048.6 L47.5806 1048.6 L47.5806 1075.52 Q53.6281 1075.14 56.8109 1071.89 Q59.9619 1068.62 59.9619 1062.79 Q59.9619 1059.42 59.1344 1056.27 Q58.3069 1053.08 56.6518 1049.96 L62.1899 1049.96 Q63.5267 1053.11 64.227 1056.42 Q64.9272 1059.74 64.9272 1063.14 Q64.9272 1071.67 59.9619 1076.67 Q54.9967 1081.63 46.5303 1081.63 Q37.7774 1081.63 32.6531 1076.92 Q27.4968 1072.18 27.4968 1064.16 Q27.4968 1056.97 32.1438 1052.8 Q36.7589 1048.6 44.7161 1048.6 M42.9973 1054.45 Q38.1912 1054.52 35.3266 1057.16 Q32.4621 1059.77 32.4621 1064.1 Q32.4621 1069 35.2312 1071.96 Q38.0002 1074.89 43.0292 1075.33 L42.9973 1054.45 Z" fill="#000000" fill-rule="evenodd" fill-opacity="1"></path><path clip-path="url(#clip580)" d="M33.8307 1018.33 Q33.2578 1019.31 33.0032 1020.49 Q32.7167 1021.64 32.7167 1023.04 Q32.7167 1028 35.9632 1030.68 Q39.1779 1033.32 45.2253 1033.32 L64.0042 1033.32 L64.0042 1039.21 L28.3562 1039.21 L28.3562 1033.32 L33.8944 1033.32 Q30.6479 1031.47 29.0883 1028.51 Q27.4968 1025.55 27.4968 1021.32 Q27.4968 1020.71 27.5923 1019.98 Q27.656 1019.25 27.8151 1018.36 L33.8307 1018.33 Z" fill="#000000" fill-rule="evenodd" fill-opacity="1"></path><path clip-path="url(#clip580)" d="M45.7664 989.871 Q39.4007 989.871 35.8996 992.513 Q32.3984 995.123 32.3984 999.866 Q32.3984 1004.58 35.8996 1007.22 Q39.4007 1009.83 45.7664 1009.83 Q52.1003 1009.83 55.6014 1007.22 Q59.1026 1004.58 59.1026 999.866 Q59.1026 995.123 55.6014 992.513 Q52.1003 989.871 45.7664 989.871 M59.58 984.015 Q68.683 984.015 73.1071 988.057 Q77.5631 992.099 77.5631 1000.44 Q77.5631 1003.53 77.0857 1006.26 Q76.6401 1009 75.6852 1011.58 L69.9879 1011.58 Q71.3884 1009 72.0568 1006.49 Q72.7252 1003.97 72.7252 1001.36 Q72.7252 995.601 69.7015 992.736 Q66.7096 989.871 60.6303 989.871 L57.7339 989.871 Q60.885 991.686 62.4446 994.518 Q64.0042 997.351 64.0042 1001.3 Q64.0042 1007.85 59.0071 1011.86 Q54.01 1015.88 45.7664 1015.88 Q37.491 1015.88 32.4939 1011.86 Q27.4968 1007.85 27.4968 1001.3 Q27.4968 997.351 29.0564 994.518 Q30.616 991.686 33.7671 989.871 L28.3562 989.871 L28.3562 984.015 L59.58 984.015 Z" fill="#000000" fill-rule="evenodd" fill-opacity="1"></path><path clip-path="url(#clip580)" d="M67.3143 957.12 Q73.68 959.602 75.6216 961.958 Q77.5631 964.313 77.5631 968.26 L77.5631 972.939 L72.6615 972.939 L72.6615 969.501 Q72.6615 967.082 71.5157 965.745 Q70.3699 964.409 66.1048 962.785 L63.4312 961.735 L28.3562 976.153 L28.3562 969.947 L56.238 958.807 L28.3562 947.667 L28.3562 941.46 L67.3143 957.12 Z" fill="#000000" fill-rule="evenodd" fill-opacity="1"></path><path clip-path="url(#clip580)" d="M21.7677 905.971 L39.6235 905.971 L39.6235 897.887 Q39.6235 893.399 37.3 890.948 Q34.9765 888.498 30.6797 888.498 Q26.4147 888.498 24.0912 890.948 Q21.7677 893.399 21.7677 897.887 L21.7677 905.971 M16.4842 912.401 L16.4842 897.887 Q16.4842 889.898 20.1126 885.824 Q23.7092 881.718 30.6797 881.718 Q37.7138 881.718 41.3104 885.824 Q44.907 889.898 44.907 897.887 L44.907 905.971 L64.0042 905.971 L64.0042 912.401 L16.4842 912.401 Z" fill="#000000" fill-rule="evenodd" fill-opacity="1"></path><path clip-path="url(#clip580)" d="M33.8307 853.836 Q33.2578 854.823 33.0032 856.001 Q32.7167 857.146 32.7167 858.547 Q32.7167 863.512 35.9632 866.186 Q39.1779 868.827 45.2253 868.827 L64.0042 868.827 L64.0042 874.716 L28.3562 874.716 L28.3562 868.827 L33.8944 868.827 Q30.6479 866.981 29.0883 864.021 Q27.4968 861.061 27.4968 856.828 Q27.4968 856.223 27.5923 855.491 Q27.656 854.759 27.8151 853.868 L33.8307 853.836 Z" fill="#000000" fill-rule="evenodd" fill-opacity="1"></path><path clip-path="url(#clip580)" d="M32.4621 835.312 Q32.4621 840.023 36.1542 842.76 Q39.8145 845.497 46.212 845.497 Q52.6095 845.497 56.3017 842.792 Q59.9619 840.055 59.9619 835.312 Q59.9619 830.633 56.2698 827.896 Q52.5777 825.159 46.212 825.159 Q39.8781 825.159 36.186 827.896 Q32.4621 830.633 32.4621 835.312 M27.4968 835.312 Q27.4968 827.673 32.4621 823.313 Q37.4273 818.952 46.212 818.952 Q54.9649 818.952 59.9619 823.313 Q64.9272 827.673 64.9272 835.312 Q64.9272 842.983 59.9619 847.343 Q54.9649 851.672 46.212 851.672 Q37.4273 851.672 32.4621 847.343 Q27.4968 842.983 27.4968 835.312 Z" fill="#000000" fill-rule="evenodd" fill-opacity="1"></path><path clip-path="url(#clip580)" d="M33.7671 785.787 L14.479 785.787 L14.479 779.93 L64.0042 779.93 L64.0042 785.787 L58.657 785.787 Q61.8398 787.633 63.3994 790.466 Q64.9272 793.267 64.9272 797.213 Q64.9272 803.674 59.771 807.749 Q54.6147 811.791 46.212 811.791 Q37.8093 811.791 32.6531 807.749 Q27.4968 803.674 27.4968 797.213 Q27.4968 793.267 29.0564 790.466 Q30.5842 787.633 33.7671 785.787 M46.212 805.743 Q52.6732 805.743 56.3653 803.102 Q60.0256 800.428 60.0256 795.781 Q60.0256 791.134 56.3653 788.46 Q52.6732 785.787 46.212 785.787 Q39.7508 785.787 36.0905 788.46 Q32.3984 791.134 32.3984 795.781 Q32.3984 800.428 36.0905 803.102 Q39.7508 805.743 46.212 805.743 Z" fill="#000000" fill-rule="evenodd" fill-opacity="1"></path><path clip-path="url(#clip580)" d="M49.9359 768.472 L28.3562 768.472 L28.3562 762.616 L49.7131 762.616 Q54.7739 762.616 57.3202 760.642 Q59.8346 758.669 59.8346 754.722 Q59.8346 749.98 56.8109 747.243 Q53.7872 744.473 48.5673 744.473 L28.3562 744.473 L28.3562 738.617 L64.0042 738.617 L64.0042 744.473 L58.5296 744.473 Q61.7762 746.606 63.3676 749.439 Q64.9272 752.24 64.9272 755.964 Q64.9272 762.106 61.1078 765.289 Q57.2883 768.472 49.9359 768.472 M27.4968 753.736 L27.4968 753.736 Z" fill="#000000" fill-rule="evenodd" fill-opacity="1"></path><path clip-path="url(#clip580)" d="M29.7248 700.9 L35.1993 700.9 Q33.8307 703.383 33.1623 705.897 Q32.4621 708.38 32.4621 710.926 Q32.4621 716.623 36.0905 719.774 Q39.6872 722.926 46.212 722.926 Q52.7369 722.926 56.3653 719.774 Q59.9619 716.623 59.9619 710.926 Q59.9619 708.38 59.2935 705.897 Q58.5933 703.383 57.2247 700.9 L62.6355 700.9 Q63.7814 703.351 64.3543 705.993 Q64.9272 708.603 64.9272 711.563 Q64.9272 719.615 59.8664 724.358 Q54.8057 729.1 46.212 729.1 Q37.491 729.1 32.4939 724.326 Q27.4968 719.52 27.4968 711.181 Q27.4968 708.475 28.0697 705.897 Q28.6108 703.319 29.7248 700.9 Z" fill="#000000" fill-rule="evenodd" fill-opacity="1"></path><path clip-path="url(#clip580)" d="M18.2347 684.922 L28.3562 684.922 L28.3562 672.859 L32.9077 672.859 L32.9077 684.922 L52.2594 684.922 Q56.6199 684.922 57.8613 683.745 Q59.1026 682.535 59.1026 678.875 L59.1026 672.859 L64.0042 672.859 L64.0042 678.875 Q64.0042 685.654 61.4897 688.232 Q58.9434 690.811 52.2594 690.811 L32.9077 690.811 L32.9077 695.107 L28.3562 695.107 L28.3562 690.811 L18.2347 690.811 L18.2347 684.922 Z" fill="#000000" fill-rule="evenodd" fill-opacity="1"></path><path clip-path="url(#clip580)" d="M28.3562 665.157 L28.3562 659.3 L64.0042 659.3 L64.0042 665.157 L28.3562 665.157 M14.479 665.157 L14.479 659.3 L21.895 659.3 L21.895 665.157 L14.479 665.157 Z" fill="#000000" fill-rule="evenodd" fill-opacity="1"></path><path clip-path="url(#clip580)" d="M32.4621 633.233 Q32.4621 637.943 36.1542 640.681 Q39.8145 643.418 46.212 643.418 Q52.6095 643.418 56.3017 640.712 Q59.9619 637.975 59.9619 633.233 Q59.9619 628.554 56.2698 625.817 Q52.5777 623.079 46.212 623.079 Q39.8781 623.079 36.186 625.817 Q32.4621 628.554 32.4621 633.233 M27.4968 633.233 Q27.4968 625.594 32.4621 621.233 Q37.4273 616.873 46.212 616.873 Q54.9649 616.873 59.9619 621.233 Q64.9272 625.594 64.9272 633.233 Q64.9272 640.903 59.9619 645.264 Q54.9649 649.593 46.212 649.593 Q37.4273 649.593 32.4621 645.264 Q27.4968 640.903 27.4968 633.233 Z" fill="#000000" fill-rule="evenodd" fill-opacity="1"></path><path clip-path="url(#clip580)" d="M42.4881 577.533 L64.0042 577.533 L64.0042 583.389 L42.679 583.389 Q37.6183 583.389 35.1038 585.363 Q32.5894 587.336 32.5894 591.283 Q32.5894 596.025 35.6131 598.762 Q38.6368 601.5 43.8567 601.5 L64.0042 601.5 L64.0042 607.388 L28.3562 607.388 L28.3562 601.5 L33.8944 601.5 Q30.6797 599.399 29.0883 596.566 Q27.4968 593.702 27.4968 589.978 Q27.4968 583.835 31.3163 580.684 Q35.1038 577.533 42.4881 577.533 Z" fill="#000000" fill-rule="evenodd" fill-opacity="1"></path><path clip-path="url(#clip580)" d="M14.5426 531.063 Q21.8632 535.328 29.0246 537.397 Q36.186 539.466 43.5384 539.466 Q50.8908 539.466 58.1159 537.397 Q65.3091 535.296 72.5979 531.063 L72.5979 536.156 Q65.1182 540.93 57.8931 543.317 Q50.668 545.672 43.5384 545.672 Q36.4406 545.672 29.2474 543.317 Q22.0542 540.962 14.5426 536.156 L14.5426 531.063 Z" fill="#000000" fill-rule="evenodd" fill-opacity="1"></path><path clip-path="url(#clip580)" d="M16.4842 519.446 L16.4842 509.865 L48.8219 497.739 L16.4842 485.548 L16.4842 475.968 L64.0042 475.968 L64.0042 482.238 L22.277 482.238 L54.8694 494.492 L54.8694 500.953 L22.277 513.207 L64.0042 513.207 L64.0042 519.446 L16.4842 519.446 Z" fill="#000000" fill-rule="evenodd" fill-opacity="1"></path><path clip-path="url(#clip580)" d="M16.4842 467.438 L16.4842 460.945 L56.6518 450.951 L16.4842 440.988 L16.4842 433.763 L56.6518 423.769 L16.4842 413.807 L16.4842 407.282 L64.0042 419.218 L64.0042 427.302 L22.7544 437.328 L64.0042 447.45 L64.0042 455.534 L16.4842 467.438 Z" fill="#000000" fill-rule="evenodd" fill-opacity="1"></path><path clip-path="url(#clip580)" d="M14.5426 399.93 L14.5426 394.837 Q22.0542 390.063 29.2474 387.707 Q36.4406 385.32 43.5384 385.32 Q50.668 385.32 57.8931 387.707 Q65.1182 390.063 72.5979 394.837 L72.5979 399.93 Q65.3091 395.696 58.1159 393.627 Q50.8908 391.527 43.5384 391.527 Q36.186 391.527 29.0246 393.627 Q21.8632 395.696 14.5426 399.93 Z" fill="#000000" fill-rule="evenodd" fill-opacity="1"></path><path clip-path="url(#clip580)" d="M541.402 14.0809 L541.402 22.0612 Q536.743 19.8332 532.611 18.7395 Q528.479 17.6457 524.631 17.6457 Q517.947 17.6457 514.301 20.2383 Q510.696 22.8309 510.696 27.611 Q510.696 31.6214 513.086 33.6873 Q515.517 35.7128 522.241 36.9686 L527.183 37.9813 Q536.338 39.7232 540.673 44.1387 Q545.048 48.5136 545.048 55.8863 Q545.048 64.6767 539.133 69.2137 Q533.26 73.7508 521.877 73.7508 Q517.583 73.7508 512.721 72.7785 Q507.901 71.8063 502.716 69.9024 L502.716 61.4765 Q507.698 64.2716 512.478 65.6895 Q517.258 67.1073 521.877 67.1073 Q528.885 67.1073 532.692 64.3527 Q536.5 61.598 536.5 56.4939 Q536.5 52.0379 533.746 49.5264 Q531.032 47.0148 524.793 45.759 L519.811 44.7868 Q510.656 42.9639 506.564 39.075 Q502.473 35.1862 502.473 28.2591 Q502.473 20.2383 508.103 15.6203 Q513.775 11.0023 523.699 11.0023 Q527.953 11.0023 532.368 11.7719 Q536.784 12.5416 541.402 14.0809 Z" fill="#000000" fill-rule="evenodd" fill-opacity="1"></path><path clip-path="url(#clip580)" d="M596.292 48.0275 L596.292 51.6733 L562.021 51.6733 Q562.507 59.3701 566.639 63.421 Q570.811 67.4314 578.225 67.4314 Q582.519 67.4314 586.529 66.3781 Q590.58 65.3249 594.55 63.2184 L594.55 70.267 Q590.539 71.9684 586.326 72.8596 Q582.113 73.7508 577.779 73.7508 Q566.923 73.7508 560.563 67.4314 Q554.243 61.1119 554.243 50.3365 Q554.243 39.1965 560.239 32.6746 Q566.274 26.1121 576.483 26.1121 Q585.638 26.1121 590.944 32.0264 Q596.292 37.9003 596.292 48.0275 M588.838 45.84 Q588.757 39.7232 585.395 36.0774 Q582.073 32.4315 576.564 32.4315 Q570.325 32.4315 566.558 35.9558 Q562.831 39.4801 562.264 45.8805 L588.838 45.84 Z" fill="#000000" fill-rule="evenodd" fill-opacity="1"></path><path clip-path="url(#clip580)" d="M638.381 49.3643 Q638.381 41.2625 635.018 36.8065 Q631.697 32.3505 625.661 32.3505 Q619.665 32.3505 616.303 36.8065 Q612.981 41.2625 612.981 49.3643 Q612.981 57.4256 616.303 61.8816 Q619.665 66.3376 625.661 66.3376 Q631.697 66.3376 635.018 61.8816 Q638.381 57.4256 638.381 49.3643 M645.834 66.9452 Q645.834 78.5308 640.69 84.1616 Q635.545 89.8329 624.932 89.8329 Q621.002 89.8329 617.518 89.2252 Q614.035 88.6581 610.753 87.4428 L610.753 80.1917 Q614.035 81.9741 617.235 82.8248 Q620.435 83.6755 623.757 83.6755 Q631.089 83.6755 634.735 79.8271 Q638.381 76.0193 638.381 68.282 L638.381 64.5957 Q636.072 68.6061 632.466 70.5911 Q628.861 72.576 623.838 72.576 Q615.493 72.576 610.389 66.2161 Q605.285 59.8562 605.285 49.3643 Q605.285 38.832 610.389 32.472 Q615.493 26.1121 623.838 26.1121 Q628.861 26.1121 632.466 28.0971 Q636.072 30.082 638.381 34.0924 L638.381 27.2059 L645.834 27.2059 L645.834 66.9452 Z" fill="#000000" fill-rule="evenodd" fill-opacity="1"></path><path clip-path="url(#clip580)" d="M696.511 35.9153 Q699.306 30.8922 703.195 28.5022 Q707.084 26.1121 712.35 26.1121 Q719.439 26.1121 723.287 31.0947 Q727.136 36.0368 727.136 45.1919 L727.136 72.576 L719.642 72.576 L719.642 45.4349 Q719.642 38.913 717.333 35.7533 Q715.024 32.5936 710.284 32.5936 Q704.491 32.5936 701.129 36.4419 Q697.767 40.2903 697.767 46.9338 L697.767 72.576 L690.273 72.576 L690.273 45.4349 Q690.273 38.8725 687.964 35.7533 Q685.655 32.5936 680.834 32.5936 Q675.122 32.5936 671.76 36.4824 Q668.398 40.3308 668.398 46.9338 L668.398 72.576 L660.904 72.576 L660.904 27.2059 L668.398 27.2059 L668.398 34.2544 Q670.95 30.082 674.515 28.0971 Q678.079 26.1121 682.981 26.1121 Q687.923 26.1121 691.366 28.6237 Q694.85 31.1352 696.511 35.9153 Z" fill="#000000" fill-rule="evenodd" fill-opacity="1"></path><path clip-path="url(#clip580)" d="M780.81 48.0275 L780.81 51.6733 L746.54 51.6733 Q747.026 59.3701 751.158 63.421 Q755.33 67.4314 762.743 67.4314 Q767.037 67.4314 771.048 66.3781 Q775.099 65.3249 779.068 63.2184 L779.068 70.267 Q775.058 71.9684 770.845 72.8596 Q766.632 73.7508 762.298 73.7508 Q751.441 73.7508 745.081 67.4314 Q738.762 61.1119 738.762 50.3365 Q738.762 39.1965 744.757 32.6746 Q750.793 26.1121 761.001 26.1121 Q770.156 26.1121 775.463 32.0264 Q780.81 37.9003 780.81 48.0275 M773.357 45.84 Q773.276 39.7232 769.913 36.0774 Q766.592 32.4315 761.082 32.4315 Q754.844 32.4315 751.077 35.9558 Q747.35 39.4801 746.783 45.8805 L773.357 45.84 Z" fill="#000000" fill-rule="evenodd" fill-opacity="1"></path><path clip-path="url(#clip580)" d="M830.758 45.1919 L830.758 72.576 L823.304 72.576 L823.304 45.4349 Q823.304 38.994 820.793 35.7938 Q818.281 32.5936 813.258 32.5936 Q807.222 32.5936 803.738 36.4419 Q800.255 40.2903 800.255 46.9338 L800.255 72.576 L792.76 72.576 L792.76 27.2059 L800.255 27.2059 L800.255 34.2544 Q802.928 30.163 806.534 28.1376 Q810.179 26.1121 814.919 26.1121 Q822.737 26.1121 826.748 30.9732 Q830.758 35.7938 830.758 45.1919 Z" fill="#000000" fill-rule="evenodd" fill-opacity="1"></path><path clip-path="url(#clip580)" d="M852.997 14.324 L852.997 27.2059 L868.35 27.2059 L868.35 32.9987 L852.997 32.9987 L852.997 57.6282 Q852.997 63.1779 854.496 64.7578 Q856.036 66.3376 860.694 66.3376 L868.35 66.3376 L868.35 72.576 L860.694 72.576 Q852.066 72.576 848.784 69.3758 Q845.503 66.1351 845.503 57.6282 L845.503 32.9987 L840.035 32.9987 L840.035 27.2059 L845.503 27.2059 L845.503 14.324 L852.997 14.324 Z" fill="#000000" fill-rule="evenodd" fill-opacity="1"></path><path clip-path="url(#clip580)" d="M916.961 48.0275 L916.961 51.6733 L882.691 51.6733 Q883.177 59.3701 887.309 63.421 Q891.481 67.4314 898.894 67.4314 Q903.188 67.4314 907.199 66.3781 Q911.249 65.3249 915.219 63.2184 L915.219 70.267 Q911.209 71.9684 906.996 72.8596 Q902.783 73.7508 898.449 73.7508 Q887.592 73.7508 881.232 67.4314 Q874.913 61.1119 874.913 50.3365 Q874.913 39.1965 880.908 32.6746 Q886.944 26.1121 897.152 26.1121 Q906.307 26.1121 911.614 32.0264 Q916.961 37.9003 916.961 48.0275 M909.508 45.84 Q909.427 39.7232 906.064 36.0774 Q902.743 32.4315 897.233 32.4315 Q890.995 32.4315 887.228 35.9558 Q883.501 39.4801 882.934 45.8805 L909.508 45.84 Z" fill="#000000" fill-rule="evenodd" fill-opacity="1"></path><path clip-path="url(#clip580)" d="M959.05 34.0924 L959.05 9.54393 L966.504 9.54393 L966.504 72.576 L959.05 72.576 L959.05 65.7705 Q956.701 69.8214 953.095 71.8063 Q949.53 73.7508 944.507 73.7508 Q936.284 73.7508 931.099 67.1883 Q925.954 60.6258 925.954 49.9314 Q925.954 39.2371 931.099 32.6746 Q936.284 26.1121 944.507 26.1121 Q949.53 26.1121 953.095 28.0971 Q956.701 30.0415 959.05 34.0924 M933.651 49.9314 Q933.651 58.1548 937.013 62.8538 Q940.416 67.5124 946.33 67.5124 Q952.245 67.5124 955.647 62.8538 Q959.05 58.1548 959.05 49.9314 Q959.05 41.7081 955.647 37.0496 Q952.245 32.3505 946.33 32.3505 Q940.416 32.3505 937.013 37.0496 Q933.651 41.7081 933.651 49.9314 Z" fill="#000000" fill-rule="evenodd" fill-opacity="1"></path><path clip-path="url(#clip580)" d="M1008.55 12.096 L1046.79 12.096 L1046.79 18.9825 L1016.73 18.9825 L1016.73 36.8875 L1045.54 36.8875 L1045.54 43.7741 L1016.73 43.7741 L1016.73 65.6895 L1047.52 65.6895 L1047.52 72.576 L1008.55 72.576 L1008.55 12.096 Z" fill="#000000" fill-rule="evenodd" fill-opacity="1"></path><path clip-path="url(#clip580)" d="M1098.36 45.1919 L1098.36 72.576 L1090.91 72.576 L1090.91 45.4349 Q1090.91 38.994 1088.4 35.7938 Q1085.88 32.5936 1080.86 32.5936 Q1074.82 32.5936 1071.34 36.4419 Q1067.86 40.2903 1067.86 46.9338 L1067.86 72.576 L1060.36 72.576 L1060.36 27.2059 L1067.86 27.2059 L1067.86 34.2544 Q1070.53 30.163 1074.14 28.1376 Q1077.78 26.1121 1082.52 26.1121 Q1090.34 26.1121 1094.35 30.9732 Q1098.36 35.7938 1098.36 45.1919 Z" fill="#000000" fill-rule="evenodd" fill-opacity="1"></path><path clip-path="url(#clip580)" d="M1152.04 48.0275 L1152.04 51.6733 L1117.76 51.6733 Q1118.25 59.3701 1122.38 63.421 Q1126.55 67.4314 1133.97 67.4314 Q1138.26 67.4314 1142.27 66.3781 Q1146.32 65.3249 1150.29 63.2184 L1150.29 70.267 Q1146.28 71.9684 1142.07 72.8596 Q1137.86 73.7508 1133.52 73.7508 Q1122.67 73.7508 1116.31 67.4314 Q1109.99 61.1119 1109.99 50.3365 Q1109.99 39.1965 1115.98 32.6746 Q1122.02 26.1121 1132.23 26.1121 Q1141.38 26.1121 1146.69 32.0264 Q1152.04 37.9003 1152.04 48.0275 M1144.58 45.84 Q1144.5 39.7232 1141.14 36.0774 Q1137.82 32.4315 1132.31 32.4315 Q1126.07 32.4315 1122.3 35.9558 Q1118.57 39.4801 1118.01 45.8805 L1144.58 45.84 Z" fill="#000000" fill-rule="evenodd" fill-opacity="1"></path><path clip-path="url(#clip580)" d="M1190.56 34.1734 Q1189.3 33.4443 1187.8 33.1202 Q1186.35 32.7556 1184.56 32.7556 Q1178.24 32.7556 1174.84 36.8875 Q1171.48 40.9789 1171.48 48.6757 L1171.48 72.576 L1163.99 72.576 L1163.99 27.2059 L1171.48 27.2059 L1171.48 34.2544 Q1173.83 30.1225 1177.6 28.1376 Q1181.36 26.1121 1186.75 26.1121 Q1187.52 26.1121 1188.45 26.2337 Q1189.38 26.3147 1190.52 26.5172 L1190.56 34.1734 Z" fill="#000000" fill-rule="evenodd" fill-opacity="1"></path><path clip-path="url(#clip580)" d="M1226.77 49.3643 Q1226.77 41.2625 1223.41 36.8065 Q1220.09 32.3505 1214.05 32.3505 Q1208.06 32.3505 1204.7 36.8065 Q1201.38 41.2625 1201.38 49.3643 Q1201.38 57.4256 1204.7 61.8816 Q1208.06 66.3376 1214.05 66.3376 Q1220.09 66.3376 1223.41 61.8816 Q1226.77 57.4256 1226.77 49.3643 M1234.23 66.9452 Q1234.23 78.5308 1229.08 84.1616 Q1223.94 89.8329 1213.33 89.8329 Q1209.4 89.8329 1205.91 89.2252 Q1202.43 88.6581 1199.15 87.4428 L1199.15 80.1917 Q1202.43 81.9741 1205.63 82.8248 Q1208.83 83.6755 1212.15 83.6755 Q1219.48 83.6755 1223.13 79.8271 Q1226.77 76.0193 1226.77 68.282 L1226.77 64.5957 Q1224.47 68.6061 1220.86 70.5911 Q1217.25 72.576 1212.23 72.576 Q1203.89 72.576 1198.78 66.2161 Q1193.68 59.8562 1193.68 49.3643 Q1193.68 38.832 1198.78 32.472 Q1203.89 26.1121 1212.23 26.1121 Q1217.25 26.1121 1220.86 28.0971 Q1224.47 30.082 1226.77 34.0924 L1226.77 27.2059 L1234.23 27.2059 L1234.23 66.9452 Z" fill="#000000" fill-rule="evenodd" fill-opacity="1"></path><path clip-path="url(#clip580)" d="M1268.46 76.7889 Q1265.3 84.8907 1262.3 87.3618 Q1259.3 89.8329 1254.28 89.8329 L1248.33 89.8329 L1248.33 83.5945 L1252.7 83.5945 Q1255.78 83.5945 1257.48 82.1361 Q1259.18 80.6778 1261.25 75.2496 L1262.58 71.8468 L1244.23 27.2059 L1252.13 27.2059 L1266.31 62.6918 L1280.49 27.2059 L1288.39 27.2059 L1268.46 76.7889 Z" fill="#000000" fill-rule="evenodd" fill-opacity="1"></path><path clip-path="url(#clip580)" d="M1333.56 18.8205 L1333.56 41.5461 L1343.85 41.5461 Q1349.56 41.5461 1352.68 38.5889 Q1355.8 35.6318 1355.8 30.163 Q1355.8 24.7348 1352.68 21.7777 Q1349.56 18.8205 1343.85 18.8205 L1333.56 18.8205 M1325.37 12.096 L1343.85 12.096 Q1354.01 12.096 1359.2 16.714 Q1364.42 21.2916 1364.42 30.163 Q1364.42 39.1155 1359.2 43.6931 Q1354.01 48.2706 1343.85 48.2706 L1333.56 48.2706 L1333.56 72.576 L1325.37 72.576 L1325.37 12.096 Z" fill="#000000" fill-rule="evenodd" fill-opacity="1"></path><path clip-path="url(#clip580)" d="M1399.91 34.1734 Q1398.65 33.4443 1397.16 33.1202 Q1395.7 32.7556 1393.91 32.7556 Q1387.6 32.7556 1384.19 36.8875 Q1380.83 40.9789 1380.83 48.6757 L1380.83 72.576 L1373.34 72.576 L1373.34 27.2059 L1380.83 27.2059 L1380.83 34.2544 Q1383.18 30.1225 1386.95 28.1376 Q1390.71 26.1121 1396.1 26.1121 Q1396.87 26.1121 1397.8 26.2337 Q1398.74 26.3147 1399.87 26.5172 L1399.91 34.1734 Z" fill="#000000" fill-rule="evenodd" fill-opacity="1"></path><path clip-path="url(#clip580)" d="M1423.49 32.4315 Q1417.49 32.4315 1414.01 37.1306 Q1410.52 41.7891 1410.52 49.9314 Q1410.52 58.0738 1413.97 62.7728 Q1417.45 67.4314 1423.49 67.4314 Q1429.44 67.4314 1432.92 62.7323 Q1436.41 58.0333 1436.41 49.9314 Q1436.41 41.8701 1432.92 37.1711 Q1429.44 32.4315 1423.49 32.4315 M1423.49 26.1121 Q1433.21 26.1121 1438.76 32.4315 Q1444.31 38.7509 1444.31 49.9314 Q1444.31 61.0714 1438.76 67.4314 Q1433.21 73.7508 1423.49 73.7508 Q1413.72 73.7508 1408.17 67.4314 Q1402.66 61.0714 1402.66 49.9314 Q1402.66 38.7509 1408.17 32.4315 Q1413.72 26.1121 1423.49 26.1121 Z" fill="#000000" fill-rule="evenodd" fill-opacity="1"></path><path clip-path="url(#clip580)" d="M1486.52 34.0924 L1486.52 9.54393 L1493.97 9.54393 L1493.97 72.576 L1486.52 72.576 L1486.52 65.7705 Q1484.17 69.8214 1480.56 71.8063 Q1477 73.7508 1471.98 73.7508 Q1463.75 73.7508 1458.57 67.1883 Q1453.42 60.6258 1453.42 49.9314 Q1453.42 39.2371 1458.57 32.6746 Q1463.75 26.1121 1471.98 26.1121 Q1477 26.1121 1480.56 28.0971 Q1484.17 30.0415 1486.52 34.0924 M1461.12 49.9314 Q1461.12 58.1548 1464.48 62.8538 Q1467.88 67.5124 1473.8 67.5124 Q1479.71 67.5124 1483.12 62.8538 Q1486.52 58.1548 1486.52 49.9314 Q1486.52 41.7081 1483.12 37.0496 Q1479.71 32.3505 1473.8 32.3505 Q1467.88 32.3505 1464.48 37.0496 Q1461.12 41.7081 1461.12 49.9314 Z" fill="#000000" fill-rule="evenodd" fill-opacity="1"></path><path clip-path="url(#clip580)" d="M1508.56 54.671 L1508.56 27.2059 L1516.01 27.2059 L1516.01 54.3874 Q1516.01 60.8284 1518.52 64.0691 Q1521.03 67.2693 1526.06 67.2693 Q1532.09 67.2693 1535.57 63.421 Q1539.1 59.5726 1539.1 52.9291 L1539.1 27.2059 L1546.55 27.2059 L1546.55 72.576 L1539.1 72.576 L1539.1 65.6084 Q1536.38 69.7404 1532.78 71.7658 Q1529.21 73.7508 1524.48 73.7508 Q1516.66 73.7508 1512.61 68.8897 Q1508.56 64.0286 1508.56 54.671 M1527.31 26.1121 L1527.31 26.1121 Z" fill="#000000" fill-rule="evenodd" fill-opacity="1"></path><path clip-path="url(#clip580)" d="M1594.56 28.9478 L1594.56 35.9153 Q1591.4 34.1734 1588.2 33.3227 Q1585.04 32.4315 1581.8 32.4315 Q1574.54 32.4315 1570.53 37.0496 Q1566.52 41.6271 1566.52 49.9314 Q1566.52 58.2358 1570.53 62.8538 Q1574.54 67.4314 1581.8 67.4314 Q1585.04 67.4314 1588.2 66.5807 Q1591.4 65.6895 1594.56 63.9476 L1594.56 70.8341 Q1591.44 72.2924 1588.07 73.0216 Q1584.75 73.7508 1580.99 73.7508 Q1570.74 73.7508 1564.7 67.3098 Q1558.66 60.8689 1558.66 49.9314 Q1558.66 38.832 1564.74 32.472 Q1570.86 26.1121 1581.47 26.1121 Q1584.91 26.1121 1588.2 26.8413 Q1591.48 27.5299 1594.56 28.9478 Z" fill="#000000" fill-rule="evenodd" fill-opacity="1"></path><path clip-path="url(#clip580)" d="M1614.89 14.324 L1614.89 27.2059 L1630.24 27.2059 L1630.24 32.9987 L1614.89 32.9987 L1614.89 57.6282 Q1614.89 63.1779 1616.39 64.7578 Q1617.93 66.3376 1622.59 66.3376 L1630.24 66.3376 L1630.24 72.576 L1622.59 72.576 Q1613.96 72.576 1610.68 69.3758 Q1607.4 66.1351 1607.4 57.6282 L1607.4 32.9987 L1601.93 32.9987 L1601.93 27.2059 L1607.4 27.2059 L1607.4 14.324 L1614.89 14.324 Z" fill="#000000" fill-rule="evenodd" fill-opacity="1"></path><path clip-path="url(#clip580)" d="M1640.05 27.2059 L1647.5 27.2059 L1647.5 72.576 L1640.05 72.576 L1640.05 27.2059 M1640.05 9.54393 L1647.5 9.54393 L1647.5 18.9825 L1640.05 18.9825 L1640.05 9.54393 Z" fill="#000000" fill-rule="evenodd" fill-opacity="1"></path><path clip-path="url(#clip580)" d="M1680.68 32.4315 Q1674.68 32.4315 1671.2 37.1306 Q1667.72 41.7891 1667.72 49.9314 Q1667.72 58.0738 1671.16 62.7728 Q1674.64 67.4314 1680.68 67.4314 Q1686.63 67.4314 1690.12 62.7323 Q1693.6 58.0333 1693.6 49.9314 Q1693.6 41.8701 1690.12 37.1711 Q1686.63 32.4315 1680.68 32.4315 M1680.68 26.1121 Q1690.4 26.1121 1695.95 32.4315 Q1701.5 38.7509 1701.5 49.9314 Q1701.5 61.0714 1695.95 67.4314 Q1690.4 73.7508 1680.68 73.7508 Q1670.92 73.7508 1665.37 67.4314 Q1659.86 61.0714 1659.86 49.9314 Q1659.86 38.7509 1665.37 32.4315 Q1670.92 26.1121 1680.68 26.1121 Z" fill="#000000" fill-rule="evenodd" fill-opacity="1"></path><path clip-path="url(#clip580)" d="M1751.57 45.1919 L1751.57 72.576 L1744.12 72.576 L1744.12 45.4349 Q1744.12 38.994 1741.6 35.7938 Q1739.09 32.5936 1734.07 32.5936 Q1728.03 32.5936 1724.55 36.4419 Q1721.07 40.2903 1721.07 46.9338 L1721.07 72.576 L1713.57 72.576 L1713.57 27.2059 L1721.07 27.2059 L1721.07 34.2544 Q1723.74 30.163 1727.34 28.1376 Q1730.99 26.1121 1735.73 26.1121 Q1743.55 26.1121 1747.56 30.9732 Q1751.57 35.7938 1751.57 45.1919 Z" fill="#000000" fill-rule="evenodd" fill-opacity="1"></path><path clip-path="url(#clip580)" d="M1810.71 9.62495 Q1805.28 18.942 1802.65 28.0566 Q1800.02 37.1711 1800.02 46.5287 Q1800.02 55.8863 1802.65 65.0818 Q1805.32 74.2369 1810.71 83.5134 L1804.23 83.5134 Q1798.15 73.9938 1795.12 64.7983 Q1792.12 55.6027 1792.12 46.5287 Q1792.12 37.4952 1795.12 28.3401 Q1798.11 19.1851 1804.23 9.62495 L1810.71 9.62495 Z" fill="#000000" fill-rule="evenodd" fill-opacity="1"></path><path clip-path="url(#clip580)" d="M1825.5 12.096 L1833.68 12.096 L1833.68 36.8875 L1863.41 36.8875 L1863.41 12.096 L1871.6 12.096 L1871.6 72.576 L1863.41 72.576 L1863.41 43.7741 L1833.68 43.7741 L1833.68 72.576 L1825.5 72.576 L1825.5 12.096 Z" fill="#000000" fill-rule="evenodd" fill-opacity="1"></path><path clip-path="url(#clip580)" d="M1905.14 32.4315 Q1899.14 32.4315 1895.66 37.1306 Q1892.18 41.7891 1892.18 49.9314 Q1892.18 58.0738 1895.62 62.7728 Q1899.1 67.4314 1905.14 67.4314 Q1911.09 67.4314 1914.58 62.7323 Q1918.06 58.0333 1918.06 49.9314 Q1918.06 41.8701 1914.58 37.1711 Q1911.09 32.4315 1905.14 32.4315 M1905.14 26.1121 Q1914.86 26.1121 1920.41 32.4315 Q1925.96 38.7509 1925.96 49.9314 Q1925.96 61.0714 1920.41 67.4314 Q1914.86 73.7508 1905.14 73.7508 Q1895.38 73.7508 1889.83 67.4314 Q1884.32 61.0714 1884.32 49.9314 Q1884.32 38.7509 1889.83 32.4315 Q1895.38 26.1121 1905.14 26.1121 Z" fill="#000000" fill-rule="evenodd" fill-opacity="1"></path><path clip-path="url(#clip580)" d="M1937.55 54.671 L1937.55 27.2059 L1945 27.2059 L1945 54.3874 Q1945 60.8284 1947.51 64.0691 Q1950.02 67.2693 1955.05 67.2693 Q1961.08 67.2693 1964.57 63.421 Q1968.09 59.5726 1968.09 52.9291 L1968.09 27.2059 L1975.54 27.2059 L1975.54 72.576 L1968.09 72.576 L1968.09 65.6084 Q1965.38 69.7404 1961.77 71.7658 Q1958.21 73.7508 1953.47 73.7508 Q1945.65 73.7508 1941.6 68.8897 Q1937.55 64.0286 1937.55 54.671 M1956.3 26.1121 L1956.3 26.1121 Z" fill="#000000" fill-rule="evenodd" fill-opacity="1"></path><path clip-path="url(#clip580)" d="M2017.19 34.1734 Q2015.93 33.4443 2014.43 33.1202 Q2012.97 32.7556 2011.19 32.7556 Q2004.87 32.7556 2001.47 36.8875 Q1998.11 40.9789 1998.11 48.6757 L1998.11 72.576 L1990.61 72.576 L1990.61 27.2059 L1998.11 27.2059 L1998.11 34.2544 Q2000.46 30.1225 2004.22 28.1376 Q2007.99 26.1121 2013.38 26.1121 Q2014.15 26.1121 2015.08 26.2337 Q2016.01 26.3147 2017.15 26.5172 L2017.19 34.1734 Z" fill="#000000" fill-rule="evenodd" fill-opacity="1"></path><path clip-path="url(#clip580)" d="M2025.01 9.54393 L2032.46 9.54393 L2032.46 72.576 L2025.01 72.576 L2025.01 9.54393 Z" fill="#000000" fill-rule="evenodd" fill-opacity="1"></path><path clip-path="url(#clip580)" d="M2066.93 76.7889 Q2063.77 84.8907 2060.77 87.3618 Q2057.78 89.8329 2052.75 89.8329 L2046.8 89.8329 L2046.8 83.5945 L2051.17 83.5945 Q2054.25 83.5945 2055.95 82.1361 Q2057.66 80.6778 2059.72 75.2496 L2061.06 71.8468 L2042.71 27.2059 L2050.61 27.2059 L2064.78 62.6918 L2078.96 27.2059 L2086.86 27.2059 L2066.93 76.7889 Z" fill="#000000" fill-rule="evenodd" fill-opacity="1"></path><path clip-path="url(#clip580)" d="M2095.98 9.62495 L2102.46 9.62495 Q2108.53 19.1851 2111.53 28.3401 Q2114.57 37.4952 2114.57 46.5287 Q2114.57 55.6027 2111.53 64.7983 Q2108.53 73.9938 2102.46 83.5134 L2095.98 83.5134 Q2101.36 74.2369 2104 65.0818 Q2106.67 55.8863 2106.67 46.5287 Q2106.67 37.1711 2104 28.0566 Q2101.36 18.942 2095.98 9.62495 Z" fill="#000000" fill-rule="evenodd" fill-opacity="1"></path><path clip-path="url(#clip582)" d="
M323.395 1386.4 L409.058 1386.4 L494.721 1386.4 L580.384 1386.4 L666.048 1386.4 L751.711 1386.4 L837.374 1386.4 L923.037 1386.4 L1008.7 1386.4 L1094.36 1386.4 
  L1180.03 1386.4 L1265.69 1386.4 L1351.35 1386.4 L1437.02 1386.4 L1522.68 1386.4 L1608.34 1386.4 L1694.01 1386.4 L1779.67 1386.4 L1865.33 1386.4 L1951 1386.4 
  L2036.66 1386.4 L2122.32 1386.4 L2207.99 1386.4 L2293.65 1386.4 L2293.65 1386.4 L2207.99 1386.4 L2122.32 1386.4 L2036.66 1386.4 L1951 1386.4 L1865.33 1386.4 
  L1779.67 1386.4 L1694.01 1386.4 L1608.34 1386.4 L1522.68 1386.4 L1437.02 1386.4 L1351.35 1386.4 L1265.69 1386.4 L1180.03 1386.4 L1094.36 1386.4 L1008.7 1386.4 
  L923.037 1386.4 L837.374 1386.4 L751.711 1386.4 L666.048 1386.4 L580.384 1386.4 L494.721 1386.4 L409.058 1386.4 L323.395 1386.4  Z
  " fill="#009af9" fill-rule="evenodd" fill-opacity="1"></path>
<polyline clip-path="url(#clip582)" style="stroke:#009af9; stroke-linecap:round; stroke-linejoin:round; stroke-width:4; stroke-opacity:1; fill:none" points="
  323.395,1386.4 409.058,1386.4 494.721,1386.4 580.384,1386.4 666.048,1386.4 751.711,1386.4 837.374,1386.4 923.037,1386.4 1008.7,1386.4 1094.36,1386.4 
  1180.03,1386.4 1265.69,1386.4 1351.35,1386.4 1437.02,1386.4 1522.68,1386.4 1608.34,1386.4 1694.01,1386.4 1779.67,1386.4 1865.33,1386.4 1951,1386.4 
  2036.66,1386.4 2122.32,1386.4 2207.99,1386.4 2293.65,1386.4 
  "></polyline>
<path clip-path="url(#clip582)" d="
M323.395 1386.4 L409.058 1386.4 L494.721 1386.4 L580.384 1386.4 L666.048 1386.4 L751.711 1386.4 L837.374 1386.4 L923.037 1386.4 L1008.7 1386.4 L1094.36 1386.4 
  L1180.03 1386.4 L1265.69 1386.4 L1351.35 1386.4 L1437.02 1386.4 L1522.68 1386.4 L1608.34 1386.4 L1694.01 1386.4 L1779.67 1386.4 L1865.33 1386.4 L1951 1386.4 
  L2036.66 1386.4 L2122.32 1386.4 L2207.99 1386.4 L2293.65 1386.4 L2293.65 1386.4 L2207.99 1386.4 L2122.32 1386.4 L2036.66 1386.4 L1951 1386.4 L1865.33 1386.4 
  L1779.67 1386.4 L1694.01 1386.4 L1608.34 1386.4 L1522.68 1386.4 L1437.02 1386.4 L1351.35 1386.4 L1265.69 1386.4 L1180.03 1386.4 L1094.36 1386.4 L1008.7 1386.4 
  L923.037 1386.4 L837.374 1386.4 L751.711 1386.4 L666.048 1386.4 L580.384 1386.4 L494.721 1386.4 L409.058 1386.4 L323.395 1386.4  Z
  " fill="#e26f46" fill-rule="evenodd" fill-opacity="1"></path>
<polyline clip-path="url(#clip582)" style="stroke:#e26f46; stroke-linecap:round; stroke-linejoin:round; stroke-width:4; stroke-opacity:1; fill:none" points="
  323.395,1386.4 409.058,1386.4 494.721,1386.4 580.384,1386.4 666.048,1386.4 751.711,1386.4 837.374,1386.4 923.037,1386.4 1008.7,1386.4 1094.36,1386.4 
  1180.03,1386.4 1265.69,1386.4 1351.35,1386.4 1437.02,1386.4 1522.68,1386.4 1608.34,1386.4 1694.01,1386.4 1779.67,1386.4 1865.33,1386.4 1951,1386.4 
  2036.66,1386.4 2122.32,1386.4 2207.99,1386.4 2293.65,1386.4 
  "></polyline>
<path clip-path="url(#clip582)" d="
M323.395 1067.72 L409.058 1075.15 L494.721 1042.14 L580.384 833.418 L666.048 706.612 L751.711 706.612 L837.374 706.612 L923.037 951.224 L1008.7 1203.91 L1094.36 1384.96 
  L1180.03 1386.4 L1265.69 1386.4 L1351.35 1213.32 L1437.02 1350.15 L1522.68 1272.26 L1608.34 1147.79 L1694.01 786.601 L1779.67 706.612 L1865.33 706.612 L1951 706.612 
  L2036.66 706.612 L2122.32 896.853 L2207.99 986.297 L2293.65 1049.38 L2293.65 1386.4 L2207.99 1386.4 L2122.32 1386.4 L2036.66 1386.4 L1951 1386.4 L1865.33 1386.4 
  L1779.67 1386.4 L1694.01 1386.4 L1608.34 1386.4 L1522.68 1386.4 L1437.02 1386.4 L1351.35 1386.4 L1265.69 1386.4 L1180.03 1386.4 L1094.36 1386.4 L1008.7 1386.4 
  L923.037 1386.4 L837.374 1386.4 L751.711 1386.4 L666.048 1386.4 L580.384 1386.4 L494.721 1386.4 L409.058 1386.4 L323.395 1386.4  Z
  " fill="#3da44d" fill-rule="evenodd" fill-opacity="1"></path>
<polyline clip-path="url(#clip582)" style="stroke:#3da44d; stroke-linecap:round; stroke-linejoin:round; stroke-width:4; stroke-opacity:1; fill:none" points="
  323.395,1067.72 409.058,1075.15 494.721,1042.14 580.384,833.418 666.048,706.612 751.711,706.612 837.374,706.612 923.037,951.224 1008.7,1203.91 1094.36,1384.96 
  1180.03,1386.4 1265.69,1386.4 1351.35,1213.32 1437.02,1350.15 1522.68,1272.26 1608.34,1147.79 1694.01,786.601 1779.67,706.612 1865.33,706.612 1951,706.612 
  2036.66,706.612 2122.32,896.853 2207.99,986.297 2293.65,1049.38 
  "></polyline>
<path clip-path="url(#clip582)" d="
M323.395 1067.72 L409.058 1075.15 L494.721 1042.14 L580.384 833.418 L666.048 634.648 L751.711 504.88 L837.374 570.667 L923.037 951.224 L1008.7 1203.91 L1094.36 1384.96 
  L1180.03 1386.4 L1265.69 1386.4 L1351.35 1213.32 L1437.02 1350.15 L1522.68 1272.26 L1608.34 1147.79 L1694.01 786.601 L1779.67 355.073 L1865.33 355.073 L1951 616.618 
  L2036.66 706.612 L2122.32 896.853 L2207.99 986.297 L2293.65 1049.38 L2293.65 1049.38 L2207.99 986.297 L2122.32 896.853 L2036.66 706.612 L1951 706.612 L1865.33 706.612 
  L1779.67 706.612 L1694.01 786.601 L1608.34 1147.79 L1522.68 1272.26 L1437.02 1350.15 L1351.35 1213.32 L1265.69 1386.4 L1180.03 1386.4 L1094.36 1384.96 L1008.7 1203.91 
  L923.037 951.224 L837.374 706.612 L751.711 706.612 L666.048 706.612 L580.384 833.418 L494.721 1042.14 L409.058 1075.15 L323.395 1067.72  Z
  " fill="#c271d2" fill-rule="evenodd" fill-opacity="1"></path>
<polyline clip-path="url(#clip582)" style="stroke:#c271d2; stroke-linecap:round; stroke-linejoin:round; stroke-width:4; stroke-opacity:1; fill:none" points="
  323.395,1067.72 409.058,1075.15 494.721,1042.14 580.384,833.418 666.048,634.648 751.711,504.88 837.374,570.667 923.037,951.224 1008.7,1203.91 1094.36,1384.96 
  1180.03,1386.4 1265.69,1386.4 1351.35,1213.32 1437.02,1350.15 1522.68,1272.26 1608.34,1147.79 1694.01,786.601 1779.67,355.073 1865.33,355.073 1951,616.618 
  2036.66,706.612 2122.32,896.853 2207.99,986.297 2293.65,1049.38 
  "></polyline>
<path clip-path="url(#clip582)" d="
M323.395 781.303 L409.058 793.669 L494.721 770.534 L580.384 695.147 L666.048 565.513 L751.711 401.176 L837.374 555.852 L923.037 931.471 L1008.7 1198.98 L1094.36 1365.21 
  L1180.03 1386.4 L1265.69 1381.46 L1351.35 1193.57 L1437.02 1330.4 L1522.68 1267.32 L1608.34 1142.85 L1694.01 781.662 L1779.67 290.875 L1865.33 206.925 L1951 394.395 
  L2036.66 489.328 L2122.32 615.372 L2207.99 714.691 L2293.65 762.955 L2293.65 1049.38 L2207.99 986.297 L2122.32 896.853 L2036.66 706.612 L1951 616.618 L1865.33 355.073 
  L1779.67 355.073 L1694.01 786.601 L1608.34 1147.79 L1522.68 1272.26 L1437.02 1350.15 L1351.35 1213.32 L1265.69 1386.4 L1180.03 1386.4 L1094.36 1384.96 L1008.7 1203.91 
  L923.037 951.224 L837.374 570.667 L751.711 504.88 L666.048 634.648 L580.384 833.418 L494.721 1042.14 L409.058 1075.15 L323.395 1067.72  Z
  " fill="#ac8d18" fill-rule="evenodd" fill-opacity="1"></path>
<polyline clip-path="url(#clip582)" style="stroke:#ac8d18; stroke-linecap:round; stroke-linejoin:round; stroke-width:4; stroke-opacity:1; fill:none" points="
  323.395,781.303 409.058,793.669 494.721,770.534 580.384,695.147 666.048,565.513 751.711,401.176 837.374,555.852 923.037,931.471 1008.7,1198.98 1094.36,1365.21 
  1180.03,1386.4 1265.69,1381.46 1351.35,1193.57 1437.02,1330.4 1522.68,1267.32 1608.34,1142.85 1694.01,781.662 1779.67,290.875 1865.33,206.925 1951,394.395 
  2036.66,489.328 2122.32,615.372 2207.99,714.691 2293.65,762.955 
  "></polyline>
<path clip-path="url(#clip582)" d="
M323.395 781.303 L409.058 793.669 L494.721 770.534 L580.384 695.147 L666.048 565.513 L751.711 401.176 L837.374 338.154 L923.037 311.031 L1008.7 328.182 L1094.36 352.913 
  L1180.03 338.952 L1265.69 303.851 L1351.35 268.351 L1437.02 252.795 L1522.68 233.25 L1608.34 261.171 L1694.01 182.992 L1779.67 160.256 L1865.33 206.925 L1951 394.395 
  L2036.66 489.328 L2122.32 615.372 L2207.99 714.691 L2293.65 762.955 L2293.65 762.955 L2207.99 714.691 L2122.32 615.372 L2036.66 489.328 L1951 394.395 L1865.33 206.925 
  L1779.67 290.875 L1694.01 781.662 L1608.34 1142.85 L1522.68 1267.32 L1437.02 1330.4 L1351.35 1193.57 L1265.69 1381.46 L1180.03 1386.4 L1094.36 1365.21 L1008.7 1198.98 
  L923.037 931.471 L837.374 555.852 L751.711 401.176 L666.048 565.513 L580.384 695.147 L494.721 770.534 L409.058 793.669 L323.395 781.303  Z
  " fill="#00a9ad" fill-rule="evenodd" fill-opacity="1"></path>
<polyline clip-path="url(#clip582)" style="stroke:#00a9ad; stroke-linecap:round; stroke-linejoin:round; stroke-width:4; stroke-opacity:1; fill:none" points="
  323.395,781.303 409.058,793.669 494.721,770.534 580.384,695.147 666.048,565.513 751.711,401.176 837.374,338.154 923.037,311.031 1008.7,328.182 1094.36,352.913 
  1180.03,338.952 1265.69,303.851 1351.35,268.351 1437.02,252.795 1522.68,233.25 1608.34,261.171 1694.01,182.992 1779.67,160.256 1865.33,206.925 1951,394.395 
  2036.66,489.328 2122.32,615.372 2207.99,714.691 2293.65,762.955 
  "></polyline>
<polyline clip-path="url(#clip582)" style="stroke:#ff0000; stroke-linecap:round; stroke-linejoin:round; stroke-width:4; stroke-opacity:1; fill:none" stroke-dasharray="16, 10" points="
  323.395,781.303 409.058,793.669 494.721,770.534 580.384,695.147 666.048,565.513 751.711,401.176 837.374,338.154 923.037,311.031 1008.7,328.182 1094.36,352.913 
  1180.03,338.952 1265.69,303.851 1351.35,268.351 1437.02,252.795 1522.68,233.25 1608.34,261.171 1694.01,182.992 1779.67,160.256 1865.33,206.925 1951,394.395 
  2036.66,489.328 2122.32,615.372 2207.99,714.691 2293.65,762.955 
  "></polyline>
<path clip-path="url(#clip580)" d="
M1778.43 581.516 L2283.14 581.516 L2283.14 166.796 L1778.43 166.796  Z
  " fill="#ffffff" fill-rule="evenodd" fill-opacity="1"></path>
<polyline clip-path="url(#clip580)" style="stroke:#000000; stroke-linecap:round; stroke-linejoin:round; stroke-width:4; stroke-opacity:1; fill:none" points="
  1778.43,581.516 2283.14,581.516 2283.14,166.796 1778.43,166.796 1778.43,581.516 
  "></polyline>
<path clip-path="url(#clip580)" d="
M1801.63 239.372 L1940.86 239.372 L1940.86 197.9 L1801.63 197.9 L1801.63 239.372  Z
  " fill="#009af9" fill-rule="evenodd" fill-opacity="1"></path>
<polyline clip-path="url(#clip580)" style="stroke:#009af9; stroke-linecap:round; stroke-linejoin:round; stroke-width:4; stroke-opacity:1; fill:none" points="
  1801.63,197.9 1940.86,197.9 
  "></polyline>
<path clip-path="url(#clip580)" d="M1989.62 230.985 L1989.62 221.703 L1981.99 221.703 L1981.99 217.86 L1994.25 217.86 L1994.25 232.698 Q1991.55 234.619 1988.28 235.615 Q1985.02 236.587 1981.31 236.587 Q1973.21 236.587 1968.63 231.865 Q1964.07 227.119 1964.07 218.67 Q1964.07 210.198 1968.63 205.476 Q1973.21 200.731 1981.31 200.731 Q1984.69 200.731 1987.73 201.564 Q1990.78 202.397 1993.35 204.018 L1993.35 208.995 Q1990.76 206.796 1987.84 205.684 Q1984.93 204.573 1981.71 204.573 Q1975.37 204.573 1972.17 208.115 Q1969 211.657 1969 218.67 Q1969 225.661 1972.17 229.203 Q1975.37 232.744 1981.71 232.744 Q1984.18 232.744 1986.13 232.328 Q1988.07 231.888 1989.62 230.985 Z" fill="#000000" fill-rule="evenodd" fill-opacity="1"></path><path clip-path="url(#clip580)" d="M2024.79 221.888 L2024.79 223.971 L2005.2 223.971 Q2005.48 228.369 2007.84 230.684 Q2010.23 232.976 2014.46 232.976 Q2016.92 232.976 2019.21 232.374 Q2021.52 231.772 2023.79 230.569 L2023.79 234.596 Q2021.5 235.568 2019.09 236.078 Q2016.68 236.587 2014.21 236.587 Q2008 236.587 2004.37 232.976 Q2000.76 229.365 2000.76 223.207 Q2000.76 216.842 2004.18 213.115 Q2007.63 209.365 2013.47 209.365 Q2018.7 209.365 2021.73 212.745 Q2024.79 216.101 2024.79 221.888 M2020.53 220.638 Q2020.48 217.143 2018.56 215.059 Q2016.66 212.976 2013.51 212.976 Q2009.95 212.976 2007.8 214.99 Q2005.67 217.004 2005.34 220.661 L2020.53 220.638 Z" fill="#000000" fill-rule="evenodd" fill-opacity="1"></path><path clip-path="url(#clip580)" d="M2041.82 212.976 Q2038.4 212.976 2036.41 215.661 Q2034.42 218.323 2034.42 222.976 Q2034.42 227.629 2036.38 230.314 Q2038.37 232.976 2041.82 232.976 Q2045.23 232.976 2047.22 230.291 Q2049.21 227.606 2049.21 222.976 Q2049.21 218.37 2047.22 215.684 Q2045.23 212.976 2041.82 212.976 M2041.82 209.365 Q2047.38 209.365 2050.55 212.976 Q2053.72 216.587 2053.72 222.976 Q2053.72 229.342 2050.55 232.976 Q2047.38 236.587 2041.82 236.587 Q2036.24 236.587 2033.07 232.976 Q2029.93 229.342 2029.93 222.976 Q2029.93 216.587 2033.07 212.976 Q2036.24 209.365 2041.82 209.365 Z" fill="#000000" fill-rule="evenodd" fill-opacity="1"></path><path clip-path="url(#clip580)" d="M2064.99 202.629 L2064.99 209.99 L2073.77 209.99 L2073.77 213.3 L2064.99 213.3 L2064.99 227.374 Q2064.99 230.545 2065.85 231.448 Q2066.73 232.351 2069.39 232.351 L2073.77 232.351 L2073.77 235.916 L2069.39 235.916 Q2064.46 235.916 2062.59 234.087 Q2060.71 232.235 2060.71 227.374 L2060.71 213.3 L2057.59 213.3 L2057.59 209.99 L2060.71 209.99 L2060.71 202.629 L2064.99 202.629 Z" fill="#000000" fill-rule="evenodd" fill-opacity="1"></path><path clip-path="url(#clip580)" d="M2100.92 220.268 L2100.92 235.916 L2096.66 235.916 L2096.66 220.407 Q2096.66 216.726 2095.23 214.897 Q2093.79 213.069 2090.92 213.069 Q2087.47 213.069 2085.48 215.268 Q2083.49 217.467 2083.49 221.263 L2083.49 235.916 L2079.21 235.916 L2079.21 199.897 L2083.49 199.897 L2083.49 214.018 Q2085.02 211.68 2087.08 210.522 Q2089.16 209.365 2091.87 209.365 Q2096.34 209.365 2098.63 212.143 Q2100.92 214.897 2100.92 220.268 Z" fill="#000000" fill-rule="evenodd" fill-opacity="1"></path><path clip-path="url(#clip580)" d="M2131.59 221.888 L2131.59 223.971 L2112.01 223.971 Q2112.29 228.369 2114.65 230.684 Q2117.03 232.976 2121.27 232.976 Q2123.72 232.976 2126.01 232.374 Q2128.33 231.772 2130.6 230.569 L2130.6 234.596 Q2128.3 235.568 2125.9 236.078 Q2123.49 236.587 2121.01 236.587 Q2114.81 236.587 2111.17 232.976 Q2107.56 229.365 2107.56 223.207 Q2107.56 216.842 2110.99 213.115 Q2114.44 209.365 2120.27 209.365 Q2125.5 209.365 2128.54 212.745 Q2131.59 216.101 2131.59 221.888 M2127.33 220.638 Q2127.29 217.143 2125.36 215.059 Q2123.47 212.976 2120.32 212.976 Q2116.75 212.976 2114.6 214.99 Q2112.47 217.004 2112.15 220.661 L2127.33 220.638 Z" fill="#000000" fill-rule="evenodd" fill-opacity="1"></path><path clip-path="url(#clip580)" d="M2153.61 213.971 Q2152.89 213.555 2152.03 213.37 Q2151.2 213.161 2150.18 213.161 Q2146.57 213.161 2144.62 215.522 Q2142.7 217.86 2142.7 222.258 L2142.7 235.916 L2138.42 235.916 L2138.42 209.99 L2142.7 209.99 L2142.7 214.018 Q2144.05 211.657 2146.2 210.522 Q2148.35 209.365 2151.43 209.365 Q2151.87 209.365 2152.4 209.434 Q2152.93 209.481 2153.58 209.596 L2153.61 213.971 Z" fill="#000000" fill-rule="evenodd" fill-opacity="1"></path><path clip-path="url(#clip580)" d="M2177.42 214.967 Q2179.02 212.096 2181.24 210.731 Q2183.47 209.365 2186.48 209.365 Q2190.53 209.365 2192.73 212.212 Q2194.92 215.036 2194.92 220.268 L2194.92 235.916 L2190.64 235.916 L2190.64 220.407 Q2190.64 216.68 2189.32 214.874 Q2188 213.069 2185.29 213.069 Q2181.98 213.069 2180.06 215.268 Q2178.14 217.467 2178.14 221.263 L2178.14 235.916 L2173.86 235.916 L2173.86 220.407 Q2173.86 216.657 2172.54 214.874 Q2171.22 213.069 2168.47 213.069 Q2165.2 213.069 2163.28 215.291 Q2161.36 217.49 2161.36 221.263 L2161.36 235.916 L2157.08 235.916 L2157.08 209.99 L2161.36 209.99 L2161.36 214.018 Q2162.82 211.633 2164.86 210.499 Q2166.89 209.365 2169.69 209.365 Q2172.52 209.365 2174.48 210.8 Q2176.48 212.235 2177.42 214.967 Z" fill="#000000" fill-rule="evenodd" fill-opacity="1"></path><path clip-path="url(#clip580)" d="M2215.2 222.883 Q2210.04 222.883 2208.05 224.064 Q2206.06 225.244 2206.06 228.092 Q2206.06 230.36 2207.54 231.703 Q2209.04 233.022 2211.61 233.022 Q2215.16 233.022 2217.29 230.522 Q2219.44 227.999 2219.44 223.832 L2219.44 222.883 L2215.2 222.883 M2223.7 221.124 L2223.7 235.916 L2219.44 235.916 L2219.44 231.981 Q2217.98 234.342 2215.8 235.476 Q2213.63 236.587 2210.48 236.587 Q2206.5 236.587 2204.14 234.365 Q2201.8 232.119 2201.8 228.369 Q2201.8 223.994 2204.72 221.772 Q2207.66 219.55 2213.47 219.55 L2219.44 219.55 L2219.44 219.133 Q2219.44 216.194 2217.49 214.596 Q2215.57 212.976 2212.08 212.976 Q2209.86 212.976 2207.75 213.508 Q2205.64 214.041 2203.7 215.106 L2203.7 211.17 Q2206.04 210.268 2208.23 209.828 Q2210.43 209.365 2212.52 209.365 Q2218.14 209.365 2220.92 212.282 Q2223.7 215.198 2223.7 221.124 Z" fill="#000000" fill-rule="evenodd" fill-opacity="1"></path><path clip-path="url(#clip580)" d="M2232.47 199.897 L2236.73 199.897 L2236.73 235.916 L2232.47 235.916 L2232.47 199.897 Z" fill="#000000" fill-rule="evenodd" fill-opacity="1"></path><path clip-path="url(#clip580)" d="
M1801.63 291.212 L1940.86 291.212 L1940.86 249.74 L1801.63 249.74 L1801.63 291.212  Z
  " fill="#e26f46" fill-rule="evenodd" fill-opacity="1"></path>
<polyline clip-path="url(#clip580)" style="stroke:#e26f46; stroke-linecap:round; stroke-linejoin:round; stroke-width:4; stroke-opacity:1; fill:none" points="
  1801.63,249.74 1940.86,249.74 
  "></polyline>
<path clip-path="url(#clip580)" d="M1991.94 255.858 L1991.94 260.788 Q1989.58 258.589 1986.89 257.501 Q1984.23 256.413 1981.22 256.413 Q1975.3 256.413 1972.15 260.048 Q1969 263.659 1969 270.51 Q1969 277.339 1972.15 280.973 Q1975.3 284.584 1981.22 284.584 Q1984.23 284.584 1986.89 283.496 Q1989.58 282.409 1991.94 280.209 L1991.94 285.094 Q1989.49 286.76 1986.73 287.594 Q1984 288.427 1980.94 288.427 Q1973.1 288.427 1968.58 283.635 Q1964.07 278.821 1964.07 270.51 Q1964.07 262.177 1968.58 257.386 Q1973.1 252.571 1980.94 252.571 Q1984.05 252.571 1986.78 253.404 Q1989.53 254.214 1991.94 255.858 Z" fill="#000000" fill-rule="evenodd" fill-opacity="1"></path><path clip-path="url(#clip580)" d="M2009.02 264.816 Q2005.6 264.816 2003.61 267.501 Q2001.62 270.163 2001.62 274.816 Q2001.62 279.469 2003.58 282.154 Q2005.57 284.816 2009.02 284.816 Q2012.43 284.816 2014.42 282.131 Q2016.41 279.446 2016.41 274.816 Q2016.41 270.21 2014.42 267.524 Q2012.43 264.816 2009.02 264.816 M2009.02 261.205 Q2014.58 261.205 2017.75 264.816 Q2020.92 268.427 2020.92 274.816 Q2020.92 281.182 2017.75 284.816 Q2014.58 288.427 2009.02 288.427 Q2003.44 288.427 2000.27 284.816 Q1997.12 281.182 1997.12 274.816 Q1997.12 268.427 2000.27 264.816 Q2003.44 261.205 2009.02 261.205 Z" fill="#000000" fill-rule="evenodd" fill-opacity="1"></path><path clip-path="url(#clip580)" d="M2039.76 274.723 Q2034.6 274.723 2032.61 275.904 Q2030.62 277.084 2030.62 279.932 Q2030.62 282.2 2032.1 283.543 Q2033.61 284.862 2036.18 284.862 Q2039.72 284.862 2041.85 282.362 Q2044 279.839 2044 275.672 L2044 274.723 L2039.76 274.723 M2048.26 272.964 L2048.26 287.756 L2044 287.756 L2044 283.821 Q2042.54 286.182 2040.37 287.316 Q2038.19 288.427 2035.04 288.427 Q2031.06 288.427 2028.7 286.205 Q2026.36 283.959 2026.36 280.209 Q2026.36 275.834 2029.28 273.612 Q2032.22 271.39 2038.03 271.39 L2044 271.39 L2044 270.973 Q2044 268.034 2042.05 266.436 Q2040.13 264.816 2036.64 264.816 Q2034.42 264.816 2032.31 265.348 Q2030.2 265.881 2028.26 266.946 L2028.26 263.01 Q2030.6 262.108 2032.8 261.668 Q2034.99 261.205 2037.08 261.205 Q2042.7 261.205 2045.48 264.122 Q2048.26 267.038 2048.26 272.964 Z" fill="#000000" fill-rule="evenodd" fill-opacity="1"></path><path clip-path="url(#clip580)" d="M2057.03 251.737 L2061.29 251.737 L2061.29 287.756 L2057.03 287.756 L2057.03 251.737 Z" fill="#000000" fill-rule="evenodd" fill-opacity="1"></path><path clip-path="url(#clip580)" d="
M1801.63 343.052 L1940.86 343.052 L1940.86 301.58 L1801.63 301.58 L1801.63 343.052  Z
  " fill="#3da44d" fill-rule="evenodd" fill-opacity="1"></path>
<polyline clip-path="url(#clip580)" style="stroke:#3da44d; stroke-linecap:round; stroke-linejoin:round; stroke-width:4; stroke-opacity:1; fill:none" points="
  1801.63,301.58 1940.86,301.58 
  "></polyline>
<path clip-path="url(#clip580)" d="M1991.94 307.698 L1991.94 312.628 Q1989.58 310.429 1986.89 309.341 Q1984.23 308.253 1981.22 308.253 Q1975.3 308.253 1972.15 311.888 Q1969 315.499 1969 322.35 Q1969 329.179 1972.15 332.813 Q1975.3 336.424 1981.22 336.424 Q1984.23 336.424 1986.89 335.336 Q1989.58 334.249 1991.94 332.049 L1991.94 336.934 Q1989.49 338.6 1986.73 339.434 Q1984 340.267 1980.94 340.267 Q1973.1 340.267 1968.58 335.475 Q1964.07 330.661 1964.07 322.35 Q1964.07 314.017 1968.58 309.226 Q1973.1 304.411 1980.94 304.411 Q1984.05 304.411 1986.78 305.244 Q1989.53 306.054 1991.94 307.698 Z" fill="#000000" fill-rule="evenodd" fill-opacity="1"></path><path clip-path="url(#clip580)" d="M2025.04 307.698 L2025.04 312.628 Q2022.68 310.429 2019.99 309.341 Q2017.33 308.253 2014.32 308.253 Q2008.4 308.253 2005.25 311.888 Q2002.1 315.499 2002.1 322.35 Q2002.1 329.179 2005.25 332.813 Q2008.4 336.424 2014.32 336.424 Q2017.33 336.424 2019.99 335.336 Q2022.68 334.249 2025.04 332.049 L2025.04 336.934 Q2022.59 338.6 2019.83 339.434 Q2017.1 340.267 2014.05 340.267 Q2006.2 340.267 2001.68 335.475 Q1997.17 330.661 1997.17 322.35 Q1997.17 314.017 2001.68 309.226 Q2006.2 304.411 2014.05 304.411 Q2017.15 304.411 2019.88 305.244 Q2022.63 306.054 2025.04 307.698 Z" fill="#000000" fill-rule="evenodd" fill-opacity="1"></path><path clip-path="url(#clip580)" d="M2055.83 334.665 L2055.83 325.383 L2048.19 325.383 L2048.19 321.54 L2060.46 321.54 L2060.46 336.378 Q2057.75 338.299 2054.49 339.295 Q2051.22 340.267 2047.52 340.267 Q2039.42 340.267 2034.83 335.545 Q2030.27 330.799 2030.27 322.35 Q2030.27 313.878 2034.83 309.156 Q2039.42 304.411 2047.52 304.411 Q2050.9 304.411 2053.93 305.244 Q2056.99 306.077 2059.55 307.698 L2059.55 312.675 Q2056.96 310.476 2054.05 309.364 Q2051.13 308.253 2047.91 308.253 Q2041.57 308.253 2038.37 311.795 Q2035.2 315.337 2035.2 322.35 Q2035.2 329.341 2038.37 332.883 Q2041.57 336.424 2047.91 336.424 Q2050.39 336.424 2052.33 336.008 Q2054.28 335.568 2055.83 334.665 Z" fill="#000000" fill-rule="evenodd" fill-opacity="1"></path><path clip-path="url(#clip580)" d="M2062.52 305.036 L2091.75 305.036 L2091.75 308.971 L2079.49 308.971 L2079.49 339.596 L2074.79 339.596 L2074.79 308.971 L2062.52 308.971 L2062.52 305.036 Z" fill="#000000" fill-rule="evenodd" fill-opacity="1"></path><path clip-path="url(#clip580)" d="
M1801.63 394.892 L1940.86 394.892 L1940.86 353.42 L1801.63 353.42 L1801.63 394.892  Z
  " fill="#c271d2" fill-rule="evenodd" fill-opacity="1"></path>
<polyline clip-path="url(#clip580)" style="stroke:#c271d2; stroke-linecap:round; stroke-linejoin:round; stroke-width:4; stroke-opacity:1; fill:none" points="
  1801.63,353.42 1940.86,353.42 
  "></polyline>
<path clip-path="url(#clip580)" d="M1991.94 359.538 L1991.94 364.468 Q1989.58 362.269 1986.89 361.181 Q1984.23 360.093 1981.22 360.093 Q1975.3 360.093 1972.15 363.728 Q1969 367.339 1969 374.19 Q1969 381.019 1972.15 384.653 Q1975.3 388.264 1981.22 388.264 Q1984.23 388.264 1986.89 387.176 Q1989.58 386.089 1991.94 383.889 L1991.94 388.774 Q1989.49 390.44 1986.73 391.274 Q1984 392.107 1980.94 392.107 Q1973.1 392.107 1968.58 387.315 Q1964.07 382.501 1964.07 374.19 Q1964.07 365.857 1968.58 361.066 Q1973.1 356.251 1980.94 356.251 Q1984.05 356.251 1986.78 357.084 Q1989.53 357.894 1991.94 359.538 Z" fill="#000000" fill-rule="evenodd" fill-opacity="1"></path><path clip-path="url(#clip580)" d="M1994.37 356.876 L2023.61 356.876 L2023.61 360.811 L2011.34 360.811 L2011.34 391.436 L2006.64 391.436 L2006.64 360.811 L1994.37 360.811 L1994.37 356.876 Z" fill="#000000" fill-rule="evenodd" fill-opacity="1"></path><path clip-path="url(#clip580)" d="
M1801.63 446.732 L1940.86 446.732 L1940.86 405.26 L1801.63 405.26 L1801.63 446.732  Z
  " fill="#ac8d18" fill-rule="evenodd" fill-opacity="1"></path>
<polyline clip-path="url(#clip580)" style="stroke:#ac8d18; stroke-linecap:round; stroke-linejoin:round; stroke-width:4; stroke-opacity:1; fill:none" points="
  1801.63,405.26 1940.86,405.26 
  "></polyline>
<path clip-path="url(#clip580)" d="M1964.07 408.716 L1968.79 408.716 L1976.06 437.929 L1983.31 408.716 L1988.56 408.716 L1995.83 437.929 L2003.07 408.716 L2007.82 408.716 L1999.14 443.276 L1993.26 443.276 L1985.97 413.276 L1978.61 443.276 L1972.73 443.276 L1964.07 408.716 Z" fill="#000000" fill-rule="evenodd" fill-opacity="1"></path><path clip-path="url(#clip580)" d="M2012.8 417.35 L2017.06 417.35 L2017.06 443.276 L2012.8 443.276 L2012.8 417.35 M2012.8 407.257 L2017.06 407.257 L2017.06 412.651 L2012.8 412.651 L2012.8 407.257 Z" fill="#000000" fill-rule="evenodd" fill-opacity="1"></path><path clip-path="url(#clip580)" d="M2047.52 427.628 L2047.52 443.276 L2043.26 443.276 L2043.26 427.767 Q2043.26 424.086 2041.82 422.257 Q2040.39 420.429 2037.52 420.429 Q2034.07 420.429 2032.08 422.628 Q2030.09 424.827 2030.09 428.623 L2030.09 443.276 L2025.81 443.276 L2025.81 417.35 L2030.09 417.35 L2030.09 421.378 Q2031.62 419.04 2033.68 417.882 Q2035.76 416.725 2038.47 416.725 Q2042.93 416.725 2045.23 419.503 Q2047.52 422.257 2047.52 427.628 Z" fill="#000000" fill-rule="evenodd" fill-opacity="1"></path><path clip-path="url(#clip580)" d="M2073.07 421.285 L2073.07 407.257 L2077.33 407.257 L2077.33 443.276 L2073.07 443.276 L2073.07 439.387 Q2071.73 441.702 2069.67 442.836 Q2067.63 443.947 2064.76 443.947 Q2060.06 443.947 2057.1 440.197 Q2054.16 436.447 2054.16 430.336 Q2054.16 424.225 2057.1 420.475 Q2060.06 416.725 2064.76 416.725 Q2067.63 416.725 2069.67 417.859 Q2071.73 418.97 2073.07 421.285 M2058.56 430.336 Q2058.56 435.035 2060.48 437.72 Q2062.43 440.382 2065.8 440.382 Q2069.18 440.382 2071.13 437.72 Q2073.07 435.035 2073.07 430.336 Q2073.07 425.637 2071.13 422.975 Q2069.18 420.29 2065.8 420.29 Q2062.43 420.29 2060.48 422.975 Q2058.56 425.637 2058.56 430.336 Z" fill="#000000" fill-rule="evenodd" fill-opacity="1"></path><path clip-path="url(#clip580)" d="
M1801.63 498.572 L1940.86 498.572 L1940.86 457.1 L1801.63 457.1 L1801.63 498.572  Z
  " fill="#00a9ad" fill-rule="evenodd" fill-opacity="1"></path>
<polyline clip-path="url(#clip580)" style="stroke:#00a9ad; stroke-linecap:round; stroke-linejoin:round; stroke-width:4; stroke-opacity:1; fill:none" points="
  1801.63,457.1 1940.86,457.1 
  "></polyline>
<path clip-path="url(#clip580)" d="M1986.31 461.69 L1986.31 466.25 Q1983.65 464.977 1981.29 464.352 Q1978.93 463.727 1976.73 463.727 Q1972.91 463.727 1970.83 465.208 Q1968.77 466.69 1968.77 469.421 Q1968.77 471.713 1970.13 472.894 Q1971.52 474.051 1975.37 474.769 L1978.19 475.347 Q1983.42 476.343 1985.9 478.866 Q1988.4 481.366 1988.4 485.579 Q1988.4 490.602 1985.02 493.194 Q1981.66 495.787 1975.16 495.787 Q1972.7 495.787 1969.93 495.231 Q1967.17 494.676 1964.21 493.588 L1964.21 488.773 Q1967.06 490.37 1969.79 491.181 Q1972.52 491.991 1975.16 491.991 Q1979.16 491.991 1981.34 490.417 Q1983.51 488.843 1983.51 485.926 Q1983.51 483.38 1981.94 481.944 Q1980.39 480.509 1976.82 479.792 L1973.98 479.236 Q1968.75 478.195 1966.41 475.972 Q1964.07 473.75 1964.07 469.792 Q1964.07 465.208 1967.29 462.57 Q1970.53 459.931 1976.2 459.931 Q1978.63 459.931 1981.15 460.371 Q1983.68 460.81 1986.31 461.69 Z" fill="#000000" fill-rule="evenodd" fill-opacity="1"></path><path clip-path="url(#clip580)" d="M2005.55 472.176 Q2002.12 472.176 2000.13 474.861 Q1998.14 477.523 1998.14 482.176 Q1998.14 486.829 2000.11 489.514 Q2002.1 492.176 2005.55 492.176 Q2008.95 492.176 2010.94 489.491 Q2012.93 486.806 2012.93 482.176 Q2012.93 477.57 2010.94 474.884 Q2008.95 472.176 2005.55 472.176 M2005.55 468.565 Q2011.11 468.565 2014.28 472.176 Q2017.45 475.787 2017.45 482.176 Q2017.45 488.542 2014.28 492.176 Q2011.11 495.787 2005.55 495.787 Q1999.97 495.787 1996.8 492.176 Q1993.65 488.542 1993.65 482.176 Q1993.65 475.787 1996.8 472.176 Q1999.97 468.565 2005.55 468.565 Z" fill="#000000" fill-rule="evenodd" fill-opacity="1"></path><path clip-path="url(#clip580)" d="M2024.51 459.097 L2028.77 459.097 L2028.77 495.116 L2024.51 495.116 L2024.51 459.097 Z" fill="#000000" fill-rule="evenodd" fill-opacity="1"></path><path clip-path="url(#clip580)" d="M2049.46 482.083 Q2044.3 482.083 2042.31 483.264 Q2040.32 484.444 2040.32 487.292 Q2040.32 489.56 2041.8 490.903 Q2043.3 492.222 2045.87 492.222 Q2049.42 492.222 2051.55 489.722 Q2053.7 487.199 2053.7 483.032 L2053.7 482.083 L2049.46 482.083 M2057.96 480.324 L2057.96 495.116 L2053.7 495.116 L2053.7 491.181 Q2052.24 493.542 2050.06 494.676 Q2047.89 495.787 2044.74 495.787 Q2040.76 495.787 2038.4 493.565 Q2036.06 491.319 2036.06 487.569 Q2036.06 483.194 2038.98 480.972 Q2041.92 478.75 2047.73 478.75 L2053.7 478.75 L2053.7 478.333 Q2053.7 475.394 2051.75 473.796 Q2049.83 472.176 2046.34 472.176 Q2044.12 472.176 2042.01 472.708 Q2039.9 473.241 2037.96 474.306 L2037.96 470.37 Q2040.3 469.468 2042.49 469.028 Q2044.69 468.565 2046.78 468.565 Q2052.4 468.565 2055.18 471.482 Q2057.96 474.398 2057.96 480.324 Z" fill="#000000" fill-rule="evenodd" fill-opacity="1"></path><path clip-path="url(#clip580)" d="M2081.75 473.171 Q2081.04 472.755 2080.18 472.57 Q2079.35 472.361 2078.33 472.361 Q2074.72 472.361 2072.77 474.722 Q2070.85 477.06 2070.85 481.458 L2070.85 495.116 L2066.57 495.116 L2066.57 469.19 L2070.85 469.19 L2070.85 473.218 Q2072.19 470.857 2074.35 469.722 Q2076.5 468.565 2079.58 468.565 Q2080.02 468.565 2080.55 468.634 Q2081.08 468.681 2081.73 468.796 L2081.75 473.171 Z" fill="#000000" fill-rule="evenodd" fill-opacity="1"></path><polyline clip-path="url(#clip580)" style="stroke:#ff0000; stroke-linecap:round; stroke-linejoin:round; stroke-width:4; stroke-opacity:1; fill:none" stroke-dasharray="16, 10" points="
  1801.63,529.676 1940.86,529.676 
  "></polyline>
<path clip-path="url(#clip580)" d="M1968.75 516.238 L1968.75 543.113 L1974.39 543.113 Q1981.55 543.113 1984.86 539.872 Q1988.19 536.632 1988.19 529.641 Q1988.19 522.697 1984.86 519.479 Q1981.55 516.238 1974.39 516.238 L1968.75 516.238 M1964.07 512.396 L1973.68 512.396 Q1983.72 512.396 1988.42 516.586 Q1993.12 520.752 1993.12 529.641 Q1993.12 538.576 1988.4 542.766 Q1983.68 546.956 1973.68 546.956 L1964.07 546.956 L1964.07 512.396 Z" fill="#000000" fill-rule="evenodd" fill-opacity="1"></path><path clip-path="url(#clip580)" d="M2022.56 532.928 L2022.56 535.011 L2002.98 535.011 Q2003.26 539.409 2005.62 541.724 Q2008 544.016 2012.24 544.016 Q2014.69 544.016 2016.99 543.414 Q2019.3 542.812 2021.57 541.609 L2021.57 545.636 Q2019.28 546.608 2016.87 547.118 Q2014.46 547.627 2011.99 547.627 Q2005.78 547.627 2002.15 544.016 Q1998.54 540.405 1998.54 534.247 Q1998.54 527.882 2001.96 524.155 Q2005.41 520.405 2011.24 520.405 Q2016.48 520.405 2019.51 523.785 Q2022.56 527.141 2022.56 532.928 M2018.31 531.678 Q2018.26 528.183 2016.34 526.099 Q2014.44 524.016 2011.29 524.016 Q2007.73 524.016 2005.57 526.03 Q2003.44 528.044 2003.12 531.701 L2018.31 531.678 Z" fill="#000000" fill-rule="evenodd" fill-opacity="1"></path><path clip-path="url(#clip580)" d="M2049.74 526.007 Q2051.34 523.136 2053.56 521.771 Q2055.78 520.405 2058.79 520.405 Q2062.84 520.405 2065.04 523.252 Q2067.24 526.076 2067.24 531.308 L2067.24 546.956 L2062.96 546.956 L2062.96 531.447 Q2062.96 527.72 2061.64 525.914 Q2060.32 524.109 2057.61 524.109 Q2054.3 524.109 2052.38 526.308 Q2050.46 528.507 2050.46 532.303 L2050.46 546.956 L2046.18 546.956 L2046.18 531.447 Q2046.18 527.697 2044.86 525.914 Q2043.54 524.109 2040.78 524.109 Q2037.52 524.109 2035.6 526.331 Q2033.68 528.53 2033.68 532.303 L2033.68 546.956 L2029.39 546.956 L2029.39 521.03 L2033.68 521.03 L2033.68 525.058 Q2035.13 522.673 2037.17 521.539 Q2039.21 520.405 2042.01 520.405 Q2044.83 520.405 2046.8 521.84 Q2048.79 523.275 2049.74 526.007 Z" fill="#000000" fill-rule="evenodd" fill-opacity="1"></path><path clip-path="url(#clip580)" d="M2087.52 533.923 Q2082.36 533.923 2080.36 535.104 Q2078.37 536.284 2078.37 539.132 Q2078.37 541.4 2079.86 542.743 Q2081.36 544.062 2083.93 544.062 Q2087.47 544.062 2089.6 541.562 Q2091.75 539.039 2091.75 534.872 L2091.75 533.923 L2087.52 533.923 M2096.01 532.164 L2096.01 546.956 L2091.75 546.956 L2091.75 543.021 Q2090.3 545.382 2088.12 546.516 Q2085.94 547.627 2082.8 547.627 Q2078.81 547.627 2076.45 545.405 Q2074.12 543.159 2074.12 539.409 Q2074.12 535.034 2077.03 532.812 Q2079.97 530.59 2085.78 530.59 L2091.75 530.59 L2091.75 530.173 Q2091.75 527.234 2089.81 525.636 Q2087.89 524.016 2084.39 524.016 Q2082.17 524.016 2080.06 524.548 Q2077.96 525.081 2076.01 526.146 L2076.01 522.21 Q2078.35 521.308 2080.55 520.868 Q2082.75 520.405 2084.83 520.405 Q2090.46 520.405 2093.24 523.322 Q2096.01 526.238 2096.01 532.164 Z" fill="#000000" fill-rule="evenodd" fill-opacity="1"></path><path clip-path="url(#clip580)" d="M2126.34 531.308 L2126.34 546.956 L2122.08 546.956 L2122.08 531.447 Q2122.08 527.766 2120.64 525.937 Q2119.21 524.109 2116.34 524.109 Q2112.89 524.109 2110.9 526.308 Q2108.91 528.507 2108.91 532.303 L2108.91 546.956 L2104.62 546.956 L2104.62 521.03 L2108.91 521.03 L2108.91 525.058 Q2110.43 522.72 2112.49 521.562 Q2114.58 520.405 2117.29 520.405 Q2121.75 520.405 2124.05 523.183 Q2126.34 525.937 2126.34 531.308 Z" fill="#000000" fill-rule="evenodd" fill-opacity="1"></path><path clip-path="url(#clip580)" d="M2151.89 524.965 L2151.89 510.937 L2156.15 510.937 L2156.15 546.956 L2151.89 546.956 L2151.89 543.067 Q2150.55 545.382 2148.49 546.516 Q2146.45 547.627 2143.58 547.627 Q2138.88 547.627 2135.92 543.877 Q2132.98 540.127 2132.98 534.016 Q2132.98 527.905 2135.92 524.155 Q2138.88 520.405 2143.58 520.405 Q2146.45 520.405 2148.49 521.539 Q2150.55 522.65 2151.89 524.965 M2137.38 534.016 Q2137.38 538.715 2139.3 541.4 Q2141.24 544.062 2144.62 544.062 Q2148 544.062 2149.95 541.4 Q2151.89 538.715 2151.89 534.016 Q2151.89 529.317 2149.95 526.655 Q2148 523.97 2144.62 523.97 Q2141.24 523.97 2139.3 526.655 Q2137.38 529.317 2137.38 534.016 Z" fill="#000000" fill-rule="evenodd" fill-opacity="1"></path></svg>